<svg width="312" height="300" viewBox="0 0 312 300" fill="none" xmlns="http://www.w3.org/2000/svg">
<path d="M120.983 143.342C120.704 145.082 120.547 146.84 120.513 148.602C114.513 150.602 101.723 154.122 79.4031 156.852C44.5631 161.152 9.05316 155.102 2.86316 147.212C0.49316 144.212 -0.00688696 140.772 1.50311 137.822C3.17311 134.532 10.0531 127.202 38.1831 127.202C39.9931 127.202 41.9131 127.202 43.8931 127.282C78.5331 128.402 108.643 138.542 120.983 143.342Z" fill="#FFC200"/>
<path d="M132.083 175.842C131.213 177.622 130.083 179.772 128.763 182.252C123.413 191.762 117.475 200.93 110.983 209.702C104.034 219.198 96.2464 228.05 87.7131 236.152C85.7131 238.042 83.7131 239.862 81.7131 241.582C81.6331 241.642 81.5731 241.722 81.4931 241.782C68.8931 252.732 57.2731 259.482 51.6631 259.002C47.8431 258.672 45.0031 256.722 43.8931 253.622C42.5231 249.922 41.8931 238.772 65.0731 215.412C88.7631 191.642 115.993 176.642 127.643 170.842C128.854 172.468 130.192 173.996 131.643 175.412C131.833 175.612 131.973 175.722 132.083 175.842Z" fill="#FFC200"/>
<path d="M192.123 295.602C189.723 298.602 186.513 299.922 183.283 299.172C179.433 298.252 169.763 292.652 163.043 260.462C156.583 229.552 158.283 200.702 159.983 185.562C162.565 185.373 165.117 184.897 167.593 184.142C171.213 190.332 176.733 201.232 183.393 218.952C195.773 251.842 198.283 287.772 192.123 295.602Z" fill="#FFC200"/>
<path d="M285.853 230.582C282.563 232.782 271.853 236.042 243.743 218.982C239.393 216.362 235.213 213.602 231.283 210.792C226.637 205.755 221.734 200.962 216.593 196.432C208.593 189.432 201.063 183.332 194.353 178.482C194.353 178.482 194.353 178.482 194.293 178.482C191.563 175.482 188.993 172.682 186.933 170.232C188.405 168.148 189.649 165.911 190.643 163.562C197.803 165.182 209.703 168.612 227.293 175.832C259.763 189.182 287.753 211.832 289.293 221.762C289.843 225.532 288.613 228.772 285.853 230.582Z" fill="#FFC200"/>
<path d="M302.073 109.502C301.773 111.452 300.373 114.932 295.073 119.062C289.773 123.192 280.663 127.952 264.803 132.442C235.533 140.722 207.413 141.272 192.583 140.772C191.912 137.878 190.88 135.079 189.513 132.442C195.453 128.542 205.683 122.522 222.013 114.992C253.953 100.362 289.633 95.3717 297.883 100.992C301.103 103.152 302.603 106.272 302.073 109.502Z" fill="#FFC200"/>
<path d="M146.243 114.262C144.855 114.675 143.495 115.18 142.173 115.772C138.023 111.112 129.883 100.642 118.313 79.4817C101.473 48.6217 94.0031 13.3917 99.0531 4.78173C100.833 1.71173 103.543 0.0117091 106.523 0.0117091C106.763 -0.00390304 107.003 -0.00390304 107.243 0.0117091C111.243 0.381709 121.543 4.56172 132.693 35.5217C145.043 69.8417 146.213 103.282 146.243 114.262Z" fill="#FFC200"/>
<path d="M137.793 180.212C137.293 183.642 136.513 187.602 135.453 191.922C127.343 205.602 116.303 227.122 109.613 252.352C108.863 255.162 108.223 257.842 107.663 260.352C98.9432 274.282 89.9332 284.072 84.6632 285.272C81.1432 286.102 78.0832 285.182 76.2132 282.812C73.9832 280.002 70.3032 270.522 83.7932 243.602C94.7456 233.959 104.608 223.144 113.203 211.352C124.773 195.432 130.983 184.482 134.203 177.732C135.347 178.632 136.546 179.46 137.793 180.212Z" fill="#FFC200"/>
<path d="M150.863 195.852C150.794 205.643 150.199 215.424 149.083 225.152C145.403 260.052 131.523 293.302 122.463 297.572C119.063 299.132 115.663 298.902 113.153 296.902C109.813 294.222 105.013 286.082 110.343 261.302C110.329 261.239 110.329 261.174 110.343 261.112C110.893 258.572 111.513 255.902 112.263 253.112C112.345 252.753 112.449 252.399 112.573 252.052C117.334 234.863 124.044 218.276 132.573 202.612C134.433 199.152 136.243 195.972 137.923 193.162L138.063 192.932C139.923 189.762 141.903 186.612 144.063 183.372C146.129 184.159 148.266 184.748 150.443 185.132C150.713 187.882 150.863 191.442 150.863 195.852Z" fill="#FFC200"/>
<path d="M310.523 173.752C308.343 177.062 299.793 184.232 267.183 179.432C233.123 174.432 204.633 161.152 193.093 155.152C193.406 153.321 193.573 151.469 193.593 149.612C199.813 148.242 212.823 146.232 235.233 146.042C270.353 145.652 304.973 155.772 310.233 164.272C312.223 167.562 312.333 171.012 310.523 173.752Z" fill="#FFC200"/>
<path d="M190.813 29.5017C190.813 33.1017 190.606 37.2084 190.193 41.8217C190.193 41.9117 190.193 41.9917 190.193 42.0817C190.063 43.5517 189.893 45.0817 189.693 46.6717C189.553 47.7317 189.443 48.7917 189.273 49.8517C185.463 77.8517 176.013 102.172 170.273 115.072C169.993 114.962 169.713 114.852 169.433 114.772C169.153 114.692 168.713 114.522 168.343 114.382C167.793 114.212 167.263 114.042 166.703 113.902C164.549 113.323 162.346 112.941 160.123 112.762C158.422 101.733 157.42 90.6072 157.123 79.4517C155.893 44.3617 165.033 9.52172 173.403 4.06172C176.603 1.99172 180.003 1.77173 182.793 3.44173C186.013 5.42173 190.813 11.3917 190.813 29.5017Z" fill="#FFC200"/>
<path d="M125.113 131.352C124.366 132.716 123.699 134.121 123.113 135.562C116.873 135.392 103.693 134.142 80.8631 128.312C46.8631 119.562 15.9731 101.002 13.1031 91.4717C11.9831 87.7917 12.7731 84.4117 15.2531 82.2117C16.6731 80.9317 19.7931 79.1517 26.0931 79.1517C32.7831 79.1517 43.0131 81.1517 58.5631 87.8117C67.5766 91.7081 76.3136 96.2153 84.7131 101.302C84.7553 101.309 84.7938 101.33 84.8231 101.362C96.799 108.597 108.169 116.791 118.823 125.862L119.073 126.062C121.773 128.312 123.713 130.152 125.113 131.352Z" fill="#FFC200"/>
<path d="M258.513 260.762C258.519 261.211 258.482 261.66 258.403 262.102C257.703 265.892 255.503 268.542 252.293 269.382C248.503 270.382 237.293 269.962 216.233 244.682C194.993 219.212 182.713 191.052 178.013 179.152C179.942 177.807 181.734 176.277 183.363 174.582C186.213 176.302 189.303 178.372 192.653 180.762C199.323 185.532 206.763 191.522 214.733 198.542C219.845 203.038 224.712 207.805 229.313 212.822L229.393 212.902C248.113 233.252 258.513 252.542 258.513 260.762Z" fill="#FFC200"/>
<path d="M265.393 52.8117C265.393 58.3017 261.853 69.0817 242.823 87.3417C223.053 106.342 201.293 119.342 186.153 127.062C183.924 124.116 181.256 121.53 178.243 119.392C179.413 117.392 180.723 115.182 182.143 112.962L182.783 111.962C186.713 105.862 191.453 99.1717 196.853 92.0617C202.193 85.0832 207.996 78.4716 214.223 72.2717C214.267 72.2226 214.314 72.1759 214.363 72.1317C233.563 52.9617 250.733 43.3417 257.253 44.1317C261.073 44.5517 263.863 46.5817 264.923 49.7117C265.244 50.7134 265.403 51.7599 265.393 52.8117Z" fill="#FFC200"/>
<path d="M232.483 20.2217C232.483 26.7717 230.113 37.3617 221.483 54.1217C218.673 59.5817 215.483 65.0717 212.153 70.3917C205.854 76.6476 199.994 83.3301 194.613 90.3917C189.233 97.3917 184.523 104.102 180.613 110.182L175.913 117.862C175.33 117.487 174.722 117.153 174.093 116.862C173.673 116.642 173.263 116.412 172.813 116.192C178.813 102.642 188.813 76.7517 192.463 47.0417C192.663 45.5317 192.793 44.0417 192.933 42.6617C202.883 24.0417 214.423 10.0517 221.063 8.5517C222.813 8.1317 227.273 7.6317 230.123 11.3317C231.143 12.6417 232.483 15.3217 232.483 20.2217Z" fill="#FFC200"/>
<path d="M133.613 121.152C131.337 123.067 129.299 125.25 127.543 127.652C125.363 126.502 123.053 125.192 120.793 123.862L120.543 123.662C109.905 114.562 98.533 106.358 86.5431 99.1318C86.5205 99.1043 86.4883 99.0864 86.453 99.0817L86.3431 98.9917C62.5931 78.3717 47.573 55.7917 48.433 47.5117C48.803 43.6917 50.803 40.8818 53.933 39.7918C54.975 39.4491 56.0663 39.2802 57.1631 39.2918C62.7131 39.2918 73.4931 42.8317 91.8031 61.5917C113.073 83.3817 126.983 107.852 133.613 121.152Z" fill="#FFC200"/>
<path d="M144.573 131.022C146.037 131.022 147.223 129.835 147.223 128.372C147.223 126.908 146.037 125.722 144.573 125.722C143.11 125.722 141.923 126.908 141.923 128.372C141.923 129.835 143.11 131.022 144.573 131.022Z" fill="#FFC200"/>
<path d="M160.503 126.282C161.663 126.282 162.603 125.342 162.603 124.182C162.603 123.022 161.663 122.082 160.503 122.082C159.343 122.082 158.403 123.022 158.403 124.182C158.403 125.342 159.343 126.282 160.503 126.282Z" fill="#FFC200"/>
<path d="M169.863 137.592C171.868 137.592 173.493 135.967 173.493 133.962C173.493 131.957 171.868 130.332 169.863 130.332C167.858 130.332 166.233 131.957 166.233 133.962C166.233 135.967 167.858 137.592 169.863 137.592Z" fill="#FFC200"/>
<path d="M166.223 145.842C166.687 145.842 167.063 145.466 167.063 145.002C167.063 144.538 166.687 144.162 166.223 144.162C165.759 144.162 165.383 144.538 165.383 145.002C165.383 145.466 165.759 145.842 166.223 145.842Z" fill="#FFC200"/>
<path d="M177.963 145.002C180.432 145.002 182.433 143 182.433 140.532C182.433 138.063 180.432 136.062 177.963 136.062C175.494 136.062 173.493 138.063 173.493 140.532C173.493 143 175.494 145.002 177.963 145.002Z" fill="#FFC200"/>
<path d="M175.583 129.152C176.704 129.152 177.613 128.243 177.613 127.122C177.613 126.001 176.704 125.092 175.583 125.092C174.462 125.092 173.553 126.001 173.553 127.122C173.553 128.243 174.462 129.152 175.583 129.152Z" fill="#FFC200"/>
<path d="M184.253 153.392C185.104 153.392 185.793 152.702 185.793 151.852C185.793 151.001 185.104 150.312 184.253 150.312C183.403 150.312 182.713 151.001 182.713 151.852C182.713 152.702 183.403 153.392 184.253 153.392Z" fill="#FFC200"/>
<path d="M170.833 154.502C172.297 154.502 173.483 153.315 173.483 151.852C173.483 150.388 172.297 149.202 170.833 149.202C169.37 149.202 168.183 150.388 168.183 151.852C168.183 153.315 169.37 154.502 170.833 154.502Z" fill="#FFC200"/>
<path d="M177.963 167.772C180.432 167.772 182.433 165.77 182.433 163.302C182.433 160.833 180.432 158.832 177.963 158.832C175.494 158.832 173.493 160.833 173.493 163.302C173.493 165.77 175.494 167.772 177.963 167.772Z" fill="#FFC200"/>
<path d="M170.833 175.172C172.297 175.172 173.483 173.985 173.483 172.522C173.483 171.058 172.297 169.872 170.833 169.872C169.37 169.872 168.183 171.058 168.183 172.522C168.183 173.985 169.37 175.172 170.833 175.172Z" fill="#FFC200"/>
<path d="M162.593 176.232C163.173 176.232 163.643 175.762 163.643 175.182C163.643 174.602 163.173 174.132 162.593 174.132C162.013 174.132 161.543 174.602 161.543 175.182C161.543 175.762 162.013 176.232 162.593 176.232Z" fill="#FFC200"/>
<path d="M157.003 166.792C158.931 166.792 160.493 165.229 160.493 163.302C160.493 161.374 158.931 159.812 157.003 159.812C155.076 159.812 153.513 161.374 153.513 163.302C153.513 165.229 155.076 166.792 157.003 166.792Z" fill="#FFC200"/>
<path d="M143.873 172.522C145.337 172.522 146.523 171.335 146.523 169.872C146.523 168.408 145.337 167.222 143.873 167.222C142.41 167.222 141.223 168.408 141.223 169.872C141.223 171.335 142.41 172.522 143.873 172.522Z" fill="#FFC200"/>
<path d="M151.553 155.622C155.104 155.622 157.983 152.743 157.983 149.192C157.983 145.641 155.104 142.762 151.553 142.762C148.002 142.762 145.123 145.641 145.123 149.192C145.123 152.743 148.002 155.622 151.553 155.622Z" fill="#FFC200"/>
<path d="M148.903 137.952C149.947 137.952 150.793 137.106 150.793 136.062C150.793 135.018 149.947 134.172 148.903 134.172C147.859 134.172 147.013 135.018 147.013 136.062C147.013 137.106 147.859 137.952 148.903 137.952Z" fill="#FFC200"/>
<path d="M135.213 141.792C135.909 141.792 136.473 141.228 136.473 140.532C136.473 139.836 135.909 139.272 135.213 139.272C134.517 139.272 133.953 139.836 133.953 140.532C133.953 141.228 134.517 141.792 135.213 141.792Z" fill="#FFC200"/>
<path d="M131.573 150.732C132.424 150.732 133.113 150.042 133.113 149.192C133.113 148.341 132.424 147.652 131.573 147.652C130.723 147.652 130.033 148.341 130.033 149.192C130.033 150.042 130.723 150.732 131.573 150.732Z" fill="#FFC200"/>
<path d="M128.223 157.652C128.958 157.652 129.553 157.056 129.553 156.322C129.553 155.587 128.958 154.992 128.223 154.992C127.489 154.992 126.893 155.587 126.893 156.322C126.893 157.056 127.489 157.652 128.223 157.652Z" fill="#FFC200"/>
<path d="M137.023 163.302C138.951 163.302 140.513 161.739 140.513 159.812C140.513 157.884 138.951 156.322 137.023 156.322C135.096 156.322 133.533 157.884 133.533 159.812C133.533 161.739 135.096 163.302 137.023 163.302Z" fill="#FFC200"/>
</svg>
