<svg width="981" height="585" viewBox="0 0 981 585" fill="none" xmlns="http://www.w3.org/2000/svg">
<path d="M454.983 143.342C454.704 145.082 454.547 146.84 454.513 148.602C448.513 150.602 435.723 154.122 413.403 156.852C378.563 161.152 343.053 155.102 336.863 147.212C334.493 144.212 333.993 140.772 335.503 137.822C337.173 134.532 344.053 127.202 372.183 127.202C373.993 127.202 375.913 127.202 377.893 127.282C412.533 128.402 442.643 138.542 454.983 143.342Z" fill="#FFC200"/>
<path d="M466.083 175.842C465.213 177.622 464.083 179.772 462.763 182.252C457.413 191.762 451.475 200.93 444.983 209.702C438.034 219.198 430.246 228.05 421.713 236.152C419.713 238.042 417.713 239.862 415.713 241.582C415.633 241.642 415.573 241.722 415.493 241.782C402.893 252.732 391.273 259.482 385.663 259.002C381.843 258.672 379.003 256.722 377.893 253.622C376.523 249.922 375.893 238.772 399.073 215.412C422.763 191.642 449.993 176.642 461.643 170.842C462.854 172.468 464.192 173.996 465.643 175.412C465.833 175.612 465.973 175.722 466.083 175.842Z" fill="#FFC200"/>
<path d="M526.123 295.602C523.723 298.602 520.513 299.922 517.283 299.172C513.433 298.252 503.763 292.652 497.043 260.462C490.583 229.552 492.283 200.702 493.983 185.562C496.565 185.373 499.117 184.897 501.593 184.142C505.213 190.332 510.733 201.232 517.393 218.952C529.773 251.842 532.283 287.772 526.123 295.602Z" fill="#FFC200"/>
<path d="M619.853 230.582C616.563 232.782 605.853 236.042 577.743 218.982C573.393 216.362 569.213 213.602 565.283 210.792C560.637 205.755 555.734 200.962 550.593 196.432C542.593 189.432 535.063 183.332 528.353 178.482C528.353 178.482 528.353 178.482 528.293 178.482C525.563 175.482 522.993 172.682 520.933 170.232C522.405 168.148 523.649 165.911 524.643 163.562C531.803 165.182 543.703 168.612 561.293 175.832C593.763 189.182 621.753 211.832 623.293 221.762C623.843 225.532 622.613 228.772 619.853 230.582Z" fill="#FFC200"/>
<path d="M636.073 109.502C635.773 111.452 634.373 114.932 629.073 119.062C623.773 123.192 614.663 127.952 598.803 132.442C569.533 140.722 541.413 141.272 526.583 140.772C525.912 137.878 524.88 135.079 523.513 132.442C529.453 128.542 539.683 122.522 556.013 114.992C587.953 100.362 623.633 95.3717 631.883 100.992C635.103 103.152 636.603 106.272 636.073 109.502Z" fill="#FFC200"/>
<path d="M480.243 114.262C478.855 114.675 477.495 115.18 476.173 115.772C472.023 111.112 463.883 100.642 452.313 79.4817C435.473 48.6217 428.003 13.3917 433.053 4.78173C434.833 1.71173 437.543 0.0117091 440.523 0.0117091C440.763 -0.00390304 441.003 -0.00390304 441.243 0.0117091C445.243 0.381709 455.543 4.56172 466.693 35.5217C479.043 69.8417 480.213 103.282 480.243 114.262Z" fill="#FFC200"/>
<path d="M471.793 180.212C471.293 183.642 470.513 187.602 469.453 191.922C461.343 205.602 450.303 227.122 443.613 252.352C442.863 255.162 442.223 257.842 441.663 260.352C432.943 274.282 423.933 284.072 418.663 285.272C415.143 286.102 412.083 285.182 410.213 282.812C407.983 280.002 404.303 270.522 417.793 243.602C428.746 233.959 438.608 223.144 447.203 211.352C458.773 195.432 464.983 184.482 468.203 177.732C469.347 178.632 470.546 179.46 471.793 180.212Z" fill="#FFC200"/>
<path d="M484.863 195.852C484.794 205.643 484.199 215.424 483.083 225.152C479.403 260.052 465.523 293.302 456.463 297.572C453.063 299.132 449.663 298.902 447.153 296.902C443.813 294.222 439.013 286.082 444.343 261.302C444.329 261.239 444.329 261.174 444.343 261.112C444.893 258.572 445.513 255.902 446.263 253.112C446.345 252.753 446.449 252.399 446.573 252.052C451.334 234.863 458.044 218.276 466.573 202.612C468.433 199.152 470.243 195.972 471.923 193.162L472.063 192.932C473.923 189.762 475.903 186.612 478.063 183.372C480.129 184.159 482.266 184.748 484.443 185.132C484.713 187.882 484.863 191.442 484.863 195.852Z" fill="#FFC200"/>
<path d="M644.523 173.752C642.343 177.062 633.793 184.232 601.183 179.432C567.123 174.432 538.633 161.152 527.093 155.152C527.406 153.321 527.573 151.469 527.593 149.612C533.813 148.242 546.823 146.232 569.233 146.042C604.353 145.652 638.973 155.772 644.233 164.272C646.223 167.562 646.333 171.012 644.523 173.752Z" fill="#FFC200"/>
<path d="M524.813 29.5017C524.813 33.1017 524.606 37.2084 524.193 41.8217C524.193 41.9117 524.193 41.9917 524.193 42.0817C524.063 43.5517 523.893 45.0817 523.693 46.6717C523.553 47.7317 523.443 48.7917 523.273 49.8517C519.463 77.8517 510.013 102.172 504.273 115.072C503.993 114.962 503.713 114.852 503.433 114.772C503.153 114.692 502.713 114.522 502.343 114.382C501.793 114.212 501.263 114.042 500.703 113.902C498.549 113.323 496.346 112.941 494.123 112.762C492.422 101.733 491.42 90.6072 491.123 79.4517C489.893 44.3617 499.033 9.52172 507.403 4.06172C510.603 1.99172 514.003 1.77173 516.793 3.44173C520.013 5.42173 524.813 11.3917 524.813 29.5017Z" fill="#FFC200"/>
<path d="M459.113 131.352C458.366 132.716 457.699 134.121 457.113 135.562C450.873 135.392 437.693 134.142 414.863 128.312C380.863 119.562 349.973 101.002 347.103 91.4717C345.983 87.7917 346.773 84.4117 349.253 82.2117C350.673 80.9317 353.793 79.1517 360.093 79.1517C366.783 79.1517 377.013 81.1517 392.563 87.8117C401.577 91.7081 410.314 96.2153 418.713 101.302C418.755 101.309 418.794 101.33 418.823 101.362C430.799 108.597 442.169 116.791 452.823 125.862L453.073 126.062C455.773 128.312 457.713 130.152 459.113 131.352Z" fill="#FFC200"/>
<path d="M592.513 260.762C592.519 261.211 592.482 261.66 592.403 262.102C591.703 265.892 589.503 268.542 586.293 269.382C582.503 270.382 571.293 269.962 550.233 244.682C528.993 219.212 516.713 191.052 512.013 179.152C513.942 177.807 515.734 176.277 517.363 174.582C520.213 176.302 523.303 178.372 526.653 180.762C533.323 185.532 540.763 191.522 548.733 198.542C553.845 203.038 558.712 207.805 563.313 212.822L563.393 212.902C582.113 233.252 592.513 252.542 592.513 260.762Z" fill="#FFC200"/>
<path d="M599.393 52.8117C599.393 58.3017 595.853 69.0817 576.823 87.3417C557.053 106.342 535.293 119.342 520.153 127.062C517.924 124.116 515.256 121.53 512.243 119.392C513.413 117.392 514.723 115.182 516.143 112.962L516.783 111.962C520.713 105.862 525.453 99.1717 530.853 92.0617C536.193 85.0832 541.996 78.4716 548.223 72.2717C548.267 72.2226 548.314 72.1759 548.363 72.1317C567.563 52.9617 584.733 43.3417 591.253 44.1317C595.073 44.5517 597.863 46.5817 598.923 49.7117C599.244 50.7134 599.403 51.7599 599.393 52.8117Z" fill="#FFC200"/>
<path d="M566.483 20.2217C566.483 26.7717 564.113 37.3617 555.483 54.1217C552.673 59.5817 549.483 65.0717 546.153 70.3917C539.854 76.6476 533.994 83.3301 528.613 90.3917C523.233 97.3917 518.523 104.102 514.613 110.182L509.913 117.862C509.33 117.487 508.722 117.153 508.093 116.862C507.673 116.642 507.263 116.412 506.813 116.192C512.813 102.642 522.813 76.7517 526.463 47.0417C526.663 45.5317 526.793 44.0417 526.933 42.6617C536.883 24.0417 548.423 10.0517 555.063 8.5517C556.813 8.1317 561.273 7.6317 564.123 11.3317C565.143 12.6417 566.483 15.3217 566.483 20.2217Z" fill="#FFC200"/>
<path d="M467.613 121.152C465.337 123.067 463.299 125.25 461.543 127.652C459.363 126.502 457.053 125.192 454.793 123.862L454.543 123.662C443.905 114.562 432.533 106.358 420.543 99.1318C420.521 99.1043 420.488 99.0864 420.453 99.0817L420.343 98.9917C396.593 78.3717 381.573 55.7917 382.433 47.5117C382.803 43.6917 384.803 40.8818 387.933 39.7918C388.975 39.4491 390.066 39.2802 391.163 39.2918C396.713 39.2918 407.493 42.8317 425.803 61.5917C447.073 83.3817 460.983 107.852 467.613 121.152Z" fill="#FFC200"/>
<path d="M478.573 131.022C480.037 131.022 481.223 129.835 481.223 128.372C481.223 126.908 480.037 125.722 478.573 125.722C477.11 125.722 475.923 126.908 475.923 128.372C475.923 129.835 477.11 131.022 478.573 131.022Z" fill="#FFC200"/>
<path d="M494.503 126.282C495.663 126.282 496.603 125.342 496.603 124.182C496.603 123.022 495.663 122.082 494.503 122.082C493.343 122.082 492.403 123.022 492.403 124.182C492.403 125.342 493.343 126.282 494.503 126.282Z" fill="#FFC200"/>
<path d="M503.863 137.592C505.868 137.592 507.493 135.967 507.493 133.962C507.493 131.957 505.868 130.332 503.863 130.332C501.858 130.332 500.233 131.957 500.233 133.962C500.233 135.967 501.858 137.592 503.863 137.592Z" fill="#FFC200"/>
<path d="M500.223 145.842C500.687 145.842 501.063 145.466 501.063 145.002C501.063 144.538 500.687 144.162 500.223 144.162C499.759 144.162 499.383 144.538 499.383 145.002C499.383 145.466 499.759 145.842 500.223 145.842Z" fill="#FFC200"/>
<path d="M511.963 145.002C514.432 145.002 516.433 143 516.433 140.532C516.433 138.063 514.432 136.062 511.963 136.062C509.494 136.062 507.493 138.063 507.493 140.532C507.493 143 509.494 145.002 511.963 145.002Z" fill="#FFC200"/>
<path d="M509.583 129.152C510.704 129.152 511.613 128.243 511.613 127.122C511.613 126.001 510.704 125.092 509.583 125.092C508.462 125.092 507.553 126.001 507.553 127.122C507.553 128.243 508.462 129.152 509.583 129.152Z" fill="#FFC200"/>
<path d="M518.253 153.392C519.104 153.392 519.793 152.702 519.793 151.852C519.793 151.001 519.104 150.312 518.253 150.312C517.403 150.312 516.713 151.001 516.713 151.852C516.713 152.702 517.403 153.392 518.253 153.392Z" fill="#FFC200"/>
<path d="M504.833 154.502C506.297 154.502 507.483 153.315 507.483 151.852C507.483 150.388 506.297 149.202 504.833 149.202C503.37 149.202 502.183 150.388 502.183 151.852C502.183 153.315 503.37 154.502 504.833 154.502Z" fill="#FFC200"/>
<path d="M511.963 167.772C514.432 167.772 516.433 165.77 516.433 163.302C516.433 160.833 514.432 158.832 511.963 158.832C509.494 158.832 507.493 160.833 507.493 163.302C507.493 165.77 509.494 167.772 511.963 167.772Z" fill="#FFC200"/>
<path d="M504.833 175.172C506.297 175.172 507.483 173.985 507.483 172.522C507.483 171.058 506.297 169.872 504.833 169.872C503.37 169.872 502.183 171.058 502.183 172.522C502.183 173.985 503.37 175.172 504.833 175.172Z" fill="#FFC200"/>
<path d="M496.593 176.232C497.173 176.232 497.643 175.762 497.643 175.182C497.643 174.602 497.173 174.132 496.593 174.132C496.013 174.132 495.543 174.602 495.543 175.182C495.543 175.762 496.013 176.232 496.593 176.232Z" fill="#FFC200"/>
<path d="M491.003 166.792C492.931 166.792 494.493 165.229 494.493 163.302C494.493 161.374 492.931 159.812 491.003 159.812C489.076 159.812 487.513 161.374 487.513 163.302C487.513 165.229 489.076 166.792 491.003 166.792Z" fill="#FFC200"/>
<path d="M477.873 172.522C479.337 172.522 480.523 171.335 480.523 169.872C480.523 168.408 479.337 167.222 477.873 167.222C476.41 167.222 475.223 168.408 475.223 169.872C475.223 171.335 476.41 172.522 477.873 172.522Z" fill="#FFC200"/>
<path d="M485.553 155.622C489.104 155.622 491.983 152.743 491.983 149.192C491.983 145.641 489.104 142.762 485.553 142.762C482.002 142.762 479.123 145.641 479.123 149.192C479.123 152.743 482.002 155.622 485.553 155.622Z" fill="#FFC200"/>
<path d="M482.903 137.952C483.947 137.952 484.793 137.106 484.793 136.062C484.793 135.018 483.947 134.172 482.903 134.172C481.859 134.172 481.013 135.018 481.013 136.062C481.013 137.106 481.859 137.952 482.903 137.952Z" fill="#FFC200"/>
<path d="M469.213 141.792C469.909 141.792 470.473 141.228 470.473 140.532C470.473 139.836 469.909 139.272 469.213 139.272C468.517 139.272 467.953 139.836 467.953 140.532C467.953 141.228 468.517 141.792 469.213 141.792Z" fill="#FFC200"/>
<path d="M465.573 150.732C466.424 150.732 467.113 150.042 467.113 149.192C467.113 148.341 466.424 147.652 465.573 147.652C464.723 147.652 464.033 148.341 464.033 149.192C464.033 150.042 464.723 150.732 465.573 150.732Z" fill="#FFC200"/>
<path d="M462.223 157.652C462.958 157.652 463.553 157.056 463.553 156.322C463.553 155.587 462.958 154.992 462.223 154.992C461.489 154.992 460.893 155.587 460.893 156.322C460.893 157.056 461.489 157.652 462.223 157.652Z" fill="#FFC200"/>
<path d="M471.023 163.302C472.951 163.302 474.513 161.739 474.513 159.812C474.513 157.884 472.951 156.322 471.023 156.322C469.096 156.322 467.533 157.884 467.533 159.812C467.533 161.739 469.096 163.302 471.023 163.302Z" fill="#FFC200"/>
<path d="M141.873 377.412C112.213 394.082 88.1731 405.132 68.5231 410.922C57.1131 414.262 46.9331 415.842 37.9831 415.842C32.4888 415.887 27.0143 415.177 21.7132 413.732C17.8532 412.682 11.5431 408.992 11.5431 408.992C8.91314 406.892 -3.90685 395.992 1.18315 381.092C1.72674 379.506 2.8577 378.189 4.34316 377.412C5.68019 376.889 7.11927 376.681 8.54958 376.802C9.97988 376.924 11.3633 377.372 12.5932 378.112C12.5932 378.112 15.4031 379.342 13.8231 382.852C12.5931 385.482 9.82314 405.132 27.5131 408.992C30.9795 409.652 34.5054 409.946 38.0332 409.872C61.2032 409.872 93.3132 397.942 139.113 372.322C140.113 371.622 159.643 359.862 178.113 351.092C185.303 347.752 191.803 346.002 197.413 346.002C203.16 345.912 208.733 347.978 213.033 351.792C214.033 352.662 219.033 357.232 219.873 370.042C220.403 377.762 219.353 387.042 216.723 397.592C213.563 410.592 208.123 425.672 200.403 442.512C193.113 458.152 185.563 474.152 176.973 487.792C178.723 488.662 180.653 489.362 182.763 490.242C193.813 495.162 206.453 500.422 219.433 505.332C238.383 512.152 261.713 514.992 261.713 514.992C287.163 518.492 304.183 504.282 305.413 499.372C306.413 495.682 309.413 496.742 309.413 496.742C310.792 496.964 312.099 497.508 313.228 498.33C314.358 499.152 315.277 500.228 315.913 501.472C316.522 503.176 316.522 505.038 315.913 506.742C315.431 507.904 314.842 509.019 314.153 510.072C311.948 513.422 309.083 516.287 305.733 518.492C300.667 521.846 294.906 524.007 288.883 524.812C279.413 526.222 268.183 525.512 254.313 522.362C229.573 516.922 202.203 505.162 180.313 495.682C178.033 494.802 175.753 493.752 173.473 492.872C171.406 495.914 169.179 498.844 166.803 501.652C163.232 506.014 159.236 510.011 154.873 513.582C130.873 533.762 108.873 524.992 104.503 522.882C96.4332 519.552 92.0432 513.762 91.3432 506.392C90.8132 499.392 95.2032 491.652 103.103 485.862C109.943 480.772 118.723 477.612 128.373 476.562C138.645 475.709 148.982 477.024 158.713 480.422C173.973 458.832 187.843 431.282 196.793 406.542C214.513 358.282 203.103 352.842 200.303 352.312C195.033 351.442 188.363 352.842 180.643 356.532C171.163 360.912 161.643 366.352 154.323 370.392C152.223 371.442 141.873 377.412 141.873 377.412ZM119.583 517.092C130.813 513.582 143.273 501.652 155.213 485.502C146.77 482.831 137.892 481.812 129.063 482.502C122.923 483.202 114.143 484.962 106.603 490.572C100.463 495.142 96.9531 501.102 97.3031 506.022C97.6531 510.752 100.633 514.612 106.073 517.072C111.863 519.722 119.583 517.092 119.583 517.092Z" fill="#1E1D1B"/>
<path d="M266.293 439.702C259.973 450.232 237.163 486.912 223.123 484.982C223.123 484.982 207.853 484.632 217.503 458.302C223.643 441.462 234.883 425.672 239.613 419.352C240.283 418.495 241.134 417.799 242.106 417.313C243.078 416.827 244.147 416.563 245.233 416.542H250.323C250.847 416.559 251.357 416.714 251.802 416.99C252.248 417.266 252.613 417.654 252.862 418.116C253.111 418.577 253.234 419.095 253.221 419.619C253.207 420.143 253.056 420.654 252.783 421.102C243.653 435.102 217.333 476.382 224.003 480.242C224.003 480.242 235.583 481.992 262.083 438.302C262.328 437.817 262.705 437.412 263.17 437.132C263.636 436.853 264.17 436.71 264.713 436.722C265.058 436.725 265.396 436.822 265.691 437.002C265.986 437.181 266.227 437.437 266.389 437.742C266.55 438.047 266.627 438.39 266.61 438.735C266.593 439.08 266.484 439.414 266.293 439.702ZM245.413 409.702C245.413 407.772 248.213 406.192 251.413 406.192C254.753 406.192 257.413 407.772 257.413 409.702C257.413 411.632 254.783 413.212 251.413 413.212C248.213 413.212 245.413 411.632 245.413 409.702Z" fill="#1E1D1B"/>
<path d="M361.923 388.152C361.908 388.844 361.626 389.505 361.136 389.994C360.646 390.484 359.986 390.766 359.293 390.782H343.293C331.193 409.562 315.223 436.062 304.513 458.872C299.423 469.932 295.913 478.522 298.903 480.282C298.903 480.282 313.293 485.902 341.713 438.342C341.962 437.858 342.341 437.454 342.807 437.174C343.274 436.895 343.809 436.752 344.353 436.762C344.706 436.759 345.053 436.849 345.359 437.023C345.666 437.197 345.921 437.449 346.099 437.754C346.276 438.058 346.37 438.405 346.371 438.757C346.372 439.11 346.279 439.456 346.103 439.762C339.263 451.872 316.623 486.762 298.023 485.042C298.023 485.042 285.213 485.042 292.403 460.302C282.583 473.302 269.593 486.092 258.013 485.042C258.013 485.042 244.323 485.042 253.103 458.362C260.293 435.732 275.563 409.762 288.023 390.802H270.713C256.503 390.632 250.533 384.492 254.043 379.922C256.853 376.242 263.873 380.632 263.873 380.632C272.293 385.012 279.143 385.542 280.873 385.542H291.583C300.173 372.542 306.673 363.962 306.673 363.962C307.364 363.087 308.243 362.38 309.246 361.893C310.249 361.407 311.349 361.153 312.463 361.152H317.373C317.906 361.147 318.43 361.288 318.889 361.559C319.348 361.83 319.724 362.221 319.977 362.69C320.23 363.16 320.351 363.689 320.325 364.221C320.3 364.753 320.13 365.269 319.833 365.712C319.833 365.712 314.393 373.612 306.673 385.542H331.593C340.183 372.542 346.683 363.962 346.683 363.962C347.374 363.087 348.254 362.38 349.256 361.893C350.259 361.407 351.359 361.153 352.473 361.152H357.383C357.916 361.147 358.44 361.288 358.899 361.559C359.358 361.83 359.734 362.221 359.987 362.69C360.24 363.16 360.361 363.689 360.335 364.221C360.31 364.753 360.14 365.269 359.843 365.712C359.843 365.712 354.403 373.612 346.683 385.542H359.313C359.657 385.538 359.998 385.602 360.317 385.732C360.635 385.862 360.925 386.054 361.168 386.297C361.411 386.54 361.603 386.83 361.733 387.148C361.862 387.467 361.927 387.808 361.923 388.152ZM328.063 390.782H303.313C291.213 409.562 275.243 436.062 264.533 458.872C259.443 469.932 255.933 478.522 258.923 480.282C258.923 480.282 272.433 485.542 299.103 442.732C307.003 424.442 318.403 405.482 328.063 390.742V390.782Z" fill="#1E1D1B"/>
<path d="M339.463 480.242C339.463 480.242 353.853 485.862 382.283 438.302C382.547 437.833 382.928 437.441 383.389 437.164C383.85 436.887 384.375 436.734 384.913 436.722C385.267 436.717 385.615 436.806 385.923 436.979C386.231 437.153 386.487 437.405 386.666 437.71C386.845 438.014 386.94 438.361 386.941 438.715C386.942 439.068 386.85 439.416 386.673 439.722C379.823 451.832 357.363 486.722 338.583 485.002C338.583 485.002 325.073 485.002 333.673 458.322C346.833 417.092 387.193 363.922 387.193 363.922C387.898 363.062 388.78 362.366 389.78 361.881C390.779 361.396 391.872 361.133 392.983 361.112H398.073C398.594 361.132 399.099 361.292 399.536 361.575C399.974 361.857 400.328 362.252 400.561 362.718C400.793 363.184 400.897 363.704 400.861 364.223C400.824 364.743 400.649 365.243 400.353 365.672C400.353 365.672 364.033 418.152 345.083 458.832C339.993 469.892 336.483 478.482 339.463 480.242Z" fill="#1E1D1B"/>
<path d="M439.843 439.702C433.835 449.642 427.213 459.197 420.013 468.312C415.507 473.961 410.04 478.771 403.863 482.522C397.723 486.032 390.173 487.612 383.333 484.982C374.213 481.472 370.523 474.102 370.523 466.732C370.523 456.372 376.843 446.022 376.843 446.022C386.313 429.532 403.693 415.842 416.323 417.242C417.588 417.361 418.83 417.658 420.013 418.122C421.58 418.793 422.881 419.964 423.713 421.452C424.943 423.562 425.293 426.192 424.943 429.532C423.649 435.086 421.062 440.256 417.393 444.622C413.393 449.362 406.693 454.272 397.923 452.512C397.923 452.512 393.703 451.642 392.133 448.832C391.957 449.219 391.717 449.574 391.423 449.882C376.513 473.882 386.863 480.422 386.863 480.422C392.303 483.222 398.443 481.122 403.713 477.612C408.661 474.102 413.085 469.906 416.853 465.152C423.685 456.656 429.901 447.684 435.453 438.302C435.7 437.819 436.077 437.415 436.542 437.135C437.007 436.856 437.541 436.713 438.083 436.722C438.434 436.719 438.779 436.808 439.084 436.981C439.389 437.153 439.644 437.403 439.822 437.705C440 438.006 440.096 438.35 440.1 438.7C440.103 439.051 440.015 439.396 439.843 439.702ZM396.673 442.702C394.393 446.382 397.543 447.962 397.543 447.962C399.653 449.012 402.633 448.662 404.923 447.962C407.683 446.833 410.188 445.163 412.293 443.052C415.88 439.344 418.527 434.832 420.013 429.892C421.763 423.742 418.953 422.522 418.953 422.522C418.253 422.152 413.163 420.582 396.713 442.692L396.673 442.702Z" fill="#1E1D1B"/>
<path d="M755.043 439.702C748.723 450.232 725.913 486.912 711.693 484.982C711.693 484.982 700.463 484.632 703.623 467.612C702.923 468.482 702.043 469.362 701.343 470.242C694.503 478.132 688.343 482.702 683.093 484.102C681.819 484.331 680.528 484.448 679.233 484.452C679.233 484.452 666.073 485.332 670.983 461.452C675.373 439.342 699.983 415.452 716.263 417.232C717.525 417.352 718.763 417.648 719.943 418.112C721.514 418.842 722.85 419.995 723.803 421.442C724.153 422.322 724.503 423.202 724.853 424.252C725.934 422.553 727.106 420.914 728.363 419.342C729.02 418.472 729.869 417.766 730.844 417.278C731.819 416.791 732.893 416.535 733.983 416.532H739.073C739.596 416.551 740.105 416.707 740.549 416.984C740.993 417.261 741.357 417.649 741.605 418.11C741.852 418.571 741.975 419.089 741.961 419.612C741.946 420.135 741.796 420.645 741.523 421.092C732.223 435.092 705.903 476.372 712.523 480.232C712.523 480.232 724.103 481.982 750.603 438.292C750.887 437.801 751.298 437.396 751.792 437.118C752.286 436.84 752.846 436.7 753.413 436.712C753.754 436.73 754.085 436.835 754.373 437.017C754.662 437.199 754.9 437.452 755.063 437.752C755.226 438.051 755.31 438.388 755.307 438.729C755.303 439.071 755.213 439.405 755.043 439.702ZM707.713 454.442C711.173 446.604 715.221 439.039 719.823 431.812C720.343 430.402 721.393 426.192 719.993 423.732C719.81 423.222 719.457 422.792 718.993 422.512C718.293 422.162 712.323 420.402 691.613 449.882C691.613 449.882 674.423 475.152 681.433 479.192C682.045 479.438 682.717 479.498 683.363 479.362C687.583 477.782 692.673 473.752 698.113 467.432C701.589 463.313 704.796 458.974 707.713 454.442Z" fill="#1E1D1B"/>
<path d="M789.603 439.702C783.293 450.232 760.473 486.912 746.443 484.982C746.443 484.982 731.173 484.632 740.823 458.302C746.963 441.462 758.193 425.672 762.933 419.352C763.603 418.495 764.454 417.799 765.426 417.313C766.398 416.827 767.467 416.563 768.553 416.542H773.643C774.166 416.561 774.675 416.717 775.119 416.994C775.563 417.271 775.927 417.659 776.175 418.12C776.422 418.581 776.545 419.098 776.531 419.622C776.516 420.145 776.366 420.655 776.093 421.102C766.973 435.102 740.653 476.382 747.313 480.242C747.313 480.242 758.893 481.992 785.393 438.302C785.642 437.818 786.021 437.413 786.487 437.134C786.954 436.855 787.489 436.712 788.033 436.722C788.377 436.727 788.714 436.825 789.008 437.006C789.301 437.186 789.541 437.442 789.701 437.746C789.862 438.051 789.937 438.393 789.92 438.737C789.903 439.081 789.793 439.415 789.603 439.702ZM768.723 409.702C768.723 407.772 771.533 406.192 774.723 406.192C778.053 406.192 780.723 407.772 780.723 409.702C780.723 411.632 778.093 413.212 774.723 413.212C771.533 413.212 768.713 411.632 768.713 409.702H768.723Z" fill="#1E1D1B"/>
<path d="M839.443 439.702C838.213 441.632 836.283 444.792 834.003 448.482C834.003 448.482 828.003 458.832 816.803 460.942C815.996 465.293 814.388 469.457 812.063 473.222C805.923 483.402 792.063 489.012 781.713 484.102C781.713 484.102 770.303 479.362 774.343 467.432C774.343 467.432 778.903 451.642 803.823 455.672C804.241 455.645 804.66 455.707 805.053 455.852C804.173 447.602 796.973 436.852 794.173 432.852C790.483 438.992 788.023 442.682 785.923 445.852C785.742 446.142 785.487 446.378 785.184 446.535C784.881 446.693 784.541 446.766 784.2 446.748C783.859 446.729 783.529 446.62 783.245 446.431C782.96 446.241 782.732 445.979 782.583 445.672C782.309 445.211 782.179 444.679 782.211 444.144C782.243 443.609 782.436 443.096 782.763 442.672C785.573 438.282 788.373 433.892 791.183 428.802C780.483 413.542 788.183 405.642 794.873 404.412C802.243 403.182 803.113 409.152 803.113 409.152C804.173 413.892 800.483 421.782 798.733 425.152L803.993 430.412C809.783 436.412 817.153 444.632 817.333 455.682C822.313 454.56 826.658 451.539 829.443 447.262C831.373 444.452 833.123 441.472 835.233 438.262C835.462 437.764 835.835 437.348 836.304 437.066C836.773 436.784 837.317 436.65 837.863 436.682C838.204 436.705 838.533 436.816 838.82 437.003C839.106 437.19 839.339 437.447 839.498 437.75C839.656 438.053 839.734 438.391 839.725 438.733C839.715 439.075 839.618 439.408 839.443 439.702ZM804.523 461.152C793.993 460.452 783.643 460.102 780.653 468.152C778.903 472.892 783.463 475.152 783.463 475.152C798.033 480.942 804.523 461.152 804.523 461.152ZM795.523 420.972C796.127 419.599 796.654 418.193 797.103 416.762C798.853 410.962 795.523 411.492 795.523 411.492C793.813 411.802 791.713 414.612 795.573 420.932L795.523 420.972Z" fill="#1E1D1B"/>
<path d="M846.813 504.982C834.353 518.982 815.403 531.662 788.553 528.322C788.553 528.322 775.553 526.742 766.443 520.782C760.123 516.562 755.913 509.902 758.893 500.952C764.683 483.052 803.113 489.542 839.613 496.742C845.933 488.492 851.903 478.132 857.343 464.972C848.563 476.032 838.563 486.032 831.023 484.972C831.023 484.972 815.923 484.622 825.583 458.292C831.723 441.452 842.953 425.662 847.693 419.342C848.334 418.457 849.178 417.74 850.155 417.251C851.131 416.762 852.211 416.515 853.303 416.532H858.223C858.761 416.52 859.293 416.652 859.762 416.916C860.231 417.18 860.621 417.566 860.89 418.032C861.159 418.498 861.297 419.029 861.291 419.567C861.284 420.105 861.133 420.632 860.853 421.092C851.553 435.092 825.233 476.372 831.853 480.232C831.853 480.232 842.213 481.812 865.723 445.132C870.466 436.113 875.924 427.489 882.043 419.342C882.685 418.456 883.531 417.739 884.51 417.25C885.488 416.761 886.569 416.514 887.663 416.532H892.573C893.111 416.52 893.643 416.652 894.112 416.916C894.581 417.18 894.971 417.566 895.24 418.032C895.509 418.498 895.647 419.029 895.641 419.567C895.634 420.105 895.483 420.632 895.203 421.092C885.903 435.092 859.583 476.372 866.203 480.232C866.203 480.232 877.783 481.982 904.283 438.292C904.547 437.823 904.928 437.431 905.389 437.154C905.85 436.877 906.375 436.724 906.913 436.712C907.266 436.709 907.613 436.799 907.919 436.973C908.226 437.147 908.481 437.399 908.659 437.704C908.836 438.008 908.93 438.355 908.931 438.707C908.932 439.06 908.839 439.406 908.663 439.712C902.353 450.242 879.533 486.922 865.323 484.992C863.818 484.912 862.363 484.424 861.113 483.582C858.364 489.009 855.134 494.18 851.463 499.032M835.143 501.832C813.733 496.222 767.403 487.442 762.493 502.542C759.683 511.312 768.813 520.792 789.693 522.372C804.173 523.412 820.493 518.152 835.233 501.822L835.143 501.832Z" fill="#1E1D1B"/>
<path d="M591.713 374.982C592.286 375.334 592.737 375.854 593.003 376.471C593.27 377.089 593.34 377.773 593.203 378.432C593.103 378.902 592.993 379.352 592.873 379.802C592.583 380.982 592.253 382.142 591.873 383.272C591.163 385.552 590.333 387.742 589.433 389.892C587.648 394.16 585.591 398.308 583.273 402.312C578.783 410.312 574.373 418.442 570.123 426.582C568.013 430.662 565.893 434.742 563.963 438.902C562.033 443.062 560.163 447.242 558.593 451.522C556.973 455.744 555.787 460.12 555.053 464.582C554.683 466.761 554.586 468.978 554.763 471.182C554.881 473.334 555.516 475.426 556.613 477.282L556.453 477.122C557.138 477.746 557.95 478.213 558.833 478.492C559.293 478.628 559.775 478.679 560.253 478.642C560.781 478.595 561.297 478.463 561.783 478.252C561.444 478.729 560.995 479.117 560.473 479.382C559.916 479.656 559.304 479.803 558.683 479.812C558.062 479.811 557.444 479.714 556.853 479.522C556.25 479.318 555.678 479.032 555.153 478.672L555.033 478.532C553.408 476.56 552.286 474.223 551.763 471.722C551.21 469.301 550.932 466.825 550.933 464.342C550.925 459.473 551.404 454.615 552.363 449.842C553.243 445.092 554.363 440.422 555.713 435.842C557.063 431.262 558.563 426.702 560.253 422.242C563.635 413.34 567.566 404.657 572.023 396.242C574.174 392.012 576.718 387.994 579.623 384.242C581.081 382.331 582.654 380.511 584.333 378.792C585.557 377.538 586.852 376.356 588.213 375.252C588.704 374.855 589.307 374.623 589.937 374.589C590.568 374.555 591.192 374.72 591.723 375.062L591.713 374.982Z" fill="#1E1D1B"/>
<path d="M559.863 389.622C558.961 391.446 557.746 393.097 556.273 394.502C554.792 395.925 553.182 397.207 551.463 398.332C547.994 400.546 544.274 402.341 540.383 403.682C536.468 405.047 532.424 406.009 528.313 406.552C524.088 407.137 519.805 407.168 515.573 406.642C513.346 406.36 511.154 405.847 509.033 405.112C506.754 404.336 504.609 403.212 502.673 401.782C500.581 400.227 498.845 398.242 497.583 395.962C496.328 393.679 495.568 391.158 495.353 388.562C495.029 383.89 495.771 379.205 497.523 374.862C499.037 370.788 501.053 366.918 503.523 363.342C508.373 356.425 514.317 350.346 521.123 345.342C527.771 340.435 534.986 336.349 542.613 333.172C550.172 330.029 558.053 327.722 566.113 326.292C570.12 325.585 574.163 325.1 578.223 324.842C582.27 324.562 586.331 324.522 590.383 324.722C606.572 325.491 622.359 330.021 636.493 337.952C640.003 339.952 643.423 342.082 646.723 344.402C650.023 346.722 653.243 349.182 656.333 351.802C657.123 352.442 657.873 353.122 658.633 353.802C659.393 354.482 660.163 355.112 660.913 355.802C662.439 357.241 663.89 358.756 665.263 360.342C668.036 363.563 670.444 367.081 672.443 370.832C676.441 378.471 678.824 386.852 679.443 395.452C680.086 403.977 679.37 412.551 677.323 420.852C675.32 429.034 672.377 436.956 668.553 444.462C666.666 448.195 664.613 451.828 662.393 455.362C660.173 458.895 657.79 462.308 655.243 465.602C650.188 472.211 644.548 478.352 638.393 483.952C632.21 489.566 625.514 494.588 618.393 498.952C611.268 503.342 603.674 506.921 595.753 509.622C587.778 512.369 579.464 514.015 571.043 514.512C566.819 514.745 562.584 514.658 558.373 514.252C554.227 513.831 550.114 513.13 546.063 512.152C537.83 510.249 529.954 507.042 522.733 502.652C515.332 498.146 509.037 492.035 504.313 484.772C499.51 477.319 496.958 468.638 496.963 459.772C497.088 450.847 499.935 442.174 505.123 434.912C510.22 427.888 516.869 422.135 524.553 418.102C531.904 414.032 539.821 411.083 548.043 409.352C556.421 407.588 565.057 407.432 573.493 408.892C582.15 410.363 590.309 413.953 597.243 419.342C604.613 425.093 609.685 433.29 611.543 442.452C611.663 443.042 611.743 443.652 611.823 444.252L612.003 445.942C612.067 446.516 612.101 447.094 612.103 447.672C612.103 448.252 612.163 448.822 612.103 449.422C612.084 451.877 611.703 454.317 610.973 456.662C610.199 459.185 608.95 461.537 607.293 463.592C606.87 464.118 606.419 464.622 605.943 465.102C605.476 465.583 604.982 466.037 604.463 466.462C603.957 466.893 603.422 467.291 602.863 467.652C602.319 468.017 601.755 468.351 601.173 468.652C598.965 469.837 596.565 470.623 594.083 470.972C587.419 471.86 580.671 470.132 575.253 466.152L573.893 465.152C574.447 465.256 575.009 465.309 575.573 465.312C579.399 465.31 583.214 464.901 586.953 464.092C590.091 463.418 593.012 461.975 595.453 459.892C597.357 458.042 598.684 455.68 599.273 453.092C599.673 451.641 599.971 450.164 600.163 448.672C600.243 447.862 600.353 447.062 600.383 446.212L600.443 444.942C600.443 444.552 600.443 444.172 600.443 443.792C600.357 440.577 599.392 437.447 597.653 434.742C595.847 431.853 593.568 429.287 590.913 427.152C585.313 422.761 578.72 419.815 571.713 418.572C564.516 417.277 557.139 417.358 549.973 418.812C542.674 420.299 535.637 422.864 529.093 426.422C522.66 429.692 517.086 434.429 512.823 440.252C508.726 445.953 506.475 452.772 506.373 459.792C506.353 466.849 508.412 473.757 512.293 479.652C516.3 485.666 521.603 490.706 527.813 494.402C534.174 498.191 541.102 500.936 548.333 502.532C551.958 503.341 555.633 503.906 559.333 504.222C562.994 504.518 566.674 504.502 570.333 504.172C577.722 503.469 584.971 501.701 591.853 498.922C598.787 496.128 605.388 492.569 611.533 488.312C617.719 484.05 623.506 479.237 628.823 473.932C634.171 468.657 639.099 462.973 643.563 456.932C652.508 444.973 659.358 431.583 663.823 417.332C666.014 410.341 667.357 403.113 667.823 395.802C668.25 388.518 667.262 381.22 664.913 374.312C663.07 369.058 660.288 364.182 656.703 359.922C656.123 359.202 655.443 358.482 654.803 357.762C654.163 357.042 653.503 356.332 652.803 355.642C647.454 350.017 641.369 345.143 634.713 341.152C621.303 333.148 605.928 329.041 590.313 329.292C586.453 329.353 582.6 329.64 578.773 330.152C574.959 330.691 571.18 331.449 567.453 332.422C560.035 334.371 552.847 337.11 546.013 340.592C539.255 343.999 532.885 348.127 527.013 352.902C521.182 357.504 516.031 362.907 511.713 368.952C509.674 371.88 507.966 375.026 506.623 378.332C505.311 381.32 504.63 384.548 504.623 387.812C504.651 389.177 504.969 390.521 505.557 391.754C506.145 392.987 506.989 394.081 508.033 394.962C510.612 397.003 513.644 398.395 516.873 399.022C520.474 399.822 524.155 400.201 527.843 400.152C531.634 400.123 535.414 399.765 539.143 399.082C542.925 398.435 546.629 397.393 550.193 395.972C551.988 395.271 553.716 394.408 555.353 393.392C556.185 392.887 556.983 392.329 557.743 391.722C558.505 391.08 559.214 390.377 559.863 389.622Z" fill="#1E1D1B"/>
<path d="M846.553 498.462C858.353 501.132 871.773 503.832 885.473 506.122C905.393 509.122 928.833 507.352 928.833 507.352C954.473 505.842 968.393 488.582 968.643 483.522C968.963 479.702 972.093 480.152 972.093 480.152C973.489 480.104 974.877 480.385 976.144 480.974C977.41 481.564 978.52 482.443 979.383 483.542C980.306 485.093 980.659 486.918 980.383 488.702C980.135 489.936 979.774 491.144 979.303 492.312C977.793 496.028 975.541 499.397 972.683 502.212C968.368 506.487 963.141 509.728 957.393 511.692C948.393 514.912 937.223 516.412 923.003 516.022C897.673 515.502 868.533 509.302 845.173 504.282" fill="#1E1D1B"/>
<path d="M293.203 584.152H288.293L268.523 554.152V584.152H263.603V546.452H268.523L288.293 576.372V546.472H293.203V584.152Z" fill="#1E1D1B"/>
<path d="M329.233 575.802H312.813L309.813 584.172H304.633L318.243 546.742H323.913L337.443 584.152H332.253L329.233 575.802ZM327.823 571.802L321.023 552.802L314.213 571.802H327.823Z" fill="#1E1D1B"/>
<path d="M353.713 546.522V584.152H348.803V546.522H353.713Z" fill="#1E1D1B"/>
<path d="M372.383 580.152H385.563V584.152H367.473V546.522H372.383V580.152Z" fill="#1E1D1B"/>
<path d="M472.603 584.152L467.683 579.152C466.02 580.937 464.022 582.378 461.803 583.392C459.565 584.341 457.154 584.811 454.723 584.772C452.35 584.819 449.997 584.337 447.833 583.362C445.933 582.504 444.321 581.115 443.193 579.362C442.077 577.562 441.504 575.479 441.543 573.362C441.501 570.864 442.289 568.423 443.783 566.422C445.504 564.257 447.797 562.618 450.403 561.692C449.402 560.555 448.568 559.282 447.923 557.912C447.406 556.719 447.147 555.431 447.163 554.132C447.142 552.612 447.562 551.118 448.373 549.832C449.227 548.52 450.438 547.479 451.863 546.832C453.507 546.084 455.298 545.714 457.103 545.752C458.86 545.707 460.601 546.095 462.173 546.882C463.552 547.581 464.685 548.683 465.423 550.042C466.161 551.426 466.506 552.985 466.423 554.552H461.503C461.556 553.917 461.473 553.278 461.259 552.678C461.046 552.077 460.706 551.53 460.263 551.072C459.819 550.645 459.294 550.312 458.718 550.094C458.142 549.876 457.528 549.776 456.913 549.802C455.64 549.74 454.393 550.174 453.433 551.012C452.998 551.401 452.653 551.882 452.423 552.419C452.193 552.957 452.084 553.538 452.103 554.122C452.109 555.228 452.42 556.311 453.003 557.252C453.866 558.6 454.871 559.85 456.003 560.982L467.243 572.272L468.243 570.752L471.913 564.602H477.213L472.713 572.292C472.093 573.372 471.373 574.502 470.553 575.692L479.033 584.172L472.603 584.152ZM459.993 579.452C461.693 578.585 463.205 577.393 464.443 575.942L453.373 564.812C448.76 566.585 446.456 569.375 446.463 573.182C446.439 574.178 446.631 575.168 447.026 576.083C447.422 576.998 448.011 577.817 448.753 578.482C450.406 579.931 452.557 580.684 454.753 580.582C456.561 580.614 458.353 580.235 459.993 579.472V579.452Z" fill="#1E1D1B"/>
<path d="M513.763 580.152H526.933V584.152H508.843V546.522H513.763V580.152Z" fill="#1E1D1B"/>
<path d="M559.833 575.802H543.413L540.413 584.172H535.233L548.843 546.742H554.513L568.043 584.152H562.853L559.833 575.802ZM558.423 571.802L551.623 552.802L544.813 571.802H558.423Z" fill="#1E1D1B"/>
<path d="M584.653 583.222C582.808 582.442 581.21 581.173 580.033 579.552C578.906 577.966 578.301 576.067 578.303 574.122H583.543C583.694 575.829 584.475 577.419 585.733 578.582C587.292 579.885 589.296 580.534 591.323 580.392C593.32 580.502 595.288 579.876 596.853 578.632C597.503 578.078 598.02 577.385 598.366 576.604C598.713 575.824 598.879 574.975 598.853 574.122C598.908 572.844 598.483 571.593 597.663 570.612C596.844 569.695 595.815 568.992 594.663 568.562C593.089 567.971 591.483 567.467 589.853 567.052C587.808 566.55 585.802 565.899 583.853 565.102C582.334 564.434 581.014 563.383 580.023 562.052C578.89 560.415 578.33 558.45 578.433 556.462C578.398 554.53 578.942 552.632 579.993 551.012C581.08 549.391 582.606 548.115 584.393 547.332C586.445 546.439 588.666 545.999 590.903 546.042C594.009 545.909 597.068 546.841 599.573 548.682C600.663 549.517 601.565 550.572 602.221 551.777C602.877 552.983 603.273 554.313 603.383 555.682H597.983C597.756 554.166 596.94 552.801 595.713 551.882C594.203 550.719 592.327 550.134 590.423 550.232C588.622 550.159 586.852 550.722 585.423 551.822C584.777 552.365 584.266 553.05 583.929 553.824C583.593 554.598 583.44 555.439 583.483 556.282C583.448 557.521 583.888 558.726 584.713 559.652C585.497 560.533 586.476 561.218 587.573 561.652C588.713 562.098 590.307 562.612 592.353 563.192C594.398 563.717 596.403 564.385 598.353 565.192C599.885 565.88 601.222 566.938 602.243 568.272C603.4 569.921 603.971 571.91 603.863 573.922C603.863 575.75 603.357 577.542 602.403 579.102C601.36 580.793 599.863 582.158 598.083 583.042C595.992 584.096 593.674 584.618 591.333 584.562C589.036 584.6 586.758 584.143 584.653 583.222Z" fill="#1E1D1B"/>
<path d="M396.983 583.222C395.14 582.437 393.544 581.169 392.363 579.552C391.24 577.963 390.636 576.067 390.633 574.122H395.873C396.024 575.829 396.805 577.419 398.063 578.582C399.623 579.883 401.626 580.532 403.653 580.392C405.653 580.503 407.624 579.877 409.193 578.632C409.844 578.078 410.361 577.385 410.707 576.605C411.053 575.824 411.22 574.975 411.193 574.122C411.248 572.844 410.823 571.592 410.003 570.612C409.184 569.695 408.154 568.992 407.003 568.562C405.432 567.972 403.829 567.468 402.203 567.052C400.157 566.554 398.151 565.902 396.203 565.102C394.679 564.437 393.356 563.385 392.363 562.052C391.23 560.415 390.67 558.45 390.773 556.462C390.737 554.528 391.284 552.629 392.343 551.012C393.427 549.389 394.954 548.112 396.743 547.332C398.795 546.438 401.016 545.999 403.253 546.042C406.356 545.911 409.411 546.842 411.913 548.682C413.003 549.517 413.905 550.572 414.561 551.777C415.217 552.983 415.613 554.313 415.723 555.682H410.323C410.095 554.166 409.28 552.801 408.053 551.882C406.543 550.719 404.667 550.134 402.763 550.232C400.961 550.157 399.191 550.72 397.763 551.822C397.105 552.357 396.581 553.04 396.234 553.814C395.887 554.589 395.725 555.434 395.763 556.282C395.714 557.505 396.128 558.701 396.923 559.632C397.71 560.513 398.693 561.199 399.793 561.632C400.92 562.078 402.513 562.592 404.573 563.172C406.617 563.698 408.622 564.366 410.573 565.172C412.105 565.86 413.442 566.918 414.463 568.252C415.62 569.901 416.191 571.89 416.083 573.902C416.083 575.73 415.577 577.522 414.623 579.082C413.58 580.773 412.083 582.138 410.303 583.022C408.212 584.076 405.894 584.598 403.553 584.542C401.294 584.57 399.055 584.12 396.983 583.222Z" fill="#1E1D1B"/>
<path d="M645.493 546.522V584.152H640.573V567.152H621.403V584.152H616.493V546.522H621.403V563.052H640.573V546.522H645.493Z" fill="#1E1D1B"/>
<path d="M664.183 550.522V563.152H677.903V567.152H664.183V580.152H679.523V584.152H659.263V546.452H679.523V550.452L664.183 550.522Z" fill="#1E1D1B"/>
<path d="M697.643 583.222C695.798 582.442 694.2 581.173 693.023 579.552C691.9 577.963 691.296 576.067 691.293 574.122H696.533C696.684 575.829 697.465 577.419 698.723 578.582C700.282 579.885 702.286 580.534 704.313 580.392C706.31 580.502 708.278 579.876 709.843 578.632C710.493 578.078 711.01 577.385 711.356 576.604C711.702 575.824 711.869 574.975 711.843 574.122C711.898 572.844 711.473 571.593 710.653 570.612C709.834 569.695 708.804 568.992 707.653 568.562C706.079 567.971 704.473 567.467 702.843 567.052C700.798 566.55 698.792 565.899 696.843 565.102C695.324 564.434 694.004 563.383 693.013 562.052C691.88 560.415 691.32 558.45 691.423 556.462C691.388 554.53 691.932 552.632 692.983 551.012C694.07 549.391 695.596 548.115 697.383 547.332C699.435 546.439 701.656 545.999 703.893 546.042C706.999 545.909 710.058 546.841 712.563 548.682C713.653 549.517 714.555 550.572 715.211 551.777C715.867 552.983 716.263 554.313 716.373 555.682H710.973C710.745 554.166 709.93 552.801 708.703 551.882C707.193 550.719 705.317 550.134 703.413 550.232C701.612 550.159 699.842 550.722 698.413 551.822C697.767 552.365 697.256 553.05 696.919 553.824C696.582 554.598 696.43 555.439 696.473 556.282C696.424 557.505 696.838 558.701 697.633 559.632C698.416 560.513 699.396 561.198 700.493 561.632C701.633 562.078 703.227 562.592 705.273 563.172C707.318 563.697 709.323 564.365 711.273 565.172C712.805 565.86 714.142 566.918 715.163 568.252C716.32 569.901 716.891 571.89 716.783 573.902C716.783 575.73 716.277 577.522 715.323 579.082C714.28 580.773 712.783 582.138 711.003 583.022C708.912 584.076 706.594 584.598 704.253 584.542C701.981 584.576 699.728 584.126 697.643 583.222Z" fill="#1E1D1B"/>
</svg>
