<svg width="144" height="145" viewBox="0 0 144 145" fill="none" xmlns="http://www.w3.org/2000/svg">
<path d="M59.5942 144.007C59.4982 143.991 59.4035 143.968 59.3105 143.939C58.9998 143.845 56.2234 142.865 54.2914 138.697C51.0557 131.713 52.2649 120.783 55.3385 109.299C54.1091 111.19 52.8526 113.028 51.5691 114.777C43.2941 126.025 36.0323 130.929 29.365 129.781C28.0222 129.544 26.7336 129.066 25.5619 128.369C25.3777 128.257 25.2096 128.12 25.062 127.963C24.8391 127.72 22.9274 125.491 23.3395 120.911C24.015 113.251 30.5337 104.402 38.9235 95.9982C28.8516 101.119 19.0229 104.503 12.0044 103.294C10.2621 103.059 8.59808 102.424 7.14336 101.437C5.68864 100.449 4.48295 99.1382 3.62124 97.6059C3.51691 97.4149 3.43963 97.2103 3.39159 96.998C3.32404 96.6805 2.77688 93.7893 5.41813 90.0334C9.84949 83.7377 19.9214 79.3265 31.3983 76.2394C27.523 76.0591 23.6616 75.6531 19.8335 75.0235C6.60025 72.7403 -0.067043 67.6875 0.000508181 59.9934C0.000582404 59.7755 0.0347885 59.5589 0.101852 59.3516C0.419342 58.3451 3.83068 49.5837 25.7713 53.3666C28.5409 53.8169 31.5019 54.4767 34.6543 55.3459C24.8256 48.9352 16.7735 41.8356 14.6592 34.9049C14.1465 33.3746 13.9711 31.7516 14.1448 30.1472C14.3185 28.5427 14.8374 26.9949 15.6657 25.6098C15.772 25.4218 15.909 25.2528 16.071 25.11C16.3479 24.8465 18.9689 22.6173 24.4271 23.5562C31.7901 24.8262 40.126 31.0882 48.07 38.985C42.7402 28.4943 39.2883 18.2872 40.9365 11.2214C41.2505 9.6347 41.9055 8.13516 42.856 6.82652C43.8066 5.51787 45.0301 4.43137 46.442 3.64216C46.6298 3.53612 46.8325 3.45869 47.0432 3.41247C47.8263 3.26164 48.6311 3.26164 49.4142 3.41247C52.3325 3.91234 56.73 6.11454 61.1208 13.91C63.6608 18.4134 65.8877 24.2138 67.8017 31.3112C68.4299 19.5978 70.5578 9.07329 75.4958 3.78403C76.5658 2.57434 77.8846 1.61007 79.3617 0.957177C80.8389 0.304282 82.4397 -0.0218533 84.0545 0.00113617C84.2697 0.00735506 84.4831 0.0414305 84.6895 0.10248C85.0002 0.203806 87.7766 1.17655 89.7086 5.34446C92.9443 12.3293 91.7351 23.259 88.6615 34.7427C89.8909 32.8513 91.1474 31.0139 92.4309 29.2711C100.706 18.0171 107.968 13.1128 114.635 14.2612C115.978 14.4975 117.266 14.9759 118.438 15.673C118.621 15.7871 118.789 15.9232 118.938 16.0783C119.154 16.3215 121.073 18.5507 120.66 23.1307C119.985 30.791 113.466 39.6402 105.076 48.0436C115.148 42.9232 124.977 39.5389 131.996 40.7548C133.737 40.987 135.4 41.6212 136.854 42.6072C138.308 43.5932 139.512 44.904 140.372 46.4358C140.481 46.6253 140.561 46.8303 140.608 47.0438C140.676 47.3613 141.223 50.2525 138.582 54.0084C134.15 60.3041 124.079 64.7152 112.602 67.8023C116.477 67.9826 120.338 68.3887 124.166 69.0183C137.393 71.3015 144.067 76.3611 143.999 84.0484C144.003 84.2363 143.976 84.4234 143.918 84.6023C143.601 85.6156 140.196 94.2959 118.249 90.513C115.473 90.0334 112.494 89.4592 109.339 88.6148C119.174 95.0187 127.22 102.166 129.334 109.096C129.847 110.63 130.023 112.256 129.849 113.864C129.675 115.472 129.156 117.023 128.328 118.412C128.217 118.603 128.078 118.776 127.915 118.925C127.639 119.182 125.018 121.424 119.559 120.485C112.196 119.216 103.861 112.954 95.9165 105.057C101.246 115.541 104.698 125.748 103.05 132.82C102.731 134.403 102.072 135.898 101.119 137.202C100.167 138.506 98.9423 139.588 97.531 140.373C97.3431 140.479 97.1405 140.556 96.9297 140.602C96.1464 140.751 95.3421 140.751 94.5587 140.602C91.6405 140.096 87.2429 137.9 82.8521 130.098C80.3122 125.606 78.083 119.79 76.1713 112.697C75.5431 124.417 73.4152 134.935 68.4772 140.231C67.406 141.439 66.0869 142.401 64.6099 143.053C63.1329 143.704 61.5327 144.03 59.9185 144.007C59.8106 144.015 59.7021 144.015 59.5942 144.007ZM66.6601 82.6703C66.8409 82.7057 67.0176 82.76 67.187 82.8325C67.7102 83.0678 68.1204 83.4986 68.33 84.0326C68.5396 84.5667 68.5318 85.1615 68.3083 85.6899C54.6022 118.236 56.0207 131.449 58.0946 136.434C58.5326 137.719 59.3558 138.837 60.4521 139.636C61.3762 139.586 62.2808 139.35 63.1118 138.943C63.9427 138.536 64.6831 137.965 65.2888 137.265C71.132 131.01 73.3003 112.379 71.2603 86.1492C71.215 85.5774 71.3953 85.0105 71.7627 84.5698C72.1301 84.1292 72.6553 83.8499 73.2261 83.7917C73.7962 83.7344 74.3662 83.9022 74.8142 84.2594C75.2623 84.6166 75.553 85.1348 75.6242 85.7034C78.056 105.037 81.778 119.256 86.7025 127.97C90.5732 134.813 94.0251 136.076 95.3356 136.306C95.4869 136.336 95.6407 136.351 95.7949 136.353C96.5702 135.848 97.2358 135.191 97.7522 134.423C98.2686 133.654 98.6253 132.79 98.8009 131.881C100.726 123.546 93.2956 106.32 78.4073 84.6361C78.0836 84.1624 77.9575 83.5811 78.0559 83.0159C78.1543 82.4507 78.4694 81.9462 78.9341 81.6098C79.3992 81.2724 79.9781 81.1309 80.5464 81.2155C81.1148 81.3001 81.6272 81.6042 81.9739 82.0624C90.938 93.8906 107.839 114.055 120.309 116.21C122.842 116.642 124.234 116.122 124.761 115.845C125.184 115.015 125.434 114.109 125.497 113.18C125.559 112.251 125.433 111.319 125.126 110.441C122.626 102.253 107.562 91.0534 83.8451 79.7116C83.3277 79.4652 82.9272 79.0263 82.7291 78.4887C82.5309 77.951 82.5508 77.3571 82.7846 76.8339C83.0214 76.3118 83.4518 75.9023 83.985 75.6918C84.5182 75.4813 85.1124 75.4863 85.642 75.7058C98.7537 81.2315 109.96 84.8185 118.965 86.3721C134.9 89.1147 138.866 84.6766 139.588 83.562C139.311 78.6038 133.874 75.1721 123.417 73.3685C111.798 71.342 96.7136 71.9365 86.108 72.7606C85.5362 72.8059 84.9693 72.6256 84.5287 72.2582C84.0881 71.8908 83.8087 71.3655 83.7505 70.7948C83.6931 70.2239 83.8608 69.6532 84.2178 69.204C84.5749 68.7549 85.0931 68.4628 85.6623 68.39C120.701 63.9924 131.435 56.1497 134.711 51.867C136.062 50.0904 136.292 48.7799 136.312 48.226C135.743 47.3702 134.996 46.6476 134.121 46.1077C133.247 45.5679 132.266 45.2235 131.246 45.0983C122.599 43.6122 106.029 50.8942 84.5881 65.6069C84.115 65.9323 83.5333 66.0594 82.9676 65.9609C82.4018 65.8624 81.8972 65.5462 81.5619 65.08C81.2283 64.6148 81.089 64.0379 81.1735 63.4717C81.258 62.9056 81.5596 62.3945 82.0145 62.047C110.163 40.7143 115.54 28.5618 116.236 23.2117C116.526 20.9893 116.06 19.7464 115.797 19.26C115.2 18.9347 114.554 18.7067 113.885 18.5845C109.157 17.7671 102.962 22.3606 95.9706 31.8651C89.4519 40.7278 83.5208 52.1304 79.6974 60.1488C79.4485 60.6654 79.0079 61.0646 78.4692 61.2614C77.9305 61.4582 77.3364 61.4371 76.8131 61.2026C76.2899 60.9672 75.8796 60.5364 75.67 60.0024C75.4604 59.4684 75.4682 58.8735 75.6917 58.3451C89.3978 25.8057 87.9725 12.5859 85.9054 7.60065C85.4674 6.31636 84.6442 5.1983 83.5479 4.39873C82.6241 4.45039 81.7201 4.68685 80.8893 5.09411C80.0585 5.50138 79.3179 6.07118 78.7112 6.76978C72.868 13.025 70.6929 31.6556 72.7397 57.8858C72.785 58.4577 72.6047 59.0246 72.2373 59.4652C71.8699 59.9058 71.3447 60.1851 70.7739 60.2433C70.2038 60.3006 69.6338 60.1328 69.1858 59.7756C68.7377 59.4184 68.447 58.9002 68.3758 58.3316C65.944 38.9985 62.222 24.7789 57.2975 16.0648C53.4268 9.2219 49.9749 7.95867 48.6644 7.729C48.4821 7.729 48.3266 7.68846 48.2051 7.68171C47.4298 8.1875 46.7642 8.84407 46.2478 9.6123C45.7314 10.3805 45.3747 11.2447 45.1991 12.1536C43.2738 20.4894 50.7044 37.715 65.5927 59.4395C65.916 59.9121 66.042 60.4923 65.9435 61.0564C65.8451 61.6205 65.5302 62.1238 65.0659 62.459C64.6008 62.7964 64.0219 62.9379 63.4536 62.8533C62.8852 62.7687 62.3728 62.4647 62.0261 62.0064C53.062 50.1782 36.1607 30.0141 23.6908 27.866C21.1576 27.4269 19.766 27.9471 19.2391 28.2241C18.8171 29.0537 18.5673 29.9601 18.5046 30.8888C18.4419 31.8175 18.5677 32.7493 18.8744 33.6282C21.3738 41.8086 36.4377 53.0086 60.1549 64.3504C60.6723 64.5967 61.0725 65.036 61.2695 65.5741C61.4666 66.1121 61.4447 66.706 61.2087 67.2281C60.9759 67.752 60.547 68.1637 60.0139 68.3747C59.4808 68.5856 58.8863 68.579 58.358 68.3562C45.2463 62.8305 34.0396 59.2436 25.035 57.6967C9.0997 54.9473 5.13442 59.3854 4.41162 60.5C4.68858 65.465 10.1264 68.8899 20.5833 70.6935C32.2022 72.7201 47.2864 72.1323 57.892 71.3015C58.4635 71.2579 59.0294 71.4388 59.4696 71.8059C59.9098 72.173 60.1896 72.6972 60.2495 73.2672C60.3069 73.8381 60.1392 74.4089 59.7822 74.858C59.4251 75.3072 58.9069 75.5992 58.3377 75.672C23.2989 80.0696 12.565 87.9123 9.28204 92.1951C7.93102 93.9717 7.70811 95.2821 7.68784 95.8361C8.25587 96.6928 9.00297 97.4161 9.87765 97.9561C10.7523 98.496 11.7338 98.8398 12.7542 98.9637C21.4007 100.457 37.9711 93.1678 59.4119 78.4551C59.8855 78.1315 60.4668 78.0054 61.032 78.1038C61.5972 78.2022 62.1017 78.5173 62.4381 78.9821C62.7727 79.4475 62.9119 80.0253 62.826 80.5921C62.7402 81.1589 62.4361 81.6696 61.9788 82.0151C33.8369 103.348 28.4598 115.507 27.764 120.85C27.4736 123.073 27.9397 124.316 28.2031 124.809C28.8016 125.131 29.4466 125.359 30.1149 125.484C34.8435 126.302 41.0379 121.708 48.0294 112.204C54.5481 103.341 60.4792 91.9384 64.3026 83.9268C64.5037 83.4884 64.8435 83.1286 65.2697 82.9027C65.6958 82.6768 66.1844 82.5975 66.6601 82.6771V82.6703Z" fill="#FFECB1"/>
<path d="M69.5981 85.8846C65.9194 85.2426 62.6451 83.1687 60.4927 80.1173C58.3402 77.0658 57.4849 73.2855 58.1143 69.6047C58.7579 65.9255 60.8332 62.6512 63.8857 60.4989C66.9383 58.3465 70.7193 57.4915 74.4009 58.121C78.0818 58.7612 81.3584 60.8357 83.5114 63.8891C85.6644 66.9426 86.5179 70.7255 85.8846 74.4076C85.2429 78.0873 83.1677 81.3621 80.1144 83.5137C77.0612 85.6653 73.2792 86.5179 69.5981 85.8846ZM73.6511 62.4375C71.1166 62.0043 68.5136 62.5937 66.4129 64.0765C64.3121 65.5593 62.8851 67.8145 62.4444 70.3478C62.011 72.8813 62.5995 75.4834 64.0809 77.584C65.5623 79.6845 67.8158 81.1122 70.3479 81.5545C72.8835 81.9897 75.4882 81.4013 77.5904 79.9183C79.6927 78.4353 81.1207 76.1789 81.5614 73.6443C81.9943 71.1077 81.4031 68.503 79.9175 66.4019C78.4319 64.3008 76.1734 62.875 73.6376 62.4375H73.6511Z" fill="#FFC200"/>
</svg>

