<svg width="281" height="187" viewBox="0 0 281 187" fill="none" xmlns="http://www.w3.org/2000/svg">
<path d="M196.594 144.007C196.498 143.991 196.403 143.968 196.311 143.939C196 143.845 193.223 142.865 191.291 138.697C188.056 131.713 189.265 120.783 192.339 109.299C191.109 111.19 189.853 113.028 188.569 114.777C180.294 126.025 173.032 130.929 166.365 129.781C165.022 129.544 163.734 129.066 162.562 128.369C162.378 128.257 162.21 128.12 162.062 127.963C161.839 127.72 159.927 125.491 160.339 120.911C161.015 113.251 167.534 104.402 175.924 95.9982C165.852 101.119 156.023 104.503 149.004 103.294C147.262 103.059 145.598 102.424 144.143 101.437C142.689 100.449 141.483 99.1382 140.621 97.6059C140.517 97.4149 140.44 97.2103 140.392 96.998C140.324 96.6805 139.777 93.7893 142.418 90.0334C146.849 83.7377 156.921 79.3265 168.398 76.2394C164.523 76.0591 160.662 75.6531 156.834 75.0235C143.6 72.7403 136.933 67.6875 137.001 59.9934C137.001 59.7755 137.035 59.5589 137.102 59.3516C137.419 58.3451 140.831 49.5837 162.771 53.3666C165.541 53.8169 168.502 54.4767 171.654 55.3459C161.826 48.9352 153.774 41.8356 151.659 34.9049C151.147 33.3746 150.971 31.7516 151.145 30.1472C151.319 28.5427 151.837 26.9949 152.666 25.6098C152.772 25.4218 152.909 25.2528 153.071 25.11C153.348 24.8465 155.969 22.6173 161.427 23.5562C168.79 24.8262 177.126 31.0882 185.07 38.985C179.74 28.4943 176.288 18.2872 177.937 11.2214C178.251 9.6347 178.905 8.13516 179.856 6.82652C180.807 5.51787 182.03 4.43137 183.442 3.64216C183.63 3.53612 183.832 3.45869 184.043 3.41247C184.826 3.26164 185.631 3.26164 186.414 3.41247C189.332 3.91234 193.73 6.11454 198.121 13.91C200.661 18.4134 202.888 24.2138 204.802 31.3112C205.43 19.5978 207.558 9.07329 212.496 3.78403C213.566 2.57434 214.885 1.61007 216.362 0.957177C217.839 0.304282 219.44 -0.0218533 221.055 0.00113617C221.27 0.00735506 221.483 0.0414305 221.689 0.10248C222 0.203806 224.777 1.17655 226.709 5.34446C229.944 12.3293 228.735 23.259 225.661 34.7427C226.891 32.8513 228.147 31.0139 229.431 29.2711C237.706 18.0171 244.968 13.1128 251.635 14.2612C252.978 14.4975 254.266 14.9759 255.438 15.673C255.621 15.7871 255.789 15.9232 255.938 16.0783C256.154 16.3215 258.073 18.5507 257.66 23.1307C256.985 30.791 250.466 39.6402 242.076 48.0436C252.148 42.9232 261.977 39.5389 268.996 40.7548C270.737 40.987 272.4 41.6212 273.854 42.6072C275.308 43.5932 276.512 44.904 277.372 46.4358C277.481 46.6253 277.561 46.8303 277.608 47.0438C277.676 47.3613 278.223 50.2525 275.582 54.0084C271.15 60.3041 261.079 64.7152 249.602 67.8023C253.477 67.9826 257.338 68.3887 261.166 69.0183C274.393 71.3015 281.067 76.3611 280.999 84.0484C281.003 84.2363 280.976 84.4234 280.918 84.6023C280.601 85.6156 277.196 94.2959 255.249 90.513C252.473 90.0334 249.494 89.4592 246.339 88.6148C256.174 95.0187 264.22 102.166 266.334 109.096C266.847 110.63 267.023 112.256 266.849 113.864C266.675 115.472 266.156 117.023 265.328 118.412C265.217 118.603 265.078 118.776 264.915 118.925C264.639 119.182 262.018 121.424 256.559 120.485C249.196 119.216 240.861 112.954 232.916 105.057C238.246 115.541 241.698 125.748 240.05 132.82C239.731 134.403 239.072 135.898 238.119 137.202C237.167 138.506 235.942 139.588 234.531 140.373C234.343 140.479 234.14 140.556 233.93 140.602C233.146 140.751 232.342 140.751 231.559 140.602C228.64 140.096 224.243 137.9 219.852 130.098C217.312 125.606 215.083 119.79 213.171 112.697C212.543 124.417 210.415 134.935 205.477 140.231C204.406 141.439 203.087 142.401 201.61 143.053C200.133 143.704 198.533 144.03 196.918 144.007C196.811 144.015 196.702 144.015 196.594 144.007ZM203.66 82.6703C203.841 82.7057 204.018 82.76 204.187 82.8325C204.71 83.0678 205.12 83.4986 205.33 84.0326C205.54 84.5667 205.532 85.1615 205.308 85.6899C191.602 118.236 193.021 131.449 195.095 136.434C195.533 137.719 196.356 138.837 197.452 139.636C198.376 139.586 199.281 139.35 200.112 138.943C200.943 138.536 201.683 137.965 202.289 137.265C208.132 131.01 210.3 112.379 208.26 86.1492C208.215 85.5774 208.395 85.0105 208.763 84.5698C209.13 84.1292 209.655 83.8499 210.226 83.7917C210.796 83.7344 211.366 83.9022 211.814 84.2594C212.262 84.6166 212.553 85.1348 212.624 85.7034C215.056 105.037 218.778 119.256 223.702 127.97C227.573 134.813 231.025 136.076 232.336 136.306C232.487 136.336 232.641 136.351 232.795 136.353C233.57 135.848 234.236 135.191 234.752 134.423C235.269 133.654 235.625 132.79 235.801 131.881C237.726 123.546 230.296 106.32 215.407 84.6361C215.084 84.1624 214.957 83.5811 215.056 83.0159C215.154 82.4507 215.469 81.9462 215.934 81.6098C216.399 81.2724 216.978 81.1309 217.546 81.2155C218.115 81.3001 218.627 81.6042 218.974 82.0624C227.938 93.8906 244.839 114.055 257.309 116.21C259.842 116.642 261.234 116.122 261.761 115.845C262.184 115.015 262.434 114.109 262.497 113.18C262.559 112.251 262.433 111.319 262.126 110.441C259.626 102.253 244.562 91.0534 220.845 79.7116C220.328 79.4652 219.927 79.0263 219.729 78.4887C219.531 77.951 219.551 77.3571 219.785 76.8339C220.021 76.3118 220.452 75.9023 220.985 75.6918C221.518 75.4813 222.112 75.4863 222.642 75.7058C235.754 81.2315 246.96 84.8185 255.965 86.3721C271.9 89.1147 275.866 84.6766 276.588 83.562C276.311 78.6038 270.874 75.1721 260.417 73.3685C248.798 71.342 233.714 71.9365 223.108 72.7606C222.536 72.8059 221.969 72.6256 221.529 72.2582C221.088 71.8908 220.809 71.3655 220.751 70.7948C220.693 70.2239 220.861 69.6532 221.218 69.204C221.575 68.7549 222.093 68.4628 222.662 68.39C257.701 63.9924 268.435 56.1497 271.711 51.867C273.062 50.0904 273.292 48.7799 273.312 48.226C272.743 47.3702 271.996 46.6476 271.121 46.1077C270.247 45.5679 269.266 45.2235 268.246 45.0983C259.599 43.6122 243.029 50.8942 221.588 65.6069C221.115 65.9323 220.533 66.0594 219.968 65.9609C219.402 65.8624 218.897 65.5462 218.562 65.08C218.228 64.6148 218.089 64.0379 218.173 63.4717C218.258 62.9056 218.56 62.3945 219.014 62.047C247.163 40.7143 252.54 28.5618 253.236 23.2117C253.526 20.9893 253.06 19.7464 252.797 19.26C252.2 18.9347 251.554 18.7067 250.885 18.5845C246.157 17.7671 239.962 22.3606 232.971 31.8651C226.452 40.7278 220.521 52.1304 216.697 60.1488C216.449 60.6654 216.008 61.0646 215.469 61.2614C214.931 61.4582 214.336 61.4371 213.813 61.2026C213.29 60.9672 212.88 60.5364 212.67 60.0024C212.46 59.4684 212.468 58.8735 212.692 58.3451C226.398 25.8057 224.973 12.5859 222.905 7.60065C222.467 6.31636 221.644 5.1983 220.548 4.39873C219.624 4.45039 218.72 4.68685 217.889 5.09411C217.059 5.50138 216.318 6.07118 215.711 6.76978C209.868 13.025 207.693 31.6556 209.74 57.8858C209.785 58.4577 209.605 59.0246 209.237 59.4652C208.87 59.9058 208.345 60.1851 207.774 60.2433C207.204 60.3006 206.634 60.1328 206.186 59.7756C205.738 59.4184 205.447 58.9002 205.376 58.3316C202.944 38.9985 199.222 24.7789 194.298 16.0648C190.427 9.2219 186.975 7.95867 185.664 7.729C185.482 7.729 185.327 7.68846 185.205 7.68171C184.43 8.1875 183.764 8.84407 183.248 9.6123C182.731 10.3805 182.375 11.2447 182.199 12.1536C180.274 20.4894 187.704 37.715 202.593 59.4395C202.916 59.9121 203.042 60.4923 202.944 61.0564C202.845 61.6205 202.53 62.1238 202.066 62.459C201.601 62.7964 201.022 62.9379 200.454 62.8533C199.885 62.7687 199.373 62.4647 199.026 62.0064C190.062 50.1782 173.161 30.0141 160.691 27.866C158.158 27.4269 156.766 27.9471 156.239 28.2241C155.817 29.0537 155.567 29.9601 155.505 30.8888C155.442 31.8175 155.568 32.7493 155.874 33.6282C158.374 41.8086 173.438 53.0086 197.155 64.3504C197.672 64.5967 198.072 65.036 198.27 65.5741C198.467 66.1121 198.445 66.706 198.209 67.2281C197.976 67.752 197.547 68.1637 197.014 68.3747C196.481 68.5856 195.886 68.579 195.358 68.3562C182.246 62.8305 171.04 59.2436 162.035 57.6967C146.1 54.9473 142.134 59.3854 141.412 60.5C141.689 65.465 147.126 68.8899 157.583 70.6935C169.202 72.7201 184.286 72.1323 194.892 71.3015C195.463 71.2579 196.029 71.4388 196.47 71.8059C196.91 72.173 197.19 72.6972 197.249 73.2672C197.307 73.8381 197.139 74.4089 196.782 74.858C196.425 75.3072 195.907 75.5992 195.338 75.672C160.299 80.0696 149.565 87.9123 146.282 92.1951C144.931 93.9717 144.708 95.2821 144.688 95.8361C145.256 96.6928 146.003 97.4161 146.878 97.9561C147.752 98.496 148.734 98.8398 149.754 98.9637C158.401 100.457 174.971 93.1678 196.412 78.4551C196.886 78.1315 197.467 78.0054 198.032 78.1038C198.597 78.2022 199.102 78.5173 199.438 78.9821C199.773 79.4475 199.912 80.0253 199.826 80.5921C199.74 81.1589 199.436 81.6696 198.979 82.0151C170.837 103.348 165.46 115.507 164.764 120.85C164.474 123.073 164.94 124.316 165.203 124.809C165.802 125.131 166.447 125.359 167.115 125.484C171.843 126.302 178.038 121.708 185.029 112.204C191.548 103.341 197.479 91.9384 201.303 83.9268C201.504 83.4884 201.844 83.1286 202.27 82.9027C202.696 82.6768 203.184 82.5975 203.66 82.6771V82.6703Z" fill="#FFECB1"/>
<path d="M206.598 85.8846C202.919 85.2426 199.645 83.1687 197.493 80.1173C195.34 77.0658 194.485 73.2855 195.114 69.6047C195.758 65.9255 197.833 62.6512 200.886 60.4989C203.938 58.3465 207.719 57.4915 211.401 58.121C215.082 58.7612 218.358 60.8357 220.511 63.8891C222.664 66.9426 223.518 70.7255 222.885 74.4076C222.243 78.0873 220.168 81.3621 217.114 83.5137C214.061 85.6653 210.279 86.5179 206.598 85.8846ZM210.651 62.4375C208.117 62.0043 205.514 62.5937 203.413 64.0765C201.312 65.5593 199.885 67.8145 199.444 70.3478C199.011 72.8813 199.6 75.4834 201.081 77.584C202.562 79.6845 204.816 81.1122 207.348 81.5545C209.883 81.9897 212.488 81.4013 214.59 79.9183C216.693 78.4353 218.121 76.1789 218.561 73.6443C218.994 71.1077 218.403 68.503 216.918 66.4019C215.432 64.3008 213.173 62.875 210.638 62.4375H210.651Z" fill="#FFC200"/>
<path d="M19.4509 144.011C19.4195 144.006 19.3886 143.999 19.3583 143.989C19.2569 143.958 18.3507 143.639 17.7201 142.278C16.664 139.998 17.0587 136.431 18.0619 132.683C17.6606 133.3 17.2505 133.9 16.8316 134.471C14.1307 138.142 11.7605 139.743 9.58441 139.368C9.14615 139.291 8.72555 139.135 8.34311 138.907C8.28301 138.871 8.22813 138.826 8.17996 138.775C8.1072 138.695 7.48326 137.968 7.61775 136.473C7.83823 133.973 9.96585 131.084 12.7042 128.342C9.41685 130.013 6.20888 131.118 3.91809 130.723C3.34944 130.646 2.80632 130.439 2.33151 130.117C1.85671 129.795 1.46318 129.367 1.18193 128.866C1.14788 128.804 1.12266 128.737 1.10698 128.668C1.08493 128.564 0.906342 127.621 1.76842 126.395C3.21476 124.34 6.50211 122.9 10.2481 121.893C8.98321 121.834 7.72287 121.701 6.47345 121.496C2.15425 120.751 -0.0218821 119.101 0.000165865 116.59C0.00019009 116.519 0.0113546 116.448 0.0332432 116.381C0.136869 116.052 1.25029 113.192 8.41147 114.427C9.31544 114.574 10.2819 114.789 11.3108 115.073C8.10281 112.981 5.47469 110.664 4.78459 108.401C4.61727 107.902 4.56 107.372 4.6167 106.849C4.67341 106.325 4.84275 105.82 5.1131 105.368C5.1478 105.306 5.19251 105.251 5.24539 105.205C5.33578 105.119 6.19124 104.391 7.97272 104.697C10.3759 105.112 13.0967 107.156 15.6895 109.733C13.9499 106.309 12.8233 102.978 13.3612 100.671C13.4637 100.154 13.6775 99.6641 13.9877 99.237C14.298 98.8099 14.6973 98.4553 15.1581 98.1977C15.2195 98.1631 15.2856 98.1378 15.3544 98.1227C15.61 98.0735 15.8726 98.0735 16.1283 98.1227C17.0807 98.2859 18.516 99.0046 19.9492 101.549C20.7782 103.019 21.505 104.912 22.1297 107.229C22.3348 103.405 23.0293 99.9703 24.641 98.244C24.9902 97.8491 25.4207 97.5344 25.9028 97.3213C26.3849 97.1082 26.9074 97.0018 27.4345 97.0093C27.5047 97.0113 27.5743 97.0224 27.6417 97.0424C27.7431 97.0754 28.6493 97.3929 29.2799 98.7533C30.336 101.033 29.9413 104.6 28.9381 108.349C29.3394 107.731 29.7495 107.132 30.1684 106.563C32.8693 102.889 35.2395 101.289 37.4156 101.664C37.8538 101.741 38.2744 101.897 38.6569 102.124C38.7165 102.162 38.7713 102.206 38.82 102.257C38.8906 102.336 39.5167 103.064 39.3822 104.559C39.1618 107.059 37.0341 109.947 34.2958 112.69C37.5831 111.019 40.7911 109.914 43.0819 110.311C43.6502 110.387 44.1931 110.594 44.6676 110.915C45.1421 111.237 45.5352 111.665 45.8159 112.165C45.8515 112.227 45.8775 112.294 45.893 112.363C45.9151 112.467 46.0937 113.411 45.2316 114.637C43.7852 116.692 40.4979 118.131 36.7519 119.139C38.0168 119.198 39.2771 119.33 40.5266 119.536C44.8435 120.281 47.0219 121.932 46.9998 124.441C47.0011 124.503 46.9921 124.564 46.9734 124.622C46.8698 124.953 45.7585 127.786 38.5951 126.551C37.689 126.395 36.7166 126.207 35.687 125.932C38.8972 128.022 41.5231 130.355 42.2132 132.617C42.3807 133.117 42.438 133.648 42.3813 134.173C42.3246 134.698 42.1552 135.204 41.8847 135.657C41.8487 135.72 41.8033 135.776 41.7502 135.825C41.6598 135.909 40.8043 136.641 39.0229 136.334C36.6196 135.92 33.8989 133.876 31.3061 131.298C33.0457 134.72 34.1723 138.052 33.6344 140.36C33.5302 140.877 33.3152 141.365 33.0042 141.79C32.6933 142.216 32.2937 142.569 31.833 142.825C31.7717 142.86 31.7056 142.885 31.6368 142.9C31.3811 142.948 31.1186 142.948 30.8629 142.9C29.9104 142.735 28.4751 142.018 27.042 139.471C26.213 138.005 25.4854 136.107 24.8615 133.792C24.6564 137.617 23.9619 141.05 22.3502 142.779C22.0006 143.173 21.57 143.487 21.088 143.7C20.6059 143.912 20.0836 144.019 19.5567 144.011C19.5215 144.014 19.4861 144.014 19.4509 144.011ZM21.7571 123.992C21.8161 124.003 21.8738 124.021 21.9291 124.045C22.0999 124.121 22.2337 124.262 22.3022 124.436C22.3706 124.611 22.368 124.805 22.2951 124.977C17.8215 135.6 18.2845 139.912 18.9614 141.54C19.1044 141.959 19.3731 142.324 19.7309 142.585C20.0325 142.568 20.3278 142.491 20.599 142.358C20.8702 142.225 21.1119 142.039 21.3095 141.811C23.2167 139.769 23.9244 133.688 23.2586 125.127C23.2438 124.94 23.3026 124.755 23.4226 124.612C23.5425 124.468 23.7139 124.377 23.9002 124.358C24.0863 124.339 24.2723 124.394 24.4185 124.51C24.5648 124.627 24.6597 124.796 24.6829 124.982C25.4766 131.292 26.6914 135.933 28.2987 138.777C29.5621 141.01 30.6887 141.423 31.1165 141.498C31.1659 141.507 31.2161 141.512 31.2664 141.513C31.5194 141.348 31.7367 141.134 31.9052 140.883C32.0738 140.632 32.1902 140.35 32.2475 140.054C32.8759 137.333 30.4506 131.711 25.5913 124.633C25.4856 124.479 25.4445 124.289 25.4766 124.104C25.5087 123.92 25.6115 123.755 25.7632 123.645C25.915 123.535 26.104 123.489 26.2895 123.517C26.475 123.544 26.6422 123.644 26.7554 123.793C29.6811 127.654 35.1975 134.235 39.2676 134.938C40.0944 135.08 40.5486 134.91 40.7206 134.819C40.8585 134.549 40.9402 134.253 40.9607 133.95C40.9811 133.646 40.94 133.342 40.8396 133.056C40.0238 130.383 35.1071 126.728 27.3661 123.026C27.1972 122.945 27.0665 122.802 27.0019 122.627C26.9372 122.451 26.9437 122.257 27.02 122.087C27.0973 121.916 27.2377 121.783 27.4118 121.714C27.5858 121.645 27.7797 121.647 27.9526 121.718C32.2321 123.522 35.8898 124.693 38.8288 125.2C44.03 126.095 45.3242 124.646 45.5601 124.283C45.4697 122.664 43.6948 121.544 40.2818 120.956C36.4896 120.294 31.5662 120.488 28.1047 120.757C27.9181 120.772 27.733 120.713 27.5892 120.593C27.4454 120.473 27.3542 120.302 27.3352 120.116C27.3165 119.929 27.3712 119.743 27.4878 119.596C27.6043 119.45 27.7734 119.354 27.9592 119.331C39.3955 117.895 42.8989 115.336 43.9682 113.938C44.4092 113.358 44.4842 112.93 44.4908 112.749C44.305 112.47 44.0611 112.234 43.7757 112.058C43.4903 111.882 43.1701 111.769 42.8372 111.729C40.015 111.243 34.6067 113.62 27.6086 118.422C27.4542 118.528 27.2643 118.57 27.0797 118.538C26.895 118.506 26.7303 118.402 26.6209 118.25C26.512 118.098 26.4665 117.91 26.4941 117.725C26.5217 117.541 26.6202 117.374 26.7686 117.26C35.956 110.298 37.711 106.331 37.9381 104.585C38.0329 103.86 37.8808 103.454 37.7948 103.295C37.5998 103.189 37.3892 103.115 37.1708 103.075C35.6275 102.808 33.6057 104.307 31.3237 107.409C29.1961 110.302 27.2603 114.024 26.0124 116.641C25.9311 116.809 25.7873 116.94 25.6115 117.004C25.4357 117.068 25.2417 117.061 25.0709 116.985C24.9002 116.908 24.7663 116.767 24.6978 116.593C24.6294 116.419 24.632 116.225 24.7049 116.052C29.1785 105.432 28.7132 101.117 28.0386 99.4897C27.8956 99.0705 27.6269 98.7056 27.2691 98.4446C26.9676 98.4615 26.6725 98.5386 26.4014 98.6716C26.1302 98.8045 25.8885 98.9905 25.6905 99.2185C23.7833 101.26 23.0734 107.341 23.7414 115.902C23.7562 116.089 23.6974 116.274 23.5774 116.418C23.4575 116.561 23.2861 116.653 23.0998 116.672C22.9137 116.69 22.7277 116.636 22.5815 116.519C22.4352 116.402 22.3403 116.233 22.3171 116.048C21.5234 109.738 20.3086 105.096 18.7013 102.252C17.4379 100.019 16.3113 99.6065 15.8835 99.5316C15.824 99.5316 15.7733 99.5183 15.7336 99.5161C15.4806 99.6812 15.2633 99.8955 15.0948 100.146C14.9262 100.397 14.8098 100.679 14.7525 100.976C14.1241 103.696 16.5494 109.319 21.4087 116.409C21.5143 116.564 21.5554 116.753 21.5232 116.937C21.4911 117.121 21.3883 117.285 21.2368 117.395C21.085 117.505 20.896 117.551 20.7105 117.524C20.525 117.496 20.3578 117.397 20.2446 117.247C17.3189 113.387 11.8025 106.805 7.7324 106.104C6.9056 105.961 6.4514 106.131 6.27942 106.221C6.1417 106.492 6.06016 106.788 6.0397 107.091C6.01924 107.394 6.0603 107.698 6.16038 107.985C6.97616 110.655 11.8929 114.31 19.6339 118.012C19.8028 118.093 19.9334 118.236 19.9977 118.412C20.062 118.587 20.0549 118.781 19.9778 118.951C19.9019 119.122 19.7619 119.257 19.5879 119.326C19.4139 119.394 19.2198 119.392 19.0474 119.32C14.7679 117.516 11.1102 116.345 8.17116 115.84C2.97004 114.943 1.67582 116.392 1.4399 116.755C1.5303 118.376 3.30515 119.494 6.71818 120.082C10.5104 120.744 15.4338 120.552 18.8953 120.281C19.0818 120.267 19.2665 120.326 19.4102 120.446C19.5539 120.565 19.6452 120.736 19.6648 120.923C19.6835 121.109 19.6288 121.295 19.5122 121.442C19.3957 121.588 19.2266 121.684 19.0408 121.707C7.60451 123.143 4.10109 125.703 3.02955 127.1C2.5886 127.68 2.51584 128.108 2.50923 128.289C2.69462 128.568 2.93847 128.804 3.22395 128.981C3.50944 129.157 3.82977 129.269 4.16282 129.31C6.98496 129.797 12.3933 127.418 19.3914 122.616C19.546 122.51 19.7357 122.469 19.9202 122.501C20.1047 122.533 20.2693 122.636 20.3791 122.788C20.4883 122.94 20.5337 123.128 20.5057 123.313C20.4777 123.498 20.3785 123.665 20.2292 123.778C11.044 130.74 9.28897 134.709 9.06188 136.453C8.96707 137.178 9.11921 137.584 9.20519 137.745C9.40054 137.85 9.61104 137.925 9.82917 137.966C11.3725 138.232 13.3943 136.733 15.6763 133.631C17.8039 130.738 19.7397 127.017 20.9876 124.402C21.0533 124.259 21.1642 124.141 21.3033 124.067C21.4424 123.994 21.6019 123.968 21.7571 123.994V123.992Z" fill="#FFECB1"/>
<path d="M22.716 125.041C21.5154 124.831 20.4467 124.154 19.7441 123.158C19.0416 122.162 18.7624 120.928 18.9679 119.727C19.1779 118.526 19.8553 117.458 20.8516 116.755C21.8479 116.053 23.082 115.773 24.2836 115.979C25.485 116.188 26.5545 116.865 27.2572 117.862C27.9599 118.858 28.2385 120.093 28.0318 121.295C27.8223 122.496 27.145 123.565 26.1485 124.267C25.1519 124.969 23.9175 125.247 22.716 125.041ZM24.0389 117.388C23.2117 117.246 22.3621 117.439 21.6764 117.923C20.9908 118.407 20.525 119.143 20.3812 119.97C20.2397 120.797 20.4318 121.646 20.9153 122.331C21.3988 123.017 22.1343 123.483 22.9608 123.627C23.7884 123.769 24.6385 123.577 25.3246 123.093C26.0108 122.609 26.4769 121.873 26.6207 121.046C26.762 120.218 26.5691 119.367 26.0842 118.682C25.5993 117.996 24.8621 117.531 24.0345 117.388H24.0389Z" fill="#FFC200"/>
<path d="M95.9685 186.001C95.9219 185.993 95.8758 185.982 95.8306 185.968C95.6796 185.922 94.33 185.446 93.3909 183.42C91.818 180.025 92.4058 174.712 93.8998 169.13C93.3022 170.049 92.6914 170.942 92.0676 171.793C88.0451 177.26 84.5152 179.644 81.2742 179.086C80.6215 178.971 79.9951 178.738 79.4255 178.4C79.336 178.345 79.2543 178.279 79.1825 178.203C79.0742 178.084 78.1449 177.001 78.3452 174.774C78.6736 171.051 81.8423 166.749 85.9206 162.664C81.0247 165.153 76.247 166.798 72.8353 166.211C71.9884 166.097 71.1795 165.788 70.4724 165.308C69.7652 164.828 69.1791 164.191 68.7603 163.446C68.7096 163.353 68.672 163.254 68.6486 163.15C68.6158 162.996 68.3498 161.591 69.6337 159.765C71.7878 156.705 76.6837 154.56 82.2626 153.06C80.3788 152.972 78.5018 152.775 76.641 152.469C70.2084 151.359 66.9674 148.903 67.0002 145.163C67.0003 145.057 67.0169 144.951 67.0495 144.851C67.2038 144.361 68.8621 140.102 79.5273 141.941C80.8736 142.16 82.313 142.481 83.8453 142.903C79.0676 139.787 75.1536 136.336 74.1258 132.967C73.8766 132.223 73.7913 131.434 73.8757 130.654C73.9602 129.875 74.2124 129.122 74.615 128.449C74.6667 128.357 74.7333 128.275 74.812 128.206C74.9467 128.078 76.2207 126.994 78.8739 127.451C82.4531 128.068 86.5051 131.112 90.3666 134.95C87.7759 129.851 86.0979 124.889 86.8991 121.455C87.0517 120.683 87.3701 119.954 87.8322 119.318C88.2942 118.682 88.889 118.154 89.5753 117.77C89.6666 117.719 89.7651 117.681 89.8675 117.659C90.2482 117.585 90.6394 117.585 91.0201 117.659C92.4386 117.902 94.5763 118.972 96.7106 122.762C97.9453 124.951 99.0278 127.77 99.9582 131.22C100.264 125.526 101.298 120.41 103.698 117.839C104.218 117.251 104.859 116.783 105.577 116.465C106.296 116.148 107.074 115.989 107.859 116.001C107.963 116.004 108.067 116.02 108.167 116.05C108.318 116.099 109.668 116.572 110.607 118.598C112.18 121.993 111.592 127.306 110.098 132.888C110.696 131.969 111.306 131.076 111.93 130.229C115.953 124.758 119.483 122.374 122.724 122.932C123.376 123.047 124.003 123.28 124.572 123.619C124.661 123.674 124.743 123.74 124.815 123.816C124.92 123.934 125.853 125.017 125.653 127.244C125.324 130.967 122.156 135.269 118.077 139.354C122.973 136.865 127.751 135.22 131.163 135.811C132.009 135.924 132.818 136.232 133.524 136.711C134.231 137.191 134.816 137.828 135.234 138.572C135.287 138.664 135.326 138.764 135.349 138.868C135.382 139.022 135.648 140.428 134.364 142.253C132.21 145.314 127.314 147.458 121.735 148.958C123.619 149.046 125.496 149.243 127.357 149.55C133.786 150.659 137.03 153.119 136.998 156.856C137 156.947 136.986 157.038 136.958 157.125C136.804 157.617 135.149 161.837 124.48 159.998C123.131 159.765 121.683 159.486 120.149 159.075C124.93 162.188 128.841 165.662 129.869 169.031C130.118 169.777 130.204 170.567 130.119 171.349C130.035 172.13 129.782 172.885 129.38 173.56C129.326 173.652 129.258 173.737 129.179 173.809C129.045 173.934 127.771 175.024 125.117 174.568C121.538 173.95 117.486 170.906 113.625 167.068C116.215 172.164 117.893 177.126 117.092 180.564C116.937 181.333 116.617 182.06 116.154 182.694C115.691 183.327 115.095 183.853 114.409 184.235C114.318 184.286 114.22 184.324 114.117 184.346C113.736 184.418 113.345 184.418 112.965 184.346C111.546 184.1 109.408 183.033 107.274 179.24C106.039 177.057 104.956 174.229 104.027 170.782C103.721 176.479 102.687 181.591 100.287 184.166C99.7658 184.753 99.1246 185.221 98.4066 185.537C97.6887 185.854 96.9108 186.012 96.1262 186.001C96.0737 186.005 96.021 186.005 95.9685 186.001ZM99.4032 156.186C99.4911 156.203 99.577 156.229 99.6594 156.265C99.9137 156.379 100.113 156.588 100.215 156.848C100.317 157.108 100.313 157.397 100.204 157.654C93.5419 173.474 94.2315 179.897 95.2396 182.32C95.4525 182.945 95.8526 183.488 96.3855 183.877C96.8348 183.852 97.2745 183.738 97.6784 183.54C98.0823 183.342 98.4422 183.064 98.7366 182.724C101.577 179.683 102.631 170.627 101.639 157.877C101.617 157.599 101.705 157.323 101.884 157.109C102.062 156.895 102.318 156.759 102.595 156.731C102.872 156.703 103.149 156.785 103.367 156.958C103.585 157.132 103.726 157.384 103.761 157.66C104.943 167.058 106.752 173.97 109.146 178.206C111.027 181.532 112.705 182.146 113.342 182.258C113.416 182.272 113.491 182.28 113.566 182.281C113.942 182.035 114.266 181.716 114.517 181.342C114.768 180.969 114.941 180.549 115.027 180.107C115.963 176.055 112.351 167.682 105.113 157.141C104.956 156.911 104.895 156.628 104.943 156.354C104.991 156.079 105.144 155.834 105.37 155.67C105.596 155.506 105.877 155.437 106.153 155.479C106.43 155.52 106.679 155.667 106.847 155.89C111.205 161.64 119.42 171.442 125.482 172.489C126.713 172.699 127.39 172.446 127.646 172.312C127.851 171.909 127.973 171.468 128.003 171.016C128.034 170.565 127.973 170.112 127.823 169.685C126.608 165.705 119.286 160.261 107.757 154.748C107.505 154.628 107.311 154.414 107.214 154.153C107.118 153.892 107.128 153.603 107.241 153.349C107.356 153.095 107.566 152.896 107.825 152.794C108.084 152.691 108.373 152.694 108.63 152.8C115.004 155.486 120.451 157.23 124.828 157.985C132.575 159.318 134.502 157.161 134.853 156.619C134.719 154.209 132.075 152.541 126.992 151.664C121.345 150.679 114.012 150.968 108.857 151.369C108.579 151.391 108.303 151.303 108.089 151.124C107.875 150.946 107.739 150.691 107.711 150.413C107.683 150.136 107.764 149.858 107.938 149.64C108.112 149.422 108.363 149.28 108.64 149.244C125.672 147.106 130.89 143.294 132.483 141.212C133.139 140.349 133.251 139.712 133.261 139.442C132.984 139.026 132.621 138.675 132.196 138.413C131.771 138.15 131.294 137.983 130.798 137.922C126.595 137.2 118.54 140.74 108.118 147.891C107.888 148.049 107.605 148.111 107.33 148.063C107.055 148.015 106.81 147.862 106.647 147.635C106.485 147.409 106.417 147.129 106.458 146.853C106.499 146.578 106.646 146.33 106.867 146.161C120.55 135.791 123.164 129.884 123.502 127.283C123.643 126.203 123.416 125.599 123.288 125.362C122.998 125.204 122.684 125.093 122.359 125.034C120.061 124.637 117.05 126.869 113.651 131.49C110.482 135.798 107.599 141.34 105.741 145.238C105.62 145.489 105.405 145.683 105.144 145.779C104.882 145.875 104.593 145.864 104.339 145.75C104.084 145.636 103.885 145.427 103.783 145.167C103.681 144.907 103.685 144.618 103.793 144.361C110.456 128.544 109.763 122.118 108.758 119.695C108.545 119.07 108.145 118.527 107.612 118.138C107.163 118.163 106.724 118.278 106.32 118.476C105.916 118.674 105.556 118.951 105.261 119.291C102.421 122.331 101.364 131.388 102.359 144.138C102.381 144.416 102.293 144.692 102.114 144.906C101.936 145.12 101.68 145.256 101.403 145.284C101.126 145.312 100.849 145.23 100.631 145.057C100.413 144.883 100.272 144.631 100.237 144.355C99.0551 134.957 97.2459 128.045 94.8521 123.809C92.9706 120.483 91.2926 119.869 90.6556 119.757C90.567 119.757 90.4914 119.737 90.4323 119.734C90.0555 119.98 89.7319 120.299 89.4809 120.673C89.2299 121.046 89.0565 121.466 88.9711 121.908C88.0353 125.96 91.6472 134.333 98.8844 144.893C99.0416 145.123 99.1028 145.405 99.0549 145.679C99.0071 145.954 98.854 146.198 98.6283 146.361C98.4022 146.525 98.1208 146.594 97.8445 146.553C97.5683 146.512 97.3192 146.364 97.1507 146.141C92.7933 140.391 84.5776 130.59 78.516 129.546C77.2846 129.332 76.6082 129.585 76.352 129.72C76.1469 130.123 76.0255 130.564 75.995 131.015C75.9646 131.466 76.0257 131.919 76.1748 132.347C77.3897 136.323 84.7122 141.767 96.2411 147.281C96.4926 147.4 96.6871 147.614 96.7829 147.875C96.8787 148.137 96.868 148.426 96.7533 148.679C96.6402 148.934 96.4317 149.134 96.1725 149.237C95.9134 149.339 95.6244 149.336 95.3676 149.228C88.9941 146.542 83.5465 144.798 79.1694 144.046C71.4233 142.71 69.4958 144.867 69.1445 145.409C69.2791 147.822 71.9224 149.487 77.0055 150.364C82.6534 151.349 89.9858 151.063 95.1411 150.659C95.4189 150.638 95.694 150.726 95.908 150.905C96.1219 151.083 96.258 151.338 96.2871 151.615C96.315 151.892 96.2335 152.17 96.0599 152.388C95.8864 152.607 95.6344 152.749 95.3578 152.784C78.3255 154.922 73.1078 158.734 71.512 160.816C70.8552 161.679 70.7469 162.316 70.737 162.586C71.0131 163.002 71.3763 163.354 71.8015 163.616C72.2267 163.879 72.7037 164.046 73.1998 164.106C77.4028 164.832 85.4576 161.289 95.8799 154.137C96.1101 153.979 96.3927 153.918 96.6675 153.966C96.9422 154.014 97.1874 154.167 97.351 154.393C97.5136 154.619 97.5812 154.9 97.5395 155.176C97.4978 155.451 97.35 155.699 97.1277 155.867C83.448 166.237 80.8342 172.148 80.496 174.745C80.3548 175.825 80.5814 176.429 80.7094 176.669C81.0004 176.826 81.3139 176.937 81.6387 176.997C83.9373 177.395 86.9484 175.162 90.3469 170.542C93.5156 166.234 96.3987 160.691 98.2572 156.797C98.355 156.583 98.5202 156.409 98.7273 156.299C98.9345 156.189 99.172 156.15 99.4032 156.189V156.186Z" fill="#FFECB1"/>
<path d="M100.831 157.748C99.0432 157.436 97.4516 156.428 96.4053 154.945C95.3589 153.461 94.9432 151.624 95.2492 149.835C95.562 148.046 96.5708 146.455 98.0546 145.408C99.5385 144.362 101.376 143.946 103.166 144.252C104.955 144.564 106.548 145.572 107.595 147.056C108.641 148.541 109.056 150.379 108.748 152.169C108.436 153.958 107.428 155.55 105.943 156.596C104.459 157.642 102.621 158.056 100.831 157.748ZM102.802 146.351C101.57 146.14 100.304 146.427 99.2831 147.147C98.2619 147.868 97.5682 148.964 97.354 150.196C97.1433 151.427 97.4294 152.692 98.1495 153.713C98.8696 154.734 99.965 155.428 101.196 155.643C102.428 155.855 103.695 155.569 104.716 154.848C105.738 154.127 106.433 153.03 106.647 151.798C106.857 150.565 106.57 149.299 105.848 148.278C105.125 147.256 104.028 146.563 102.795 146.351H102.802Z" fill="#FFC200"/>
</svg>
