<svg width="177" height="70" viewBox="0 0 177 70" fill="none" xmlns="http://www.w3.org/2000/svg">
<path d="M78.8817 33.8479C78.8176 34.2475 78.7816 34.6511 78.7738 35.0557C77.3961 35.515 74.4592 36.3232 69.3341 36.9501C61.3341 37.9375 53.1803 36.5483 51.759 34.7365C51.2148 34.0477 51.0999 33.2578 51.4467 32.5804C51.8301 31.825 53.4099 30.1418 59.8691 30.1418C60.2847 30.1418 60.7256 30.1418 61.1803 30.1602C69.1343 30.4174 76.0482 32.7457 78.8817 33.8479Z" fill="#FFC200"/>
<path d="M81.4305 41.3107C81.2307 41.7194 80.9713 42.2131 80.6682 42.7826C79.4396 44.9664 78.0761 47.0715 76.5855 49.0856C74.9899 51.2661 73.2017 53.2987 71.2423 55.1591C70.783 55.5931 70.3238 56.011 69.8645 56.4059C69.8462 56.4197 69.8324 56.4381 69.814 56.4519C66.9208 58.9662 64.2526 60.5161 62.9644 60.4059C62.0873 60.3301 61.4352 59.8824 61.1803 59.1706C60.8657 58.321 60.721 55.7607 66.0436 50.3968C71.4834 44.9387 77.7359 41.4944 80.411 40.1626C80.6891 40.536 80.9962 40.8868 81.3295 41.212C81.3731 41.2579 81.4052 41.2831 81.4305 41.3107Z" fill="#FFC200"/>
<path d="M95.2169 68.8099C94.6658 69.4988 93.9288 69.8019 93.1871 69.6297C92.303 69.4184 90.0826 68.1325 88.5396 60.7411C87.0562 53.6435 87.4466 47.0189 87.8369 43.5425C88.4297 43.4992 89.0158 43.3898 89.5843 43.2164C90.4156 44.6378 91.6831 47.1406 93.2123 51.2095C96.055 58.7617 96.6314 67.012 95.2169 68.8099Z" fill="#FFC200"/>
<path d="M116.739 53.88C115.984 54.3852 113.525 55.1337 107.07 51.2164C106.071 50.6148 105.111 49.9811 104.209 49.3358C103.142 48.1793 102.016 47.0787 100.836 46.0385C98.9988 44.4311 97.2698 43.0304 95.729 41.9168C95.729 41.9168 95.729 41.9168 95.7152 41.9168C95.0884 41.2279 94.4982 40.585 94.0252 40.0224C94.3631 39.5438 94.6487 39.0304 94.8771 38.4908C96.5212 38.8628 99.2537 39.6504 103.293 41.3083C110.748 44.3737 117.176 49.5746 117.529 51.8548C117.655 52.7204 117.373 53.4644 116.739 53.88Z" fill="#FFC200"/>
<path d="M120.464 26.0776C120.395 26.5254 120.073 27.3245 118.856 28.2728C117.639 29.2211 115.547 30.3141 111.906 31.3451C105.185 33.2464 98.7278 33.3727 95.3225 33.2579C95.1683 32.5934 94.9314 31.9508 94.6176 31.3451C95.9815 30.4496 98.3305 29.0673 102.08 27.3382C109.414 23.9789 117.607 22.8331 119.502 24.1236C120.241 24.6195 120.585 25.336 120.464 26.0776Z" fill="#FFC200"/>
<path d="M84.6819 27.1706C84.3632 27.2656 84.051 27.3814 83.7474 27.5174C82.7945 26.4473 80.9253 24.0432 78.2686 19.1845C74.4018 12.0984 72.6866 4.00885 73.8462 2.03182C74.2549 1.32689 74.8772 0.936527 75.5614 0.936527C75.6165 0.932942 75.6717 0.932942 75.7268 0.936527C76.6452 1.02149 79.0103 1.9813 81.5706 9.09035C84.4064 16.9709 84.6751 24.6494 84.6819 27.1706Z" fill="#FFC200"/>
<path d="M82.7416 42.314C82.6268 43.1016 82.4477 44.0109 82.2043 45.0028C80.3421 48.144 77.8071 53.0855 76.2709 58.8788C76.0987 59.524 75.9517 60.1394 75.8231 60.7157C73.8209 63.9143 71.752 66.1623 70.5419 66.4379C69.7336 66.6285 69.031 66.4172 68.6016 65.873C68.0895 65.2278 67.2445 63.051 70.3421 56.8696C72.857 54.6554 75.1216 52.1721 77.0952 49.4643C79.7519 45.8088 81.1779 43.2944 81.9173 41.7445C82.18 41.9513 82.4553 42.1414 82.7416 42.314Z" fill="#FFC200"/>
<path d="M85.7427 45.9053C85.7267 48.1537 85.5903 50.3995 85.334 52.6332C84.4889 60.647 81.3018 68.2818 79.2215 69.2623C78.4408 69.6205 77.66 69.5677 77.0837 69.1085C76.3168 68.4931 75.2146 66.624 76.4385 60.934C76.4351 60.9196 76.4351 60.9047 76.4385 60.8904C76.5648 60.3071 76.7071 59.694 76.8793 59.0534C76.8982 58.9709 76.922 58.8896 76.9505 58.81C78.0437 54.8632 79.5845 51.0543 81.5429 47.4576C81.97 46.6631 82.3856 45.9329 82.7714 45.2877L82.8035 45.2349C83.2306 44.507 83.6853 43.7836 84.1813 43.0397C84.6557 43.2204 85.1462 43.3557 85.6462 43.4438C85.7082 44.0753 85.7427 44.8927 85.7427 45.9053Z" fill="#FFC200"/>
<path d="M122.404 40.8307C121.903 41.5908 119.94 43.2372 112.452 42.135C104.631 40.9869 98.0894 37.9375 95.4396 36.5598C95.5114 36.1395 95.5498 35.7141 95.5544 35.2877C96.9826 34.9731 99.97 34.5116 105.116 34.468C113.18 34.3784 121.129 36.7022 122.337 38.6539C122.794 39.4094 122.82 40.2016 122.404 40.8307Z" fill="#FFC200"/>
<path d="M94.916 7.70794C94.916 8.53457 94.8686 9.47755 94.7736 10.5369C94.7736 10.5575 94.7736 10.5759 94.7736 10.5966C94.7438 10.9341 94.7048 11.2854 94.6588 11.6505C94.6267 11.8939 94.6014 12.1373 94.5624 12.3807C93.6875 18.8101 91.5176 24.3944 90.1996 27.3566C90.1353 27.3313 90.071 27.306 90.0067 27.2877C89.9424 27.2693 89.8414 27.2303 89.7565 27.1981C89.6302 27.1591 89.5085 27.12 89.3799 27.0879C88.8852 26.9549 88.3795 26.8673 87.869 26.8261C87.4784 24.2936 87.2483 21.739 87.1801 19.1775C86.8977 11.1201 88.9964 3.12013 90.9183 1.8664C91.6531 1.39109 92.4338 1.34057 93.0745 1.72404C93.8138 2.17868 94.916 3.54952 94.916 7.70794Z" fill="#FFC200"/>
<path d="M79.8301 31.0948C79.6586 31.408 79.5053 31.7308 79.3708 32.0615C77.938 32.0225 74.9116 31.7355 69.6694 30.3968C61.8623 28.3876 54.7693 24.1258 54.1103 21.9376C53.8531 21.0926 54.0345 20.3164 54.604 19.8113C54.9301 19.5174 55.6465 19.1086 57.0931 19.1086C58.6292 19.1086 60.9783 19.5679 64.5489 21.0972C66.6185 21.9918 68.6247 23.0268 70.5534 24.1947C70.5631 24.1965 70.572 24.2013 70.5787 24.2085C73.3286 25.87 75.9395 27.7514 78.3858 29.8342L78.4432 29.8801C79.0631 30.3968 79.5086 30.8193 79.8301 31.0948Z" fill="#FFC200"/>
<path d="M110.461 60.8099C110.463 60.913 110.454 61.0161 110.436 61.1176C110.275 61.9879 109.77 62.5964 109.033 62.7892C108.163 63.0189 105.589 62.9224 100.753 57.1176C95.8759 51.2692 93.0562 44.8031 91.977 42.0706C92.4199 41.7619 92.8314 41.4104 93.2055 41.0212C93.8599 41.4162 94.5694 41.8915 95.3386 42.4403C96.8702 43.5356 98.5786 44.911 100.409 46.5229C101.582 47.5554 102.7 48.6499 103.757 49.8019L103.775 49.8203C108.073 54.4931 110.461 58.9224 110.461 60.8099Z" fill="#FFC200"/>
<path d="M112.041 13.0604C112.041 14.3211 111.228 16.7964 106.859 20.9892C102.319 25.352 97.3225 28.3371 93.8461 30.1098C93.3341 29.4334 92.7216 28.8395 92.0298 28.3486C92.2984 27.8893 92.5992 27.3819 92.9253 26.8721L93.0723 26.6425C93.9747 25.2418 95.0631 23.7056 96.303 22.073C97.5292 20.4706 98.8617 18.9525 100.292 17.5289C100.302 17.5176 100.312 17.5068 100.324 17.4967C104.732 13.0949 108.675 10.8859 110.172 11.0673C111.049 11.1638 111.69 11.6299 111.933 12.3486C112.007 12.5786 112.043 12.8189 112.041 13.0604Z" fill="#FFC200"/>
<path d="M104.484 5.57714C104.484 7.08115 103.94 9.51283 101.959 13.3613C101.313 14.615 100.581 15.8756 99.8162 17.0972C98.3698 18.5337 97.0241 20.0681 95.7887 21.6896C94.5533 23.2969 93.4718 24.8377 92.574 26.2338L91.4948 27.9973C91.3609 27.9112 91.2213 27.8345 91.0769 27.7676C90.9804 27.7171 90.8863 27.6643 90.783 27.6138C92.1607 24.5024 94.4569 18.5576 95.295 11.7356C95.3409 11.3888 95.3708 11.0467 95.4029 10.7298C97.6876 6.45429 100.337 3.24189 101.862 2.89746C102.264 2.80102 103.288 2.68621 103.942 3.53581C104.177 3.83661 104.484 4.452 104.484 5.57714Z" fill="#FFC200"/>
<path d="M81.7818 28.7527C81.2591 29.1925 80.7911 29.6936 80.388 30.2452C79.8874 29.9811 79.357 29.6803 78.8381 29.3749L78.7806 29.329C76.3379 27.2395 73.7267 25.3556 70.9736 23.6964C70.9684 23.6901 70.961 23.686 70.9529 23.6849L70.9276 23.6643C65.4741 18.9295 62.0252 13.7447 62.2227 11.8434C62.3077 10.9663 62.7669 10.321 63.4856 10.0707C63.7249 9.99206 63.9755 9.95327 64.2273 9.95594C65.5017 9.95594 67.977 10.7688 72.1814 15.0765C77.0654 20.0799 80.2594 25.6987 81.7818 28.7527Z" fill="#FFC200"/>
<path d="M84.2985 31.0191C84.6346 31.0191 84.907 30.7467 84.907 30.4106C84.907 30.0746 84.6346 29.8021 84.2985 29.8021C83.9624 29.8021 83.69 30.0746 83.69 30.4106C83.69 30.7467 83.9624 31.0191 84.2985 31.0191Z" fill="#FFC200"/>
<path d="M87.9563 29.9306C88.2226 29.9306 88.4385 29.7147 88.4385 29.4484C88.4385 29.1821 88.2226 28.9662 87.9563 28.9662C87.6899 28.9662 87.4741 29.1821 87.4741 29.4484C87.4741 29.7147 87.6899 29.9306 87.9563 29.9306Z" fill="#FFC200"/>
<path d="M90.1056 32.5278C90.566 32.5278 90.9391 32.1546 90.9391 31.6942C90.9391 31.2339 90.566 30.8607 90.1056 30.8607C89.6453 30.8607 89.2721 31.2339 89.2721 31.6942C89.2721 32.1546 89.6453 32.5278 90.1056 32.5278Z" fill="#FFC200"/>
<path d="M89.2697 34.4221C89.3762 34.4221 89.4626 34.3358 89.4626 34.2293C89.4626 34.1227 89.3762 34.0364 89.2697 34.0364C89.1632 34.0364 89.0768 34.1227 89.0768 34.2293C89.0768 34.3358 89.1632 34.4221 89.2697 34.4221Z" fill="#FFC200"/>
<path d="M91.9655 34.2292C92.5324 34.2292 92.9919 33.7697 92.9919 33.2028C92.9919 32.6359 92.5324 32.1764 91.9655 32.1764C91.3986 32.1764 90.9391 32.6359 90.9391 33.2028C90.9391 33.7697 91.3986 34.2292 91.9655 34.2292Z" fill="#FFC200"/>
<path d="M91.4189 30.5897C91.6763 30.5897 91.885 30.381 91.885 30.1236C91.885 29.8662 91.6763 29.6575 91.4189 29.6575C91.1615 29.6575 90.9528 29.8662 90.9528 30.1236C90.9528 30.381 91.1615 30.5897 91.4189 30.5897Z" fill="#FFC200"/>
<path d="M93.4098 36.1557C93.6051 36.1557 93.7634 35.9974 93.7634 35.8021C93.7634 35.6068 93.6051 35.4485 93.4098 35.4485C93.2145 35.4485 93.0562 35.6068 93.0562 35.8021C93.0562 35.9974 93.2145 36.1557 93.4098 36.1557Z" fill="#FFC200"/>
<path d="M90.3283 36.4106C90.6643 36.4106 90.9368 36.1382 90.9368 35.8021C90.9368 35.466 90.6643 35.1936 90.3283 35.1936C89.9922 35.1936 89.7198 35.466 89.7198 35.8021C89.7198 36.1382 89.9922 36.4106 90.3283 36.4106Z" fill="#FFC200"/>
<path d="M91.9655 39.4576C92.5324 39.4576 92.9919 38.9981 92.9919 38.4312C92.9919 37.8643 92.5324 37.4048 91.9655 37.4048C91.3986 37.4048 90.9391 37.8643 90.9391 38.4312C90.9391 38.9981 91.3986 39.4576 91.9655 39.4576Z" fill="#FFC200"/>
<path d="M90.3283 41.1568C90.6643 41.1568 90.9368 40.8844 90.9368 40.5483C90.9368 40.2122 90.6643 39.9398 90.3283 39.9398C89.9922 39.9398 89.7198 40.2122 89.7198 40.5483C89.7198 40.8844 89.9922 41.1568 90.3283 41.1568Z" fill="#FFC200"/>
<path d="M88.4363 41.4002C88.5695 41.4002 88.6774 41.2922 88.6774 41.1591C88.6774 41.0259 88.5695 40.918 88.4363 40.918C88.3031 40.918 88.1952 41.0259 88.1952 41.1591C88.1952 41.2922 88.3031 41.4002 88.4363 41.4002Z" fill="#FFC200"/>
<path d="M87.1526 39.2326C87.5952 39.2326 87.954 38.8738 87.954 38.4313C87.954 37.9887 87.5952 37.6299 87.1526 37.6299C86.71 37.6299 86.3513 37.9887 86.3513 38.4313C86.3513 38.8738 86.71 39.2326 87.1526 39.2326Z" fill="#FFC200"/>
<path d="M84.1377 40.5483C84.4737 40.5483 84.7462 40.2759 84.7462 39.9398C84.7462 39.6037 84.4737 39.3313 84.1377 39.3313C83.8016 39.3313 83.5292 39.6037 83.5292 39.9398C83.5292 40.2759 83.8016 40.5483 84.1377 40.5483Z" fill="#FFC200"/>
<path d="M85.9013 36.6678C86.7167 36.6678 87.3777 36.0067 87.3777 35.1913C87.3777 34.3759 86.7167 33.7148 85.9013 33.7148C85.0858 33.7148 84.4248 34.3759 84.4248 35.1913C84.4248 36.0067 85.0858 36.6678 85.9013 36.6678Z" fill="#FFC200"/>
<path d="M85.2926 32.6103C85.5323 32.6103 85.7266 32.416 85.7266 32.1763C85.7266 31.9366 85.5323 31.7423 85.2926 31.7423C85.0529 31.7423 84.8586 31.9366 84.8586 32.1763C84.8586 32.416 85.0529 32.6103 85.2926 32.6103Z" fill="#FFC200"/>
<path d="M82.1492 33.492C82.309 33.492 82.4386 33.3624 82.4386 33.2027C82.4386 33.0429 82.309 32.9133 82.1492 32.9133C81.9895 32.9133 81.8599 33.0429 81.8599 33.2027C81.8599 33.3624 81.9895 33.492 82.1492 33.492Z" fill="#FFC200"/>
<path d="M81.3133 35.5449C81.5086 35.5449 81.6669 35.3866 81.6669 35.1913C81.6669 34.996 81.5086 34.8376 81.3133 34.8376C81.118 34.8376 80.9597 34.996 80.9597 35.1913C80.9597 35.3866 81.118 35.5449 81.3133 35.5449Z" fill="#FFC200"/>
<path d="M80.5442 37.1339C80.7128 37.1339 80.8496 36.9971 80.8496 36.8285C80.8496 36.6598 80.7128 36.5231 80.5442 36.5231C80.3755 36.5231 80.2388 36.6598 80.2388 36.8285C80.2388 36.9971 80.3755 37.1339 80.5442 37.1339Z" fill="#FFC200"/>
<path d="M82.5648 38.4312C83.0074 38.4312 83.3662 38.0725 83.3662 37.6299C83.3662 37.1873 83.0074 36.8285 82.5648 36.8285C82.1222 36.8285 81.7634 37.1873 81.7634 37.6299C81.7634 38.0725 82.1222 38.4312 82.5648 38.4312Z" fill="#FFC200"/>
<path d="M26.3629 27.9191C21.0393 30.9144 16.7243 32.8998 13.1974 33.9402C11.1494 34.5403 9.32216 34.8242 7.71573 34.8242C6.72954 34.8323 5.74693 34.7047 4.79543 34.4451C4.1026 34.2564 2.97001 33.5934 2.97001 33.5934C2.49795 33.2161 0.196892 31.2576 1.1105 28.5803C1.20806 28.2954 1.41106 28.0588 1.67769 27.9191C1.91767 27.8253 2.17597 27.7878 2.4327 27.8096C2.68942 27.8314 2.93772 27.9119 3.15848 28.0449C3.15848 28.0449 3.66284 28.2659 3.37925 28.8966C3.15848 29.3691 2.66129 32.8998 5.83647 33.5934C6.45864 33.7119 7.09151 33.7649 7.72471 33.7515C11.8835 33.7515 17.6469 31.6079 25.8676 27.0046C26.0471 26.8788 29.5525 24.7658 32.8677 23.19C34.1582 22.5898 35.3249 22.2754 36.3318 22.2754C37.3634 22.2593 38.3636 22.6305 39.1355 23.3158C39.315 23.4721 40.2124 24.2932 40.3632 26.5949C40.4583 27.982 40.2698 29.6494 39.7978 31.545C39.2306 33.8809 38.2542 36.5904 36.8685 39.6162C35.56 42.4264 34.2049 45.3013 32.6631 47.7521C32.9772 47.9084 33.3236 48.0342 33.7023 48.1923C35.6857 49.0763 37.9544 50.0214 40.2842 50.9036C43.6855 52.1291 47.873 52.6394 47.873 52.6394C52.4411 53.2682 55.496 50.715 55.7168 49.8328C55.8963 49.1697 56.4347 49.3602 56.4347 49.3602C56.6822 49.4002 56.9168 49.4979 57.1195 49.6456C57.3222 49.7933 57.4873 49.9866 57.6014 50.2101C57.7107 50.5162 57.7107 50.8508 57.6014 51.157C57.5149 51.3658 57.4091 51.5661 57.2855 51.7553C56.8898 52.3573 56.3755 52.8721 55.7742 53.2682C54.8649 53.871 53.8308 54.2592 52.7498 54.4038C51.05 54.6571 49.0343 54.5296 46.5448 53.9636C42.1042 52.9861 37.1916 50.8731 33.2625 49.1698C32.8533 49.0116 32.4441 48.823 32.0348 48.6648C31.6637 49.2114 31.2641 49.738 30.8376 50.2424C30.1967 51.0263 29.4793 51.7443 28.6963 52.386C24.3886 56.0119 20.4398 54.4361 19.6554 54.057C18.2069 53.4587 17.419 52.4183 17.2933 51.0941C17.1982 49.8364 17.9862 48.4456 19.4041 47.4053C20.6318 46.4907 22.2078 45.9229 23.9398 45.7343C25.7836 45.5811 27.6389 45.8174 29.3856 46.4279C32.1246 42.5486 34.6141 37.5984 36.2206 33.1532C39.4011 24.4819 37.3531 23.5044 36.8506 23.4092C35.9046 23.2529 34.7074 23.5044 33.3218 24.1674C31.6202 24.9544 29.9115 25.9319 28.5976 26.6578C28.2207 26.8464 26.3629 27.9191 26.3629 27.9191ZM22.3621 53.0167C24.3778 52.386 26.6142 50.2424 28.7573 47.3406C27.2419 46.8607 25.6483 46.6776 24.0637 46.8016C22.9616 46.9274 21.3857 47.2436 20.0323 48.2516C18.9303 49.0727 18.3003 50.1436 18.3631 51.0276C18.4259 51.8775 18.9608 52.5711 19.9372 53.0131C20.9765 53.4892 22.3621 53.0167 22.3621 53.0167Z" fill="black"/>
<path d="M48.8374 39.1234C47.6939 41.0189 43.5667 47.6217 41.0264 47.2743C41.0264 47.2743 38.2635 47.2113 40.0095 42.4716C41.1205 39.4402 43.1542 36.5978 44.01 35.4601C44.1311 35.306 44.2852 35.1806 44.4611 35.0932C44.637 35.0057 44.8303 34.9582 45.0269 34.9543H45.9479C46.0426 34.9575 46.1349 34.9853 46.2155 35.035C46.2961 35.0848 46.3622 35.1546 46.4072 35.2376C46.4523 35.3207 46.4746 35.414 46.4721 35.5083C46.4696 35.6026 46.4423 35.6946 46.393 35.7752C44.741 38.2953 39.9787 45.7262 41.1856 46.421C41.1856 46.421 43.2808 46.7361 48.0757 38.8714C48.12 38.7842 48.1882 38.7112 48.2724 38.6609C48.3566 38.6105 48.4533 38.5849 48.5515 38.5869C48.614 38.5876 48.6751 38.605 48.7285 38.6374C48.7818 38.6697 48.8254 38.7157 48.8547 38.7706C48.884 38.8255 48.8978 38.8873 48.8948 38.9494C48.8917 39.0114 48.8719 39.0715 48.8374 39.1234ZM45.0595 33.723C45.0595 33.3756 45.5661 33.0912 46.1451 33.0912C46.7494 33.0912 47.2307 33.3756 47.2307 33.723C47.2307 34.0704 46.7548 34.3549 46.1451 34.3549C45.5661 34.3549 45.0595 34.0704 45.0595 33.723Z" fill="black"/>
<path d="M65.7955 29.8384C65.7928 29.9631 65.7424 30.0819 65.655 30.1701C65.5676 30.2583 65.4498 30.309 65.3262 30.3118H62.4711C60.312 33.6917 57.4623 38.4611 55.5512 42.5664C54.6429 44.557 54.0166 46.103 54.5501 46.4197C54.5501 46.4197 57.1179 47.4312 62.1892 38.8715C62.2335 38.7844 62.3012 38.7116 62.3844 38.6614C62.4677 38.6111 62.5633 38.5854 62.6603 38.5871C62.7232 38.5866 62.7851 38.6028 62.8398 38.6341C62.8945 38.6655 62.9401 38.7109 62.9718 38.7657C63.0035 38.8205 63.0202 38.8828 63.0204 38.9463C63.0205 39.0097 63.004 39.0721 62.9726 39.1271C61.752 41.3066 57.7121 47.586 54.3931 47.2764C54.3931 47.2764 52.1073 47.2764 53.3903 42.8238C51.638 45.1635 49.32 47.4654 47.2537 47.2764C47.2537 47.2764 44.8108 47.2764 46.3775 42.4746C47.6605 38.4018 50.3853 33.7277 52.6087 30.3154H49.5199C46.9842 30.2848 45.9189 29.1797 46.5453 28.3572C47.0467 27.6949 48.2993 28.485 48.2993 28.485C49.8018 29.2733 51.0241 29.3687 51.3328 29.3687H53.2439C54.7767 27.029 55.9366 25.4848 55.9366 25.4848C56.0599 25.3273 56.2168 25.2001 56.3957 25.1125C56.5747 25.0249 56.7709 24.9793 56.9698 24.979H57.8459C57.941 24.9782 58.0346 25.0035 58.1164 25.0523C58.1983 25.1011 58.2654 25.1715 58.3106 25.256C58.3558 25.3404 58.3772 25.4356 58.3727 25.5314C58.3682 25.6273 58.3378 25.72 58.2849 25.7997C58.2849 25.7997 57.3142 27.2215 55.9366 29.3687H60.3834C61.9162 27.029 63.076 25.4848 63.076 25.4848C63.1993 25.3273 63.3563 25.2001 63.5352 25.1125C63.7141 25.0249 63.9103 24.9793 64.1092 24.979H64.9854C65.0805 24.9782 65.174 25.0035 65.2559 25.0523C65.3377 25.1011 65.4049 25.1715 65.45 25.256C65.4952 25.3404 65.5167 25.4356 65.5121 25.5314C65.5076 25.6273 65.4772 25.72 65.4243 25.7997C65.4243 25.7997 64.4536 27.2215 63.076 29.3687H65.3298C65.3911 29.368 65.452 29.3796 65.5088 29.403C65.5657 29.4263 65.6173 29.4609 65.6607 29.5047C65.7041 29.5484 65.7384 29.6005 65.7615 29.6578C65.7847 29.7151 65.7962 29.7765 65.7955 29.8384ZM59.7535 30.3118H55.337C53.1779 33.6917 50.3282 38.4611 48.4171 42.5664C47.5088 44.557 46.8825 46.103 47.4161 46.4197C47.4161 46.4197 49.8268 47.3664 54.5858 39.6616C55.9955 36.3698 58.0297 32.9574 59.7535 30.3046V30.3118Z" fill="black"/>
<path d="M61.9323 46.4198C61.9323 46.4198 64.5011 47.4312 69.5762 38.8715C69.6232 38.7871 69.6912 38.7165 69.7736 38.6666C69.8559 38.6168 69.9496 38.5894 70.0456 38.5871C70.1087 38.5862 70.1709 38.6022 70.2259 38.6334C70.2809 38.6647 70.3267 38.71 70.3586 38.7649C70.3905 38.8198 70.4074 38.8822 70.4077 38.9458C70.4079 39.0094 70.3914 39.072 70.3598 39.1271C69.137 41.3066 65.1276 47.586 61.7752 47.2764C61.7752 47.2764 59.3635 47.2764 60.8987 42.4746C63.2479 35.0542 70.4526 25.4847 70.4526 25.4847C70.5784 25.3301 70.7359 25.2048 70.9144 25.1174C71.0928 25.0301 71.2879 24.9829 71.4862 24.979H72.3949C72.4878 24.9827 72.578 25.0115 72.6561 25.0624C72.7342 25.1132 72.7973 25.1843 72.8389 25.2681C72.8805 25.3519 72.899 25.4455 72.8925 25.539C72.8859 25.6325 72.8547 25.7225 72.8019 25.7997C72.8019 25.7997 66.3183 35.2449 62.9355 42.5664C62.0269 44.557 61.4003 46.103 61.9323 46.4198Z" fill="black"/>
<path d="M79.9457 39.0888C78.8659 40.838 77.6754 42.5194 76.3813 44.1232C75.5713 45.1173 74.5886 45.9637 73.4784 46.6237C72.3748 47.2414 71.0176 47.5194 69.7882 47.0566C68.1489 46.4389 67.4856 45.1421 67.4856 43.8452C67.4856 42.0222 68.6216 40.2009 68.6216 40.2009C70.3238 37.2992 73.4478 34.8903 75.7181 35.1366C75.9455 35.1577 76.1687 35.2098 76.3813 35.2915C76.663 35.4095 76.8969 35.6156 77.0464 35.8774C77.2675 36.2487 77.3304 36.7115 77.2675 37.2993C77.0348 38.2766 76.5699 39.1863 75.9104 39.9546C75.1914 40.7887 73.9871 41.6527 72.4107 41.343C72.4107 41.343 71.6522 41.1899 71.37 40.6954C71.3382 40.7635 71.2951 40.826 71.2423 40.8802C68.5623 45.1034 70.4227 46.2542 70.4227 46.2542C71.4005 46.7469 72.5042 46.3774 73.4514 45.7597C74.3408 45.1421 75.1361 44.4038 75.8133 43.5672C77.0414 42.0723 78.1587 40.4934 79.1567 38.8425C79.201 38.7575 79.2688 38.6864 79.3524 38.6372C79.4359 38.5881 79.5319 38.5629 79.6294 38.5644C79.6924 38.5639 79.7544 38.5796 79.8093 38.61C79.8641 38.6404 79.9099 38.6843 79.9419 38.7374C79.974 38.7905 79.9912 38.8509 79.9918 38.9126C79.9925 38.9743 79.9766 39.0351 79.9457 39.0888ZM72.186 39.6167C71.7762 40.2643 72.3424 40.5423 72.3424 40.5423C72.7217 40.7271 73.2573 40.6655 73.6689 40.5423C74.1649 40.3436 74.6153 40.0499 74.9937 39.6783C75.6384 39.0259 76.1143 38.2319 76.3813 37.3626C76.6959 36.2804 76.1908 36.0657 76.1908 36.0657C76.065 36.0006 75.1501 35.7243 72.1932 39.615L72.186 39.6167Z" fill="black"/>
<path d="M136.163 39.2288C135.038 41.1506 130.976 47.8451 128.444 47.4929C128.444 47.4929 126.445 47.429 127.007 44.3227C126.883 44.4814 126.726 44.6421 126.601 44.8027C125.383 46.2427 124.287 47.0768 123.352 47.3323C123.125 47.3741 122.895 47.3955 122.664 47.3961C122.664 47.3961 120.321 47.5568 121.195 43.1984C121.977 39.1631 126.359 34.8029 129.258 35.1278C129.483 35.1497 129.703 35.2038 129.913 35.2884C130.193 35.4217 130.431 35.6321 130.601 35.8961C130.663 36.0567 130.725 36.2173 130.788 36.409C130.98 36.099 131.189 35.7999 131.413 35.5129C131.53 35.3541 131.681 35.2252 131.854 35.1362C132.028 35.0472 132.219 35.0006 132.413 35H133.32C133.413 35.0035 133.503 35.032 133.582 35.0825C133.662 35.133 133.726 35.2039 133.77 35.288C133.815 35.3721 133.836 35.4666 133.834 35.5621C133.831 35.6576 133.804 35.7507 133.756 35.8322C132.1 38.3874 127.413 45.9215 128.592 46.6259C128.592 46.6259 130.654 46.9453 135.373 38.9714C135.423 38.8819 135.496 38.8079 135.584 38.7572C135.672 38.7065 135.772 38.6809 135.873 38.6831C135.934 38.6864 135.993 38.7056 136.044 38.7388C136.096 38.772 136.138 38.8182 136.167 38.8729C136.196 38.9276 136.211 38.989 136.21 39.0513C136.21 39.1136 136.194 39.1747 136.163 39.2288ZM127.736 41.919C128.352 40.4885 129.073 39.1078 129.892 37.7888C129.985 37.5314 130.172 36.7631 129.922 36.3141C129.89 36.2211 129.827 36.1425 129.744 36.0914C129.62 36.0275 128.557 35.7063 124.869 41.0867C124.869 41.0867 121.808 45.6988 123.056 46.4361C123.165 46.4812 123.285 46.492 123.4 46.4672C124.151 46.1788 125.058 45.4433 126.026 44.2898C126.645 43.5381 127.216 42.7461 127.736 41.919Z" fill="black"/>
<path d="M142.803 39.1234C141.662 41.0189 137.532 47.6217 134.993 47.2743C134.993 47.2743 132.229 47.2113 133.976 42.4716C135.087 39.4402 137.119 36.5978 137.977 35.4601C138.098 35.306 138.252 35.1806 138.428 35.0932C138.604 35.0057 138.797 34.9582 138.994 34.9543H139.915C140.01 34.9578 140.102 34.9859 140.182 35.0357C140.263 35.0855 140.328 35.1554 140.373 35.2384C140.418 35.3214 140.44 35.4146 140.438 35.5087C140.435 35.6029 140.408 35.6947 140.359 35.7752C138.708 38.2953 133.945 45.7262 135.15 46.421C135.15 46.421 137.246 46.7361 142.042 38.8714C142.087 38.7843 142.155 38.7115 142.24 38.6612C142.324 38.6109 142.421 38.5852 142.519 38.5869C142.582 38.5879 142.643 38.6056 142.696 38.638C142.749 38.6705 142.792 38.7166 142.821 38.7714C142.85 38.8263 142.864 38.8879 142.861 38.9498C142.858 39.0117 142.838 39.0717 142.803 39.1234ZM139.025 33.723C139.025 33.3756 139.533 33.0912 140.111 33.0912C140.713 33.0912 141.196 33.3756 141.196 33.723C141.196 34.0704 140.72 34.3549 140.111 34.3549C139.533 34.3549 139.023 34.0704 139.023 33.723H139.025Z" fill="black"/>
<path d="M151.599 39.064C151.379 39.4075 151.035 39.97 150.628 40.6267C150.628 40.6267 149.556 42.4689 147.556 42.8444C147.412 43.6188 147.125 44.3599 146.71 45.0301C145.613 46.842 143.138 47.8405 141.29 46.9666C141.29 46.9666 139.252 46.1229 139.974 43.9996C139.974 43.9996 140.788 41.1892 145.238 41.9064C145.313 41.9017 145.388 41.9126 145.458 41.9385C145.301 40.4701 144.015 38.5568 143.515 37.8448C142.856 38.9376 142.417 39.5944 142.042 40.1586C142.009 40.2102 141.964 40.2522 141.91 40.2802C141.856 40.3083 141.795 40.3214 141.734 40.3181C141.673 40.3148 141.614 40.2953 141.563 40.2617C141.513 40.228 141.472 40.1813 141.445 40.1266C141.396 40.0447 141.373 39.9499 141.379 39.8547C141.384 39.7594 141.419 39.6681 141.477 39.5926C141.979 38.8113 142.479 38.0299 142.981 37.124C141.07 34.4079 142.445 33.0018 143.64 32.7829C144.956 32.564 145.111 33.6265 145.111 33.6265C145.301 34.4702 144.642 35.8745 144.329 36.4743L145.269 37.4105C146.302 38.4784 147.619 39.9415 147.651 41.9082C148.54 41.7086 149.316 41.1708 149.813 40.4096C150.158 39.9094 150.47 39.379 150.847 38.8077C150.888 38.7192 150.955 38.645 151.038 38.5948C151.122 38.5446 151.219 38.5208 151.317 38.5265C151.378 38.5307 151.437 38.5503 151.488 38.5836C151.539 38.6169 151.58 38.6627 151.609 38.7166C151.637 38.7705 151.651 38.8308 151.649 38.8916C151.648 38.9524 151.63 39.0118 151.599 39.064ZM145.363 42.8818C143.483 42.7572 141.634 42.6949 141.101 44.1277C140.788 44.9714 141.602 45.3736 141.602 45.3736C144.204 46.4041 145.363 42.8818 145.363 42.8818ZM143.756 35.7303C143.864 35.4859 143.958 35.2358 144.038 34.981C144.351 33.9487 143.756 34.043 143.756 34.043C143.451 34.0982 143.076 34.5983 143.765 35.7232L143.756 35.7303Z" fill="black"/>
<path d="M153.033 50.7502C150.802 53.2778 147.409 55.567 142.601 54.964C142.601 54.964 140.273 54.6788 138.642 53.6028C137.51 52.8409 136.757 51.6385 137.29 50.0226C138.327 46.7909 145.208 47.9626 151.744 49.2625C152.875 47.7731 153.944 45.9027 154.918 43.5267C153.346 45.5235 151.556 47.3289 150.206 47.1376C150.206 47.1376 147.502 47.0744 149.232 42.3207C150.331 39.2804 152.342 36.4296 153.191 35.2886C153.305 35.1289 153.456 34.9995 153.631 34.9111C153.806 34.8228 153.999 34.7783 154.195 34.7813H155.076C155.172 34.7791 155.268 34.8031 155.352 34.8507C155.436 34.8984 155.505 34.968 155.554 35.0522C155.602 35.1364 155.626 35.2321 155.625 35.3293C155.624 35.4265 155.597 35.5215 155.547 35.6046C153.882 38.1321 149.169 45.5849 150.354 46.2818C150.354 46.2818 152.209 46.567 156.419 39.9448C157.268 38.3166 158.245 36.7596 159.341 35.2886C159.456 35.1288 159.608 34.9992 159.783 34.9109C159.958 34.8226 160.152 34.7782 160.347 34.7813H161.227C161.323 34.7791 161.418 34.8031 161.502 34.8507C161.586 34.8984 161.656 34.968 161.704 35.0522C161.752 35.1364 161.777 35.2321 161.776 35.3293C161.775 35.4265 161.748 35.5215 161.698 35.6046C160.032 38.1321 155.32 45.5849 156.505 46.2818C156.505 46.2818 158.578 46.5977 163.323 38.7099C163.371 38.6252 163.439 38.5544 163.521 38.5044C163.604 38.4544 163.698 38.4269 163.794 38.4246C163.857 38.424 163.92 38.4403 163.975 38.4718C164.029 38.5032 164.075 38.5488 164.107 38.6037C164.139 38.6587 164.156 38.7212 164.156 38.7849C164.156 38.8485 164.139 38.9111 164.108 38.9662C162.978 40.8673 158.892 47.4896 156.347 47.1412C156.078 47.1267 155.817 47.0387 155.593 46.8866C155.101 47.8665 154.523 48.8 153.866 49.676M150.943 50.1815C147.11 49.1686 138.814 47.5835 137.935 50.3097C137.432 51.893 139.066 53.6046 142.805 53.8898C145.398 54.0776 148.32 53.1279 150.959 50.1797L150.943 50.1815Z" fill="black"/>
<path d="M107.097 27.4164C107.197 27.4798 107.277 27.5733 107.323 27.6844C107.37 27.7954 107.382 27.9186 107.358 28.037C107.341 28.1216 107.322 28.2025 107.301 28.2835C107.25 28.4957 107.192 28.7044 107.125 28.9077C107 29.3178 106.854 29.7117 106.696 30.0985C106.383 30.8662 106.021 31.6124 105.614 32.3326C104.826 33.7716 104.051 35.2341 103.305 36.6983C102.934 37.4322 102.562 38.1661 102.223 38.9144C101.884 39.6628 101.555 40.4147 101.28 41.1845C100.995 41.944 100.787 42.7311 100.658 43.5338C100.593 43.9258 100.576 44.3246 100.607 44.721C100.628 45.1082 100.739 45.4845 100.932 45.8183L100.904 45.7895C101.024 45.9018 101.167 45.9859 101.322 46.036C101.403 46.0605 101.487 46.0696 101.571 46.0629C101.664 46.0545 101.755 46.0308 101.84 45.9928C101.78 46.0786 101.702 46.1484 101.61 46.196C101.512 46.2454 101.405 46.2719 101.295 46.2734C101.186 46.2733 101.078 46.2557 100.974 46.2212C100.868 46.1845 100.768 46.1331 100.675 46.0683L100.654 46.0431C100.369 45.6884 100.172 45.2681 100.08 44.8182C99.983 44.3827 99.9341 43.9373 99.9343 43.4906C99.9329 42.6148 100.017 41.741 100.185 40.8823C100.34 40.0279 100.537 39.1879 100.774 38.364C101.011 37.5402 101.274 36.7199 101.571 35.9176C102.165 34.3164 102.856 32.7544 103.638 31.2407C104.016 30.4798 104.463 29.7571 104.973 29.0821C105.229 28.7384 105.506 28.4111 105.801 28.1018C106.016 27.8762 106.243 27.6636 106.482 27.465C106.568 27.3936 106.674 27.3519 106.785 27.3458C106.896 27.3396 107.005 27.3694 107.099 27.4308L107.097 27.4164Z" fill="black"/>
<path d="M101.396 29.8997C101.234 30.2273 101.016 30.524 100.751 30.7763C100.485 31.032 100.196 31.2624 99.8871 31.4643C99.2638 31.862 98.5957 32.1846 97.8967 32.4254C97.1934 32.6707 96.4668 32.8434 95.7284 32.9409C94.9695 33.0461 94.2001 33.0516 93.4397 32.9571C93.0396 32.9064 92.6459 32.8143 92.2649 32.6823C91.8555 32.5428 91.4701 32.3411 91.1223 32.0841C90.7465 31.8047 90.4347 31.4483 90.208 31.0386C89.9825 30.6285 89.846 30.1756 89.8074 29.7092C89.7492 28.87 89.8825 28.0284 90.1972 27.2482C90.4692 26.5164 90.8313 25.8212 91.275 25.1788C92.1463 23.9364 93.2142 22.8442 94.4367 21.9453C95.6309 21.0639 96.9272 20.3299 98.2973 19.7591C99.6553 19.1946 101.071 18.7802 102.519 18.5232C103.239 18.3962 103.965 18.3092 104.694 18.2628C105.421 18.2125 106.151 18.2053 106.879 18.2412C109.787 18.3794 112.623 19.1931 115.162 20.6178C115.793 20.9771 116.407 21.3597 117 21.7765C117.593 22.1932 118.171 22.6351 118.726 23.1058C118.868 23.2208 119.003 23.3429 119.139 23.4651C119.276 23.5872 119.414 23.7004 119.549 23.8243C119.823 24.0829 120.084 24.355 120.33 24.6399C120.829 25.2185 121.261 25.8505 121.62 26.5243C122.339 27.8966 122.767 29.4021 122.878 30.9469C122.993 32.4784 122.865 34.0186 122.497 35.5097C122.137 36.9795 121.608 38.4027 120.921 39.751C120.583 40.4216 120.214 41.0743 119.815 41.709C119.416 42.3437 118.988 42.9569 118.53 43.5485C117.622 44.7358 116.609 45.839 115.503 46.8449C114.393 47.8534 113.19 48.7555 111.911 49.5394C110.631 50.3281 109.266 50.9711 107.843 51.4561C106.411 51.9497 104.917 52.2453 103.405 52.3346C102.646 52.3765 101.885 52.3609 101.128 52.2879C100.384 52.2123 99.6448 52.0863 98.917 51.9106C97.438 51.5689 96.0231 50.9927 94.726 50.2041C93.3965 49.3946 92.2656 48.297 91.417 46.9922C90.5541 45.6533 90.0956 44.094 90.0966 42.5012C90.1191 40.8981 90.6305 39.3401 91.5625 38.0354C92.478 36.7737 93.6725 35.7403 95.0529 35.0157C96.3735 34.2847 97.7957 33.7549 99.2727 33.4439C100.778 33.1272 102.329 33.0991 103.845 33.3613C105.4 33.6256 106.866 34.2705 108.111 35.2385C109.435 36.2717 110.346 37.7441 110.68 39.3899C110.702 39.4959 110.716 39.6055 110.73 39.7132L110.763 40.0168C110.774 40.12 110.78 40.2238 110.781 40.3276C110.781 40.4318 110.791 40.5342 110.781 40.642C110.777 41.0831 110.709 41.5214 110.578 41.9426C110.438 42.3958 110.214 42.8183 109.917 43.1874C109.84 43.282 109.76 43.3726 109.674 43.4587C109.59 43.5452 109.501 43.6268 109.408 43.703C109.317 43.7805 109.221 43.8519 109.121 43.9168C109.023 43.9823 108.922 44.0423 108.817 44.0964C108.421 44.3094 107.989 44.4505 107.543 44.5132C106.346 44.6727 105.134 44.3624 104.161 43.6473L103.916 43.4677C104.016 43.4863 104.117 43.496 104.218 43.4964C104.906 43.4962 105.591 43.4227 106.263 43.2773C106.826 43.1563 107.351 42.897 107.79 42.5228C108.132 42.1906 108.37 41.7662 108.476 41.3012C108.548 41.0407 108.601 40.7754 108.636 40.5073C108.65 40.3617 108.67 40.218 108.675 40.0653L108.686 39.8372C108.686 39.7671 108.686 39.6989 108.686 39.6306C108.671 39.0531 108.497 38.4909 108.185 38.0049C107.86 37.4859 107.451 37.025 106.974 36.6415C105.968 35.8528 104.784 35.3235 103.525 35.1002C102.232 34.8675 100.907 34.8822 99.6194 35.1433C98.3082 35.4104 97.0441 35.8712 95.8685 36.5103C94.7128 37.0977 93.7116 37.9488 92.9457 38.9947C92.2098 40.0188 91.8054 41.2439 91.787 42.5048C91.7834 43.7727 92.1533 45.0135 92.8505 46.0724C93.5703 47.1528 94.5229 48.0582 95.6386 48.7221C96.7813 49.4028 98.0259 49.8959 99.3248 50.1825C99.9759 50.328 100.636 50.4294 101.301 50.4861C101.959 50.5394 102.62 50.5364 103.277 50.4771C104.604 50.3509 105.906 50.0332 107.143 49.534C108.389 49.0322 109.574 48.3929 110.678 47.6281C111.789 46.8626 112.829 45.998 113.784 45.0449C114.745 44.0973 115.63 43.0763 116.432 41.9911C118.039 39.8428 119.27 37.4374 120.072 34.8774C120.465 33.6216 120.707 32.3232 120.79 31.0098C120.867 29.7013 120.689 28.3904 120.268 27.1494C119.936 26.2056 119.437 25.3297 118.793 24.5644C118.688 24.4351 118.566 24.3058 118.451 24.1764C118.336 24.0471 118.218 23.9195 118.092 23.7956C117.131 22.7853 116.038 21.9097 114.842 21.1926C112.433 19.7549 109.671 19.0171 106.866 19.0621C106.173 19.0731 105.481 19.1247 104.793 19.2166C104.108 19.3136 103.429 19.4497 102.76 19.6244C101.427 19.9747 100.136 20.4667 98.9081 21.092C97.6941 21.7042 96.5497 22.4456 95.4948 23.3034C94.4473 24.1301 93.522 25.1007 92.7463 26.1866C92.3799 26.7126 92.0732 27.2777 91.8319 27.8716C91.5963 28.4084 91.474 28.9882 91.4726 29.5745C91.4776 29.8198 91.5348 30.0613 91.6404 30.2828C91.7461 30.5043 91.8977 30.7007 92.0852 30.8589C92.5486 31.2256 93.0932 31.4757 93.6733 31.5883C94.3201 31.732 94.9814 31.8001 95.6439 31.7912C96.3249 31.7861 97.0041 31.7217 97.6739 31.599C98.3533 31.4829 99.0187 31.2957 99.659 31.0404C99.9815 30.9146 100.292 30.7594 100.586 30.5769C100.735 30.4862 100.879 30.386 101.015 30.2769C101.152 30.1616 101.279 30.0354 101.396 29.8997Z" fill="black"/>
<path d="M152.912 49.5476C155.034 50.0246 157.448 50.5069 159.912 50.9161C163.495 51.452 167.711 51.1358 167.711 51.1358C172.323 50.866 174.827 47.7824 174.872 46.8784C174.929 46.196 175.492 46.2764 175.492 46.2764C175.744 46.2678 175.993 46.3181 176.221 46.4234C176.449 46.5286 176.648 46.6857 176.804 46.882C176.97 47.1592 177.033 47.4852 176.984 47.8039C176.939 48.0243 176.874 48.2402 176.789 48.4488C176.518 49.1127 176.112 49.7146 175.599 50.2175C174.822 50.9813 173.882 51.5603 172.848 51.9112C171.23 52.4864 169.22 52.7544 166.663 52.6848C162.107 52.5919 156.865 51.4842 152.663 50.5873" fill="black"/>
</svg>
