<svg width="253" height="151" viewBox="0 0 253 151" fill="none" xmlns="http://www.w3.org/2000/svg">
<path d="M117.31 36.9583C117.238 37.407 117.198 37.8602 117.189 38.3145C115.642 38.8302 112.344 39.7378 106.589 40.4417C97.6065 41.5503 88.4508 39.9904 86.8548 37.9561C86.2437 37.1826 86.1148 36.2957 86.5041 35.5351C86.9347 34.6868 88.7086 32.7969 95.9615 32.7969C96.4281 32.7969 96.9232 32.7969 97.4337 32.8175C106.365 33.1063 114.128 35.7207 117.31 36.9583Z" fill="#FFC200"/>
<path d="M120.172 45.338C119.948 45.7969 119.656 46.3513 119.316 46.9907C117.937 49.4429 116.406 51.8066 114.732 54.0683C112.94 56.5166 110.932 58.799 108.732 60.888C108.216 61.3753 107.701 61.8445 107.185 62.288C107.164 62.3035 107.149 62.3241 107.128 62.3396C103.88 65.1629 100.884 66.9032 99.4371 66.7795C98.4522 66.6944 97.7199 66.1916 97.4337 65.3923C97.0805 64.4383 96.918 61.5635 102.895 55.5405C109.003 49.4118 116.024 45.5443 119.027 44.0488C119.34 44.4681 119.684 44.862 120.059 45.2271C120.108 45.2787 120.144 45.3071 120.172 45.338Z" fill="#FFC200"/>
<path d="M135.652 76.2167C135.034 76.9902 134.206 77.3305 133.373 77.1372C132.381 76.9 129.887 75.4561 128.155 67.1564C126.489 59.1868 126.927 51.7482 127.366 47.8446C128.031 47.796 128.689 47.6732 129.328 47.4785C130.261 49.0745 131.684 51.8849 133.402 56.4537C136.594 64.9339 137.241 74.1979 135.652 76.2167Z" fill="#FFC200"/>
<path d="M159.819 59.4519C158.971 60.0191 156.21 60.8597 148.962 56.461C147.84 55.7855 146.763 55.0739 145.749 54.3494C144.551 53.0508 143.287 51.815 141.962 50.6469C139.899 48.8421 137.957 47.2693 136.227 46.0188C136.227 46.0188 136.227 46.0188 136.212 46.0188C135.508 45.2453 134.845 44.5233 134.314 43.8916C134.694 43.3542 135.014 42.7777 135.271 42.1719C137.117 42.5896 140.185 43.4739 144.72 45.3355C153.092 48.7776 160.309 54.6175 160.706 57.1778C160.848 58.1498 160.531 58.9852 159.819 59.4519Z" fill="#FFC200"/>
<path d="M164.001 28.2335C163.924 28.7363 163.563 29.6336 162.196 30.6984C160.83 31.7633 158.481 32.9906 154.392 34.1482C146.845 36.2831 139.595 36.4249 135.771 36.296C135.598 35.5499 135.332 34.8283 134.979 34.1482C136.511 33.1427 139.149 31.5905 143.359 29.649C151.594 25.8769 160.794 24.5903 162.921 26.0394C163.751 26.5963 164.138 27.4007 164.001 28.2335Z" fill="#FFC200"/>
<path d="M123.823 29.4606C123.465 29.5672 123.115 29.6972 122.774 29.8499C121.704 28.6484 119.605 25.9489 116.622 20.4931C112.28 12.5363 110.354 3.45284 111.656 1.23289C112.115 0.441342 112.813 0.00301901 113.582 0.00301901C113.644 -0.00100634 113.706 -0.00100634 113.767 0.00301901C114.799 0.0984176 117.455 1.17617 120.329 9.15871C123.514 18.0076 123.815 26.6295 123.823 29.4606Z" fill="#FFC200"/>
<path d="M121.644 46.4646C121.515 47.349 121.314 48.37 121.041 49.4839C118.95 53.011 116.103 58.5596 114.379 65.0648C114.185 65.7893 114.02 66.4803 113.876 67.1274C111.627 70.7191 109.304 73.2433 107.946 73.5527C107.038 73.7667 106.249 73.5294 105.767 72.9184C105.192 72.1939 104.243 69.7496 107.721 62.8087C110.545 60.3225 113.088 57.5341 115.304 54.4936C118.287 50.3889 119.888 47.5656 120.719 45.8252C121.014 46.0573 121.323 46.2709 121.644 46.4646Z" fill="#FFC200"/>
<path d="M125.014 50.4971C124.996 53.0216 124.843 55.5434 124.555 58.0516C123.606 67.05 120.028 75.623 117.692 76.7239C116.815 77.1262 115.938 77.0669 115.291 76.5512C114.43 75.8602 113.193 73.7614 114.567 67.3723C114.563 67.3562 114.563 67.3394 114.567 67.3233C114.709 66.6684 114.868 65.98 115.062 65.2607C115.083 65.168 115.11 65.0768 115.142 64.9873C116.369 60.5556 118.099 56.2787 120.298 52.24C120.778 51.3479 121.245 50.528 121.678 49.8035L121.714 49.7442C122.194 48.9269 122.704 48.1147 123.261 47.2793C123.794 47.4822 124.344 47.6341 124.906 47.7331C124.976 48.4421 125.014 49.36 125.014 50.4971Z" fill="#FFC200"/>
<path d="M166.18 44.7988C165.618 45.6522 163.413 47.5009 155.005 46.2633C146.224 44.9741 138.878 41.5501 135.903 40.003C135.983 39.5311 136.026 39.0534 136.031 38.5747C137.635 38.2214 140.99 37.7032 146.768 37.6542C155.823 37.5536 164.749 40.1629 166.105 42.3545C166.618 43.2028 166.647 44.0923 166.18 44.7988Z" fill="#FFC200"/>
<path d="M135.315 7.60598C135.315 8.53418 135.261 9.59303 135.155 10.7825C135.155 10.8057 135.155 10.8263 135.155 10.8495C135.121 11.2285 135.077 11.623 135.026 12.033C134.99 12.3063 134.961 12.5796 134.918 12.8529C133.935 20.0723 131.499 26.3428 130.019 29.6688C129.947 29.6405 129.874 29.6121 129.802 29.5915C129.73 29.5709 129.617 29.527 129.521 29.4909C129.379 29.4471 129.243 29.4033 129.098 29.3672C128.543 29.2179 127.975 29.1195 127.402 29.0732C126.963 26.2296 126.705 23.361 126.628 20.4848C126.311 11.4374 128.668 2.45446 130.826 1.04668C131.651 0.512968 132.527 0.456246 133.247 0.886829C134.077 1.39734 135.315 2.93661 135.315 7.60598Z" fill="#FFC200"/>
<path d="M118.375 33.8671C118.182 34.2188 118.01 34.5812 117.859 34.9526C116.25 34.9088 112.852 34.5865 106.966 33.0833C98.1995 30.8273 90.235 26.0419 89.495 23.5847C89.2062 22.6359 89.4099 21.7644 90.0493 21.1972C90.4154 20.8671 91.2199 20.4082 92.8442 20.4082C94.5692 20.4082 97.2068 20.9239 101.216 22.641C103.54 23.6457 105.793 24.8078 107.958 26.1192C107.969 26.1212 107.979 26.1266 107.987 26.1347C111.075 28.0003 114.006 30.1129 116.753 32.4516L116.818 32.5032C117.514 33.0833 118.014 33.5577 118.375 33.8671Z" fill="#FFC200"/>
<path d="M152.77 67.2328C152.771 67.3486 152.762 67.4643 152.742 67.5783C152.561 68.5555 151.994 69.2388 151.166 69.4554C150.189 69.7132 147.299 69.6049 141.869 63.0869C136.392 56.5198 133.226 49.2592 132.014 46.191C132.512 45.8444 132.974 45.4497 133.394 45.0127C134.129 45.4562 134.925 45.9899 135.789 46.6061C137.509 47.836 139.427 49.3804 141.482 51.1904C142.8 52.3497 144.055 53.5787 145.241 54.8723L145.262 54.8929C150.089 60.1398 152.77 65.1134 152.77 67.2328Z" fill="#FFC200"/>
<path d="M154.544 13.6168C154.544 15.0323 153.631 17.8117 148.725 22.5198C143.627 27.4186 138.017 30.7705 134.113 32.761C133.538 32.0015 132.85 31.3346 132.074 30.7834C132.375 30.2677 132.713 29.6979 133.079 29.1255L133.244 28.8677C134.258 27.2949 135.48 25.57 136.872 23.7368C138.249 21.9375 139.745 20.2328 141.351 18.6342C141.362 18.6216 141.374 18.6095 141.387 18.5981C146.337 13.6555 150.764 11.1751 152.445 11.3788C153.43 11.4871 154.149 12.0105 154.423 12.8175C154.506 13.0758 154.546 13.3456 154.544 13.6168Z" fill="#FFC200"/>
<path d="M146.059 5.21408C146.059 6.90289 145.448 9.63335 143.222 13.9547C142.498 15.3624 141.675 16.7779 140.817 18.1496C139.193 19.7626 137.682 21.4856 136.294 23.3063C134.907 25.1111 133.693 26.8412 132.685 28.4088L131.473 30.389C131.323 30.2924 131.166 30.2062 131.004 30.1312C130.895 30.0744 130.79 30.0151 130.674 29.9584C132.221 26.4648 134.799 19.7894 135.74 12.1292C135.792 11.7399 135.825 11.3557 135.861 10.9999C138.427 6.19901 141.402 2.59191 143.114 2.20515C143.565 2.09686 144.715 1.96795 145.45 2.92193C145.713 3.2597 146.059 3.95069 146.059 5.21408Z" fill="#FFC200"/>
<path d="M120.567 31.2373C119.98 31.7312 119.454 32.2939 119.002 32.9132C118.439 32.6167 117.844 32.2789 117.261 31.936L117.197 31.8845C114.454 29.5383 111.522 27.4228 108.43 25.5598C108.425 25.5527 108.416 25.5481 108.407 25.5469L108.379 25.5237C102.255 20.2072 98.3825 14.3853 98.6043 12.2504C98.6997 11.2655 99.2153 10.541 100.022 10.2599C100.291 10.1716 100.572 10.128 100.855 10.131C102.286 10.131 105.066 11.0437 109.787 15.8807C115.271 21.4989 118.857 27.8081 120.567 31.2373Z" fill="#FFC200"/>
<path d="M123.392 33.7816C123.77 33.7816 124.076 33.4757 124.076 33.0983C124.076 32.7209 123.77 32.415 123.392 32.415C123.015 32.415 122.709 32.7209 122.709 33.0983C122.709 33.4757 123.015 33.7816 123.392 33.7816Z" fill="#FFC200"/>
<path d="M127.5 32.5595C127.799 32.5595 128.041 32.317 128.041 32.018C128.041 31.719 127.799 31.4766 127.5 31.4766C127.201 31.4766 126.958 31.719 126.958 32.018C126.958 32.317 127.201 32.5595 127.5 32.5595Z" fill="#FFC200"/>
<path d="M129.913 35.4754C130.43 35.4754 130.849 35.0564 130.849 34.5395C130.849 34.0225 130.43 33.6035 129.913 33.6035C129.396 33.6035 128.977 34.0225 128.977 34.5395C128.977 35.0564 129.396 35.4754 129.913 35.4754Z" fill="#FFC200"/>
<path d="M128.975 37.6021C129.094 37.6021 129.191 37.5051 129.191 37.3855C129.191 37.2659 129.094 37.1689 128.975 37.1689C128.855 37.1689 128.758 37.2659 128.758 37.3855C128.758 37.5051 128.855 37.6021 128.975 37.6021Z" fill="#FFC200"/>
<path d="M132.002 37.3861C132.638 37.3861 133.154 36.8701 133.154 36.2336C133.154 35.5971 132.638 35.0811 132.002 35.0811C131.365 35.0811 130.849 35.5971 130.849 36.2336C130.849 36.8701 131.365 37.3861 132.002 37.3861Z" fill="#FFC200"/>
<path d="M131.388 33.2988C131.677 33.2988 131.911 33.0644 131.911 32.7754C131.911 32.4863 131.677 32.252 131.388 32.252C131.099 32.252 130.864 32.4863 130.864 32.7754C130.864 33.0644 131.099 33.2988 131.388 33.2988Z" fill="#FFC200"/>
<path d="M133.623 39.549C133.843 39.549 134.02 39.3712 134.02 39.1519C134.02 38.9327 133.843 38.7549 133.623 38.7549C133.404 38.7549 133.226 38.9327 133.226 39.1519C133.226 39.3712 133.404 39.549 133.623 39.549Z" fill="#FFC200"/>
<path d="M130.163 39.8353C130.54 39.8353 130.846 39.5294 130.846 39.152C130.846 38.7747 130.54 38.4688 130.163 38.4688C129.786 38.4688 129.48 38.7747 129.48 39.152C129.48 39.5294 129.786 39.8353 130.163 39.8353Z" fill="#FFC200"/>
<path d="M132.002 43.2562C132.638 43.2562 133.154 42.7402 133.154 42.1037C133.154 41.4672 132.638 40.9512 132.002 40.9512C131.365 40.9512 130.849 41.4672 130.849 42.1037C130.849 42.7402 131.365 43.2562 132.002 43.2562Z" fill="#FFC200"/>
<path d="M130.163 45.1644C130.54 45.1644 130.846 44.8585 130.846 44.4811C130.846 44.1038 130.54 43.7979 130.163 43.7979C129.786 43.7979 129.48 44.1038 129.48 44.4811C129.48 44.8585 129.786 45.1644 130.163 45.1644Z" fill="#FFC200"/>
<path d="M128.039 45.4379C128.188 45.4379 128.309 45.3167 128.309 45.1672C128.309 45.0177 128.188 44.8965 128.039 44.8965C127.889 44.8965 127.768 45.0177 127.768 45.1672C127.768 45.3167 127.889 45.4379 128.039 45.4379Z" fill="#FFC200"/>
<path d="M126.597 43.0038C127.094 43.0038 127.497 42.6009 127.497 42.1039C127.497 41.607 127.094 41.2041 126.597 41.2041C126.1 41.2041 125.697 41.607 125.697 42.1039C125.697 42.6009 126.1 43.0038 126.597 43.0038Z" fill="#FFC200"/>
<path d="M123.212 44.4818C123.589 44.4818 123.895 44.1758 123.895 43.7985C123.895 43.4211 123.589 43.1152 123.212 43.1152C122.835 43.1152 122.529 43.4211 122.529 43.7985C122.529 44.1758 122.835 44.4818 123.212 44.4818Z" fill="#FFC200"/>
<path d="M125.192 40.1243C126.108 40.1243 126.85 39.3821 126.85 38.4665C126.85 37.5508 126.108 36.8086 125.192 36.8086C124.276 36.8086 123.534 37.5508 123.534 38.4665C123.534 39.3821 124.276 40.1243 125.192 40.1243Z" fill="#FFC200"/>
<path d="M124.509 35.5684C124.778 35.5684 124.996 35.3502 124.996 35.0811C124.996 34.8119 124.778 34.5938 124.509 34.5938C124.24 34.5938 124.022 34.8119 124.022 35.0811C124.022 35.3502 124.24 35.5684 124.509 35.5684Z" fill="#FFC200"/>
<path d="M120.979 36.5579C121.159 36.5579 121.304 36.4125 121.304 36.2331C121.304 36.0537 121.159 35.9082 120.979 35.9082C120.8 35.9082 120.654 36.0537 120.654 36.2331C120.654 36.4125 120.8 36.5579 120.979 36.5579Z" fill="#FFC200"/>
<path d="M120.041 38.8635C120.26 38.8635 120.438 38.6857 120.438 38.4664C120.438 38.2471 120.26 38.0693 120.041 38.0693C119.821 38.0693 119.644 38.2471 119.644 38.4664C119.644 38.6857 119.821 38.8635 120.041 38.8635Z" fill="#FFC200"/>
<path d="M119.177 40.6478C119.366 40.6478 119.52 40.4942 119.52 40.3048C119.52 40.1154 119.366 39.9619 119.177 39.9619C118.987 39.9619 118.834 40.1154 118.834 40.3048C118.834 40.4942 118.987 40.6478 119.177 40.6478Z" fill="#FFC200"/>
<path d="M121.446 42.1044C121.943 42.1044 122.346 41.7015 122.346 41.2045C122.346 40.7076 121.943 40.3047 121.446 40.3047C120.949 40.3047 120.546 40.7076 120.546 41.2045C120.546 41.7015 120.949 42.1044 121.446 42.1044Z" fill="#FFC200"/>
<path d="M36.5797 97.3093C28.9324 101.607 22.734 104.456 17.6676 105.949C14.7257 106.81 12.101 107.218 9.79334 107.218C8.37671 107.229 6.9652 107.046 5.59839 106.674C4.60315 106.403 2.97621 105.452 2.97621 105.452C2.29811 104.91 -1.00732 102.1 0.305057 98.2581C0.445211 97.8492 0.736812 97.5096 1.11981 97.3093C1.46454 97.1746 1.83559 97.1208 2.20437 97.1521C2.57315 97.1834 2.92983 97.2989 3.24694 97.4897C3.24694 97.4897 3.97145 97.8069 3.56407 98.7119C3.24694 99.39 2.53274 104.456 7.09382 105.452C7.98756 105.622 8.89666 105.698 9.80624 105.679C15.7803 105.679 24.0593 102.603 35.8681 95.9969C36.1259 95.8164 41.1614 92.7843 45.9236 90.5231C47.7775 89.6619 49.4534 89.2107 50.8998 89.2107C52.3817 89.1876 53.8184 89.7202 54.9272 90.7036C55.185 90.9279 56.4742 92.1062 56.6908 95.409C56.8274 97.3995 56.5567 99.7922 55.8786 102.512C55.0638 105.864 53.6612 109.752 51.6707 114.094C49.7911 118.127 47.8445 122.252 45.6297 125.769C46.0809 125.993 46.5785 126.174 47.1225 126.401C49.9716 127.669 53.2306 129.025 56.5773 130.291C61.4633 132.05 67.4785 132.782 67.4785 132.782C74.0404 133.684 78.4288 130.021 78.7459 128.755C79.0037 127.803 79.7772 128.077 79.7772 128.077C80.1327 128.134 80.4697 128.274 80.7609 128.486C81.0521 128.698 81.2892 128.976 81.4532 129.296C81.6102 129.735 81.6102 130.216 81.4532 130.655C81.3289 130.955 81.1769 131.242 80.9994 131.514C80.4309 132.377 79.6922 133.116 78.8284 133.684C77.5222 134.549 76.0367 135.107 74.4839 135.314C72.0422 135.678 69.1467 135.494 65.5706 134.682C59.1918 133.28 52.1348 130.248 46.4909 127.803C45.903 127.576 45.3151 127.306 44.7273 127.079C44.1942 127.863 43.6202 128.619 43.0075 129.343C42.0868 130.467 41.0563 131.498 39.9316 132.419C33.7435 137.622 28.0712 135.36 26.9445 134.816C24.8637 133.958 23.7319 132.465 23.5514 130.565C23.4147 128.76 24.5466 126.764 26.5835 125.271C28.3471 123.959 30.6109 123.144 33.099 122.873C35.7474 122.654 38.4126 122.993 40.9216 123.869C44.8562 118.302 48.4324 111.199 50.74 104.82C55.3088 92.3769 52.3669 90.9743 51.645 90.8376C50.2862 90.6133 48.5664 90.9743 46.5759 91.9257C44.1317 93.055 41.6771 94.4576 39.7897 95.4993C39.2483 95.77 36.5797 97.3093 36.5797 97.3093ZM30.8326 133.324C33.7281 132.419 36.9407 129.343 40.0192 125.179C37.8424 124.49 35.5531 124.227 33.2769 124.405C31.6938 124.586 29.43 125.039 27.4859 126.486C25.9028 127.664 24.9978 129.201 25.0881 130.469C25.1783 131.689 25.9466 132.684 27.3493 133.318C28.8421 134.002 30.8326 133.324 30.8326 133.324Z" fill="black"/>
<path d="M68.6594 113.37C67.0299 116.085 61.1487 125.542 57.5287 125.044C57.5287 125.044 53.5916 124.954 56.0797 118.165C57.6628 113.823 60.5609 109.752 61.7804 108.123C61.953 107.902 62.1726 107.722 62.4232 107.597C62.6739 107.472 62.9493 107.404 63.2295 107.398H64.5418C64.6769 107.403 64.8084 107.443 64.9232 107.514C65.0381 107.585 65.1323 107.685 65.1964 107.804C65.2606 107.923 65.2925 108.056 65.2889 108.192C65.2853 108.327 65.2464 108.458 65.1761 108.574C62.8221 112.183 56.0359 122.827 57.7556 123.822C57.7556 123.822 60.7413 124.273 67.5739 113.009C67.6371 112.884 67.7343 112.779 67.8542 112.707C67.9742 112.635 68.1121 112.598 68.2521 112.601C68.3411 112.602 68.4282 112.627 68.5042 112.673C68.5802 112.72 68.6424 112.786 68.6841 112.864C68.7258 112.943 68.7455 113.031 68.7411 113.12C68.7368 113.209 68.7086 113.295 68.6594 113.37ZM63.2759 105.634C63.2759 105.137 63.9978 104.729 64.8229 104.729C65.684 104.729 66.3699 105.137 66.3699 105.634C66.3699 106.132 65.6918 106.539 64.8229 106.539C63.9978 106.539 63.2759 106.132 63.2759 105.634Z" fill="black"/>
<path d="M93.3161 100.079C93.3122 100.257 93.2394 100.428 93.1131 100.554C92.9868 100.68 92.8166 100.753 92.638 100.757H88.5127C85.3929 105.599 81.2752 112.432 78.5138 118.313C77.2015 121.164 76.2965 123.379 77.0674 123.833C77.0674 123.833 80.7776 125.282 88.1053 113.019C88.1693 112.895 88.2671 112.79 88.3874 112.718C88.5077 112.646 88.6458 112.61 88.786 112.612C88.8769 112.611 88.9664 112.634 89.0454 112.679C89.1244 112.724 89.1902 112.789 89.236 112.868C89.2818 112.946 89.3061 113.036 89.3063 113.127C89.3065 113.217 89.2826 113.307 89.2372 113.386C87.4736 116.508 81.6362 125.504 76.8405 125.06C76.8405 125.06 73.5376 125.06 75.3915 118.681C72.8595 122.033 69.5103 125.331 66.5246 125.06C66.5246 125.06 62.9948 125.06 65.2586 118.181C67.1124 112.346 71.0495 105.651 74.2622 100.762H69.7991C66.1352 100.718 64.596 99.1351 65.501 97.9568C66.2255 97.0079 68.0355 98.1398 68.0355 98.1398C70.2064 99.2691 71.9726 99.4058 72.4186 99.4058H75.18C77.3948 96.0539 79.0708 93.8417 79.0708 93.8417C79.2489 93.6162 79.4757 93.4339 79.7342 93.3084C79.9927 93.183 80.2763 93.1176 80.5636 93.1172H81.8296C81.967 93.116 82.1021 93.1524 82.2204 93.2223C82.3387 93.2922 82.4358 93.393 82.501 93.514C82.5662 93.6349 82.5973 93.7713 82.5907 93.9086C82.5842 94.0459 82.5403 94.1788 82.4639 94.2929C82.4639 94.2929 81.0612 96.3298 79.0708 99.4058H85.496C87.7108 96.0539 89.3867 93.8417 89.3867 93.8417C89.5648 93.6162 89.7916 93.4339 90.0501 93.3084C90.3086 93.183 90.5922 93.1176 90.8796 93.1172H92.1455C92.2829 93.116 92.4181 93.1524 92.5364 93.2223C92.6547 93.2922 92.7517 93.393 92.8169 93.514C92.8822 93.6349 92.9132 93.7713 92.9067 93.9086C92.9001 94.0459 92.8563 94.1788 92.7798 94.2929C92.7798 94.2929 91.3772 96.3298 89.3867 99.4058H92.6431C92.7318 99.4048 92.8198 99.4215 92.9019 99.4549C92.984 99.4884 93.0586 99.5379 93.1213 99.6006C93.184 99.6633 93.2335 99.7379 93.267 99.82C93.3004 99.9021 93.3171 99.9901 93.3161 100.079ZM84.5858 100.757H78.2044C75.0846 105.599 70.967 112.432 68.2056 118.313C66.8933 121.164 65.9883 123.379 66.7592 123.833C66.7592 123.833 70.2425 125.189 77.119 114.151C79.1559 109.436 82.0952 104.547 84.5858 100.747V100.757Z" fill="black"/>
<path d="M87.5251 123.822C87.5251 123.822 91.2354 125.271 98.5656 113.009C98.6336 112.888 98.7318 112.787 98.8507 112.715C98.9696 112.644 99.105 112.605 99.2437 112.601C99.3348 112.6 99.4247 112.623 99.5041 112.668C99.5835 112.712 99.6496 112.777 99.6957 112.856C99.7418 112.935 99.7663 113.024 99.7666 113.115C99.7669 113.206 99.7431 113.296 99.6975 113.375C97.9313 116.497 92.1404 125.493 87.2982 125.049C87.2982 125.049 83.8149 125.049 86.0323 118.17C89.4254 107.54 99.8315 93.831 99.8315 93.831C100.013 93.6094 100.241 93.4299 100.498 93.3048C100.756 93.1797 101.038 93.112 101.324 93.1064H102.637C102.771 93.1118 102.901 93.153 103.014 93.2259C103.127 93.2987 103.218 93.4005 103.278 93.5206C103.338 93.6407 103.365 93.7747 103.355 93.9087C103.346 94.0427 103.301 94.1716 103.225 94.2822C103.225 94.2822 93.8601 107.813 88.9742 118.302C87.6618 121.154 86.7568 123.368 87.5251 123.822Z" fill="black"/>
<path d="M113.407 113.37C111.858 115.933 110.15 118.397 108.294 120.747C107.132 122.203 105.722 123.443 104.13 124.411C102.547 125.316 100.6 125.723 98.8363 125.045C96.4849 124.14 95.5335 122.24 95.5335 120.339C95.5335 117.668 97.163 115 97.163 115C99.6047 110.748 104.086 107.218 107.342 107.579C107.668 107.61 107.989 107.686 108.294 107.806C108.698 107.979 109.033 108.281 109.248 108.665C109.565 109.209 109.655 109.887 109.565 110.748C109.231 112.18 108.564 113.513 107.618 114.639C106.587 115.861 104.859 117.127 102.598 116.673C102.598 116.673 101.51 116.449 101.105 115.724C101.06 115.824 100.998 115.915 100.922 115.995C97.0779 122.183 99.7465 123.869 99.7465 123.869C101.149 124.591 102.732 124.05 104.091 123.145C105.367 122.24 106.507 121.158 107.479 119.932C109.24 117.742 110.843 115.428 112.275 113.009C112.338 112.885 112.436 112.78 112.555 112.708C112.675 112.636 112.813 112.599 112.953 112.602C113.043 112.601 113.132 112.624 113.211 112.668C113.289 112.713 113.355 112.777 113.401 112.855C113.447 112.933 113.472 113.022 113.473 113.112C113.474 113.202 113.451 113.291 113.407 113.37ZM102.276 114.144C101.688 115.092 102.5 115.5 102.5 115.5C103.044 115.771 103.813 115.68 104.403 115.5C105.114 115.209 105.76 114.778 106.303 114.234C107.228 113.278 107.911 112.114 108.294 110.841C108.745 109.255 108.02 108.941 108.02 108.941C107.84 108.845 106.528 108.44 102.286 114.141L102.276 114.144Z" fill="black"/>
<path d="M194.676 113.37C193.046 116.085 187.165 125.542 183.499 125.044C183.499 125.044 180.603 124.954 181.418 120.566C181.237 120.79 181.011 121.017 180.83 121.244C179.067 123.278 177.478 124.456 176.125 124.817C175.796 124.876 175.463 124.907 175.129 124.908C175.129 124.908 171.736 125.134 173.002 118.977C174.134 113.277 180.479 107.117 184.677 107.576C185.002 107.607 185.322 107.683 185.626 107.803C186.031 107.991 186.375 108.289 186.621 108.661C186.711 108.888 186.802 109.115 186.892 109.386C187.171 108.948 187.473 108.526 187.797 108.12C187.966 107.896 188.185 107.714 188.436 107.588C188.688 107.462 188.965 107.396 189.246 107.396H190.558C190.693 107.401 190.824 107.441 190.939 107.512C191.053 107.583 191.147 107.684 191.211 107.802C191.275 107.921 191.306 108.055 191.303 108.19C191.299 108.324 191.26 108.456 191.19 108.571C188.792 112.181 182.006 122.824 183.713 123.82C183.713 123.82 186.698 124.271 193.531 113.006C193.604 112.879 193.71 112.775 193.838 112.703C193.965 112.632 194.109 112.595 194.255 112.599C194.343 112.603 194.429 112.63 194.503 112.677C194.578 112.724 194.639 112.789 194.681 112.867C194.723 112.944 194.745 113.031 194.744 113.119C194.743 113.207 194.719 113.293 194.676 113.37ZM182.472 117.17C183.365 115.149 184.408 113.199 185.595 111.335C185.729 110.972 186 109.886 185.639 109.252C185.591 109.121 185.5 109.01 185.381 108.937C185.2 108.847 183.661 108.393 178.321 115.994C178.321 115.994 173.889 122.51 175.697 123.551C175.854 123.615 176.028 123.63 176.194 123.595C177.282 123.188 178.595 122.149 179.997 120.519C180.894 119.457 181.72 118.339 182.472 117.17Z" fill="black"/>
<path d="M203.587 113.37C201.96 116.085 196.076 125.542 192.458 125.044C192.458 125.044 188.521 124.954 191.009 118.165C192.592 113.823 195.488 109.752 196.71 108.123C196.883 107.902 197.102 107.722 197.353 107.597C197.604 107.472 197.879 107.404 198.159 107.398H199.472C199.606 107.403 199.738 107.443 199.852 107.515C199.966 107.586 200.06 107.686 200.124 107.805C200.188 107.924 200.22 108.057 200.216 108.192C200.212 108.327 200.173 108.459 200.103 108.574C197.752 112.183 190.966 122.827 192.683 123.822C192.683 123.822 195.668 124.273 202.501 113.009C202.565 112.884 202.663 112.78 202.783 112.708C202.903 112.636 203.042 112.599 203.182 112.601C203.271 112.603 203.357 112.628 203.433 112.674C203.509 112.721 203.57 112.787 203.612 112.865C203.653 112.944 203.673 113.032 203.668 113.121C203.664 113.21 203.636 113.295 203.587 113.37ZM198.203 105.634C198.203 105.137 198.927 104.729 199.75 104.729C200.609 104.729 201.297 105.137 201.297 105.634C201.297 106.132 200.619 106.539 199.75 106.539C198.927 106.539 198.2 106.132 198.2 105.634H198.203Z" fill="black"/>
<path d="M216.437 113.37C216.12 113.867 215.622 114.682 215.034 115.633C215.034 115.633 213.487 118.302 210.6 118.846C210.391 119.968 209.977 121.041 209.377 122.012C207.794 124.637 204.221 126.083 201.552 124.817C201.552 124.817 198.61 123.595 199.652 120.519C199.652 120.519 200.828 116.448 207.253 117.487C207.361 117.48 207.469 117.496 207.57 117.534C207.343 115.406 205.487 112.635 204.765 111.603C203.813 113.186 203.179 114.138 202.638 114.955C202.591 115.03 202.525 115.091 202.447 115.131C202.369 115.172 202.281 115.191 202.193 115.186C202.105 115.182 202.02 115.153 201.947 115.104C201.874 115.056 201.815 114.988 201.777 114.909C201.706 114.79 201.672 114.653 201.681 114.515C201.689 114.377 201.738 114.245 201.823 114.135C202.547 113.003 203.269 111.872 203.994 110.559C201.235 106.625 203.22 104.588 204.945 104.271C206.846 103.953 207.07 105.493 207.07 105.493C207.343 106.715 206.392 108.749 205.941 109.618L207.297 110.974C208.79 112.521 210.69 114.641 210.736 117.49C212.02 117.2 213.14 116.422 213.859 115.319C214.356 114.594 214.807 113.826 215.352 112.998C215.41 112.87 215.507 112.763 215.628 112.69C215.749 112.617 215.889 112.583 216.03 112.591C216.118 112.597 216.202 112.625 216.276 112.674C216.35 112.722 216.41 112.788 216.451 112.866C216.492 112.944 216.512 113.032 216.51 113.12C216.507 113.208 216.482 113.294 216.437 113.37ZM207.433 118.9C204.718 118.72 202.05 118.629 201.279 120.705C200.828 121.927 202.003 122.51 202.003 122.51C205.76 124.003 207.433 118.9 207.433 118.9ZM205.113 108.54C205.269 108.186 205.405 107.824 205.52 107.455C205.972 105.959 205.113 106.096 205.113 106.096C204.672 106.176 204.131 106.9 205.126 108.53L205.113 108.54Z" fill="black"/>
<path d="M218.337 130.201C215.125 133.811 210.239 137.08 203.316 136.219C203.316 136.219 199.964 135.812 197.615 134.275C195.986 133.187 194.9 131.47 195.668 129.162C197.161 124.547 207.07 126.22 216.481 128.077C218.11 125.949 219.65 123.278 221.052 119.885C218.788 122.737 216.21 125.315 214.266 125.042C214.266 125.042 210.373 124.952 212.863 118.163C214.446 113.821 217.342 109.75 218.564 108.12C218.729 107.892 218.947 107.707 219.199 107.581C219.451 107.455 219.729 107.391 220.011 107.396H221.279C221.418 107.393 221.555 107.427 221.676 107.495C221.797 107.563 221.897 107.662 221.967 107.783C222.036 107.903 222.072 108.04 222.07 108.178C222.068 108.317 222.029 108.453 221.957 108.571C219.559 112.181 212.773 122.825 214.48 123.82C214.48 123.82 217.151 124.227 223.213 114.77C224.436 112.445 225.843 110.221 227.421 108.12C227.586 107.892 227.804 107.707 228.057 107.581C228.309 107.455 228.588 107.391 228.87 107.396H230.136C230.274 107.393 230.412 107.427 230.533 107.495C230.653 107.563 230.754 107.662 230.823 107.783C230.893 107.903 230.928 108.04 230.927 108.178C230.925 108.317 230.886 108.453 230.814 108.571C228.416 112.181 221.63 122.825 223.337 123.82C223.337 123.82 226.322 124.271 233.155 113.006C233.223 112.885 233.321 112.784 233.44 112.713C233.559 112.641 233.694 112.602 233.833 112.599C233.924 112.598 234.013 112.621 234.092 112.666C234.172 112.711 234.237 112.776 234.283 112.855C234.329 112.933 234.353 113.022 234.353 113.113C234.354 113.204 234.33 113.294 234.284 113.372C232.657 116.087 226.774 125.545 223.11 125.047C222.722 125.026 222.346 124.901 222.024 124.683C221.315 126.083 220.483 127.416 219.536 128.667M215.328 129.389C209.808 127.943 197.863 125.679 196.597 129.572C195.872 131.833 198.226 134.277 203.61 134.685C207.343 134.953 211.551 133.597 215.352 129.386L215.328 129.389Z" fill="black"/>
<path d="M152.564 96.6835C152.711 96.7743 152.828 96.9084 152.896 97.0676C152.965 97.2267 152.983 97.4033 152.948 97.573C152.922 97.6942 152.894 97.8102 152.863 97.9263C152.788 98.2305 152.703 98.5296 152.605 98.8209C152.422 99.4088 152.208 99.9735 151.976 100.528C151.516 101.628 150.985 102.698 150.388 103.73C149.23 105.793 148.093 107.889 146.997 109.988C146.453 111.04 145.906 112.092 145.409 113.164C144.911 114.237 144.429 115.315 144.024 116.418C143.607 117.507 143.301 118.635 143.112 119.785C143.016 120.347 142.991 120.919 143.037 121.487C143.067 122.042 143.231 122.582 143.514 123.06L143.473 123.019C143.649 123.18 143.858 123.3 144.086 123.372C144.205 123.407 144.329 123.42 144.452 123.411C144.588 123.398 144.722 123.365 144.847 123.31C144.759 123.433 144.644 123.533 144.509 123.601C144.365 123.672 144.208 123.71 144.047 123.712C143.887 123.712 143.728 123.687 143.576 123.637C143.42 123.585 143.273 123.511 143.137 123.418L143.106 123.382C142.687 122.874 142.398 122.271 142.263 121.626C142.121 121.002 142.049 120.364 142.049 119.724C142.047 118.468 142.171 117.216 142.418 115.985C142.645 114.76 142.934 113.556 143.282 112.375C143.63 111.194 144.017 110.019 144.452 108.869C145.324 106.574 146.338 104.335 147.487 102.165C148.042 101.074 148.698 100.039 149.447 99.071C149.822 98.5784 150.228 98.1091 150.661 97.6658C150.976 97.3425 151.31 97.0377 151.661 96.7531C151.788 96.6508 151.943 96.591 152.106 96.5822C152.268 96.5734 152.429 96.6161 152.566 96.7041L152.564 96.6835Z" fill="black"/>
<path d="M144.352 100.458C144.119 100.928 143.806 101.354 143.426 101.716C143.044 102.083 142.629 102.414 142.186 102.704C141.291 103.275 140.332 103.738 139.329 104.083C138.32 104.435 137.277 104.683 136.217 104.823C135.128 104.974 134.024 104.982 132.932 104.846C132.358 104.774 131.793 104.641 131.246 104.452C130.659 104.252 130.105 103.962 129.606 103.593C129.067 103.192 128.619 102.681 128.294 102.093C127.97 101.504 127.774 100.854 127.719 100.185C127.635 98.9801 127.827 97.7723 128.278 96.6524C128.669 95.602 129.188 94.6042 129.825 93.6822C131.076 91.8989 132.609 90.3314 134.363 89.0411C136.077 87.7761 137.938 86.7225 139.904 85.9033C141.853 85.0931 143.885 84.4982 145.963 84.1294C146.996 83.9471 148.039 83.8223 149.086 83.7555C150.129 83.6834 151.176 83.673 152.221 83.7246C156.395 83.923 160.465 85.0909 164.11 87.1357C165.015 87.6514 165.896 88.2006 166.747 88.7988C167.598 89.397 168.428 90.0312 169.225 90.7068C169.429 90.8718 169.622 91.0471 169.818 91.2224C170.014 91.3978 170.212 91.5602 170.406 91.7381C170.799 92.1091 171.174 92.4998 171.527 92.9087C172.242 93.7391 172.863 94.6462 173.379 95.6133C174.41 97.583 175.024 99.7438 175.184 101.961C175.349 104.159 175.165 106.37 174.637 108.51C174.12 110.62 173.362 112.662 172.376 114.598C171.889 115.56 171.36 116.497 170.787 117.408C170.215 118.319 169.601 119.199 168.944 120.048C167.641 121.752 166.187 123.336 164.599 124.78C163.005 126.227 161.279 127.522 159.443 128.647C157.606 129.779 155.648 130.702 153.605 131.398C151.549 132.107 149.406 132.531 147.234 132.659C146.145 132.719 145.053 132.697 143.968 132.592C142.899 132.483 141.838 132.303 140.794 132.05C138.671 131.56 136.64 130.733 134.778 129.601C132.87 128.439 131.247 126.864 130.029 124.991C128.791 123.069 128.133 120.831 128.134 118.545C128.166 116.244 128.9 114.008 130.238 112.135C131.552 110.324 133.266 108.841 135.248 107.801C137.143 106.752 139.184 105.991 141.304 105.545C143.464 105.09 145.691 105.05 147.866 105.426C150.098 105.806 152.202 106.731 153.99 108.121C155.89 109.604 157.197 111.717 157.677 114.079C157.708 114.232 157.728 114.389 157.749 114.543L157.795 114.979C157.812 115.127 157.82 115.276 157.821 115.425C157.821 115.575 157.836 115.722 157.821 115.877C157.816 116.51 157.718 117.139 157.53 117.743C157.33 118.394 157.008 119 156.581 119.53C156.472 119.666 156.355 119.796 156.233 119.919C156.112 120.044 155.985 120.161 155.851 120.27C155.721 120.381 155.583 120.484 155.439 120.577C155.298 120.671 155.153 120.757 155.003 120.835C154.434 121.14 153.815 121.343 153.175 121.433C151.457 121.662 149.717 121.216 148.32 120.19L147.969 119.932C148.112 119.959 148.257 119.973 148.402 119.973C149.389 119.973 150.372 119.868 151.336 119.659C152.145 119.485 152.899 119.113 153.528 118.576C154.019 118.099 154.361 117.49 154.513 116.823C154.616 116.449 154.693 116.068 154.742 115.683C154.763 115.474 154.791 115.268 154.799 115.049L154.815 114.721C154.815 114.621 154.815 114.523 154.815 114.425C154.792 113.596 154.544 112.789 154.095 112.092C153.63 111.347 153.042 110.685 152.357 110.135C150.914 109.003 149.214 108.243 147.407 107.922C145.552 107.588 143.65 107.609 141.802 107.984C139.92 108.368 138.105 109.029 136.418 109.946C134.76 110.789 133.322 112.011 132.223 113.512C131.167 114.982 130.587 116.74 130.56 118.55C130.555 120.37 131.086 122.151 132.087 123.671C133.12 125.222 134.487 126.521 136.088 127.474C137.728 128.451 139.515 129.159 141.379 129.57C142.313 129.779 143.261 129.924 144.215 130.006C145.159 130.082 146.108 130.078 147.051 129.993C148.956 129.812 150.825 129.356 152.6 128.639C154.388 127.919 156.09 127.001 157.674 125.904C159.269 124.805 160.761 123.564 162.132 122.196C163.511 120.836 164.781 119.37 165.932 117.813C168.239 114.729 170.005 111.277 171.156 107.603C171.721 105.8 172.067 103.936 172.188 102.051C172.298 100.173 172.043 98.2918 171.437 96.5106C170.962 95.1559 170.245 93.8988 169.32 92.8004C169.171 92.6147 168.996 92.4291 168.831 92.2434C168.665 92.0578 168.495 91.8747 168.315 91.6968C166.936 90.2467 165.367 88.99 163.651 87.9608C160.193 85.8972 156.229 84.8382 152.203 84.9029C151.208 84.9187 150.214 84.9927 149.227 85.1246C148.244 85.2638 147.27 85.4592 146.309 85.7099C144.396 86.2126 142.543 86.9188 140.781 87.8164C139.038 88.6951 137.396 89.7592 135.882 90.9904C134.378 92.1769 133.05 93.5701 131.937 95.1286C131.411 95.8836 130.971 96.6947 130.625 97.5471C130.286 98.3177 130.111 99.1498 130.109 99.9913C130.116 100.343 130.198 100.69 130.35 101.008C130.501 101.326 130.719 101.608 130.988 101.835C131.653 102.361 132.435 102.72 133.267 102.882C134.196 103.088 135.145 103.186 136.096 103.173C137.073 103.166 138.048 103.073 139.009 102.897C139.985 102.73 140.94 102.462 141.858 102.095C142.321 101.915 142.767 101.692 143.189 101.43C143.403 101.3 143.609 101.156 143.805 100.999C144.002 100.834 144.184 100.653 144.352 100.458Z" fill="black"/>
<path d="M218.27 128.52C221.313 129.208 224.773 129.905 228.305 130.495C233.441 131.269 239.485 130.812 239.485 130.812C246.096 130.423 249.685 125.973 249.749 124.668C249.832 123.683 250.639 123.799 250.639 123.799C250.999 123.787 251.356 123.859 251.683 124.011C252.01 124.163 252.296 124.39 252.518 124.673C252.756 125.073 252.847 125.544 252.776 126.004C252.712 126.322 252.619 126.633 252.498 126.934C252.108 127.893 251.528 128.761 250.791 129.487C249.678 130.589 248.33 131.425 246.849 131.931C244.528 132.761 241.648 133.148 237.982 133.048C231.451 132.914 223.937 131.315 217.914 130.021" fill="black"/>
<path d="M75.5977 150.614H74.3318L69.2344 142.879V150.614H67.9659V140.894H69.2344L74.3318 148.608V140.899H75.5977V150.614Z" fill="black"/>
<path d="M84.8875 148.461H80.6539L79.8804 150.619H78.5448L82.0539 140.969H83.5158L87.0043 150.614H85.6662L84.8875 148.461ZM84.5239 147.43L82.7707 142.531L81.0148 147.43H84.5239Z" fill="black"/>
<path d="M91.1993 140.912V150.614H89.9333V140.912H91.1993Z" fill="black"/>
<path d="M96.013 149.583H99.4113V150.614H94.7471V140.912H96.013V149.583Z" fill="black"/>
<path d="M121.853 150.615L120.585 149.325C120.156 149.786 119.641 150.157 119.069 150.419C118.492 150.663 117.87 150.785 117.243 150.774C116.631 150.787 116.024 150.662 115.467 150.411C114.977 150.19 114.561 149.832 114.27 149.38C113.982 148.916 113.835 148.378 113.845 147.833C113.834 147.189 114.037 146.559 114.422 146.043C114.866 145.485 115.457 145.063 116.129 144.824C115.871 144.531 115.656 144.202 115.49 143.849C115.357 143.542 115.29 143.209 115.294 142.874C115.288 142.482 115.397 142.097 115.606 141.766C115.826 141.428 116.138 141.159 116.506 140.992C116.929 140.799 117.391 140.704 117.857 140.714C118.31 140.702 118.759 140.802 119.164 141.005C119.519 141.186 119.812 141.47 120.002 141.82C120.192 142.177 120.281 142.579 120.26 142.983H118.991C119.005 142.819 118.983 142.654 118.928 142.5C118.873 142.345 118.786 142.204 118.671 142.085C118.557 141.975 118.422 141.89 118.273 141.833C118.125 141.777 117.966 141.751 117.808 141.758C117.48 141.742 117.158 141.854 116.91 142.07C116.798 142.171 116.709 142.294 116.65 142.433C116.591 142.571 116.563 142.721 116.568 142.872C116.569 143.157 116.649 143.436 116.8 143.679C117.022 144.026 117.281 144.349 117.573 144.641L120.471 147.552L120.729 147.16L121.675 145.574H123.042L121.881 147.557C121.722 147.835 121.536 148.127 121.325 148.433L123.511 150.62L121.853 150.615ZM118.602 149.403C119.04 149.179 119.43 148.872 119.749 148.498L116.895 145.628C115.706 146.085 115.112 146.805 115.113 147.786C115.107 148.043 115.157 148.298 115.259 148.534C115.36 148.77 115.512 148.981 115.704 149.153C116.13 149.526 116.684 149.721 117.251 149.694C117.717 149.703 118.179 149.605 118.602 149.408V149.403Z" fill="black"/>
<path d="M132.466 149.583H135.861V150.614H131.197V140.912H132.466V149.583Z" fill="black"/>
<path d="M144.344 148.461H140.11L139.337 150.619H138.001L141.51 140.969H142.972L146.461 150.614H145.123L144.344 148.461ZM143.98 147.43L142.227 142.531L140.471 147.43H143.98Z" fill="black"/>
<path d="M150.743 150.375C150.268 150.174 149.856 149.846 149.552 149.428C149.262 149.019 149.106 148.53 149.106 148.028H150.457C150.496 148.468 150.697 148.878 151.022 149.178C151.424 149.514 151.94 149.682 152.463 149.645C152.978 149.674 153.485 149.512 153.889 149.191C154.057 149.048 154.19 148.87 154.279 148.668C154.368 148.467 154.411 148.248 154.405 148.028C154.419 147.699 154.309 147.376 154.098 147.123C153.887 146.887 153.621 146.706 153.324 146.595C152.918 146.442 152.504 146.312 152.084 146.205C151.557 146.076 151.04 145.908 150.537 145.703C150.146 145.53 149.805 145.259 149.55 144.916C149.257 144.494 149.113 143.988 149.14 143.475C149.131 142.977 149.271 142.488 149.542 142.07C149.822 141.652 150.216 141.323 150.676 141.121C151.205 140.891 151.778 140.777 152.355 140.788C153.156 140.754 153.944 140.994 154.59 141.469C154.871 141.684 155.104 141.956 155.273 142.267C155.442 142.578 155.544 142.921 155.573 143.274H154.18C154.122 142.883 153.911 142.531 153.595 142.294C153.206 141.994 152.722 141.843 152.231 141.869C151.767 141.85 151.31 141.995 150.942 142.279C150.775 142.419 150.644 142.595 150.557 142.795C150.47 142.994 150.431 143.211 150.442 143.429C150.433 143.748 150.546 144.059 150.759 144.297C150.961 144.525 151.213 144.701 151.496 144.813C151.79 144.928 152.201 145.061 152.729 145.21C153.256 145.346 153.773 145.518 154.276 145.726C154.671 145.903 155.016 146.176 155.279 146.52C155.577 146.945 155.724 147.458 155.696 147.977C155.696 148.448 155.566 148.91 155.32 149.312C155.051 149.748 154.665 150.1 154.206 150.328C153.667 150.6 153.069 150.735 152.466 150.72C151.874 150.73 151.286 150.612 150.743 150.375Z" fill="black"/>
<path d="M102.356 150.375C101.881 150.172 101.469 149.845 101.165 149.428C100.875 149.019 100.719 148.53 100.719 148.028H102.07C102.108 148.468 102.31 148.878 102.634 149.178C103.037 149.514 103.553 149.681 104.076 149.645C104.591 149.674 105.099 149.512 105.504 149.191C105.672 149.048 105.805 148.87 105.894 148.668C105.984 148.467 106.026 148.248 106.02 148.028C106.034 147.699 105.924 147.376 105.713 147.123C105.502 146.887 105.236 146.706 104.939 146.595C104.534 146.443 104.121 146.313 103.702 146.205C103.174 146.077 102.657 145.909 102.155 145.703C101.762 145.531 101.421 145.26 101.165 144.916C100.872 144.494 100.728 143.987 100.755 143.475C100.745 142.976 100.886 142.487 101.159 142.07C101.439 141.651 101.833 141.322 102.294 141.121C102.823 140.891 103.395 140.777 103.972 140.788C104.772 140.755 105.56 140.995 106.205 141.469C106.486 141.684 106.719 141.956 106.888 142.267C107.057 142.578 107.159 142.921 107.188 143.274H105.795C105.737 142.883 105.526 142.531 105.21 142.294C104.821 141.994 104.337 141.843 103.846 141.869C103.381 141.849 102.925 141.994 102.557 142.279C102.387 142.417 102.252 142.593 102.163 142.792C102.073 142.992 102.031 143.21 102.041 143.428C102.029 143.744 102.135 144.052 102.34 144.292C102.543 144.52 102.797 144.696 103.08 144.808C103.371 144.923 103.782 145.055 104.313 145.205C104.84 145.341 105.357 145.513 105.86 145.721C106.255 145.898 106.599 146.171 106.863 146.515C107.161 146.94 107.308 147.453 107.28 147.972C107.28 148.443 107.15 148.905 106.904 149.307C106.635 149.743 106.249 150.095 105.79 150.323C105.251 150.595 104.653 150.729 104.05 150.715C103.467 150.722 102.89 150.606 102.356 150.375Z" fill="black"/>
<path d="M166.43 140.912V150.614H165.162V146.231H160.219V150.614H158.953V140.912H160.219V145.174H165.162V140.912H166.43Z" fill="black"/>
<path d="M171.249 141.943V145.199H174.786V146.231H171.249V149.583H175.204V150.614H169.98V140.894H175.204V141.925L171.249 141.943Z" fill="black"/>
<path d="M179.876 150.375C179.4 150.174 178.988 149.846 178.685 149.428C178.395 149.019 178.24 148.53 178.239 148.028H179.59C179.629 148.468 179.83 148.878 180.155 149.178C180.557 149.514 181.073 149.682 181.596 149.645C182.111 149.674 182.618 149.512 183.022 149.191C183.189 149.048 183.323 148.87 183.412 148.668C183.501 148.467 183.544 148.248 183.537 148.028C183.551 147.699 183.442 147.376 183.231 147.123C183.019 146.887 182.754 146.706 182.457 146.595C182.051 146.442 181.637 146.312 181.217 146.205C180.689 146.076 180.172 145.908 179.67 145.703C179.278 145.53 178.938 145.259 178.682 144.916C178.39 144.494 178.246 143.988 178.272 143.475C178.263 142.977 178.403 142.488 178.675 142.07C178.955 141.652 179.348 141.323 179.809 141.121C180.338 140.891 180.911 140.777 181.488 140.788C182.288 140.754 183.077 140.994 183.723 141.469C184.004 141.684 184.236 141.956 184.406 142.267C184.575 142.578 184.677 142.921 184.705 143.274H183.313C183.254 142.883 183.044 142.531 182.728 142.294C182.338 141.994 181.855 141.843 181.364 141.869C180.899 141.85 180.443 141.995 180.075 142.279C179.908 142.419 179.776 142.595 179.689 142.795C179.603 142.994 179.563 143.211 179.574 143.429C179.562 143.744 179.669 144.052 179.874 144.292C180.075 144.52 180.328 144.696 180.611 144.808C180.905 144.923 181.316 145.056 181.843 145.205C182.371 145.34 182.887 145.513 183.39 145.721C183.785 145.898 184.13 146.171 184.393 146.515C184.692 146.94 184.839 147.453 184.811 147.972C184.811 148.443 184.681 148.905 184.435 149.307C184.166 149.743 183.78 150.095 183.321 150.323C182.782 150.595 182.184 150.729 181.58 150.715C180.995 150.724 180.414 150.608 179.876 150.375Z" fill="black"/>
</svg>
