<svg width="260" height="68" viewBox="0 0 260 68" fill="none" xmlns="http://www.w3.org/2000/svg">
<path d="M235.46 21.4159C235.425 21.6394 235.404 21.8653 235.4 22.0917C234.629 22.3486 232.986 22.8008 230.118 23.1516C225.642 23.704 221.08 22.9267 220.285 21.9131C219.981 21.5276 219.916 21.0857 220.11 20.7067C220.325 20.284 221.209 19.3423 224.823 19.3423C225.055 19.3423 225.302 19.3423 225.556 19.3526C230.007 19.4965 233.875 20.7992 235.46 21.4159Z" fill="#FFC200"/>
<path d="M236.887 25.5913C236.775 25.82 236.63 26.0963 236.46 26.4149C235.773 27.6368 235.01 28.8146 234.176 29.9415C233.283 31.1615 232.282 32.2988 231.186 33.3397C230.929 33.5825 230.672 33.8163 230.415 34.0373C230.405 34.045 230.397 34.0553 230.387 34.063C228.768 35.4698 227.275 36.337 226.555 36.2753C226.064 36.2329 225.699 35.9824 225.556 35.5841C225.38 35.1088 225.299 33.6763 228.277 30.6751C231.321 27.6213 234.819 25.6941 236.316 24.949C236.472 25.1579 236.644 25.3542 236.83 25.5361C236.854 25.5618 236.872 25.5759 236.887 25.5913Z" fill="#FFC200"/>
<path d="M244.6 40.9775C244.292 41.363 243.879 41.5325 243.464 41.4362C242.97 41.318 241.727 40.5985 240.864 36.4629C240.034 32.4918 240.253 28.7853 240.471 26.8401C240.803 26.8159 241.131 26.7547 241.449 26.6577C241.914 27.453 242.623 28.8534 243.479 31.1299C245.069 35.3555 245.392 39.9716 244.6 40.9775Z" fill="#FFC200"/>
<path d="M256.642 32.6236C256.219 32.9062 254.843 33.325 251.232 31.1333C250.673 30.7967 250.136 30.4421 249.631 30.0811C249.034 29.434 248.404 28.8182 247.744 28.2362C246.716 27.3368 245.749 26.5531 244.887 25.93C244.887 25.93 244.887 25.93 244.879 25.93C244.528 25.5446 244.198 25.1849 243.933 24.8701C244.122 24.6023 244.282 24.3151 244.41 24.0132C245.33 24.2213 246.859 24.662 249.118 25.5896C253.29 27.3047 256.886 30.2147 257.084 31.4904C257.155 31.9748 256.997 32.391 256.642 32.6236Z" fill="#FFC200"/>
<path d="M258.726 17.0683C258.687 17.3188 258.507 17.7659 257.827 18.2965C257.146 18.8271 255.975 19.4387 253.938 20.0155C250.177 21.0793 246.564 21.15 244.659 21.0857C244.573 20.7139 244.44 20.3544 244.265 20.0155C245.028 19.5145 246.342 18.7411 248.44 17.7736C252.544 15.894 257.128 15.253 258.188 15.975C258.601 16.2525 258.794 16.6533 258.726 17.0683Z" fill="#FFC200"/>
<path d="M238.706 17.6798C238.527 17.7329 238.353 17.7977 238.183 17.8738C237.65 17.2751 236.604 15.9299 235.117 13.2114C232.954 9.24667 231.994 4.7205 232.643 3.61433C232.872 3.21991 233.22 3.0015 233.603 3.0015C233.633 2.9995 233.664 2.9995 233.695 3.0015C234.209 3.04904 235.532 3.58607 236.965 7.56365C238.552 11.9729 238.702 16.2691 238.706 17.6798Z" fill="#FFC200"/>
<path d="M237.62 26.1526C237.556 26.5933 237.456 27.102 237.319 27.657C236.278 29.4146 234.859 32.1794 234 35.4208C233.903 35.7818 233.821 36.1261 233.749 36.4486C232.629 38.2382 231.471 39.496 230.794 39.6502C230.342 39.7568 229.949 39.6386 229.709 39.3341C229.422 38.9731 228.949 37.7552 230.682 34.2966C232.09 33.0578 233.357 31.6683 234.461 30.1533C235.947 28.108 236.745 26.7012 237.159 25.834C237.306 25.9497 237.46 26.0561 237.62 26.1526Z" fill="#FFC200"/>
<path d="M239.299 28.1625C239.29 29.4204 239.214 30.677 239.071 31.9268C238.598 36.4105 236.815 40.6823 235.651 41.2309C235.214 41.4313 234.777 41.4018 234.455 41.1448C234.025 40.8005 233.409 39.7547 234.093 36.5711C234.092 36.5631 234.092 36.5548 234.093 36.5467C234.164 36.2204 234.244 35.8774 234.34 35.5189C234.351 35.4728 234.364 35.4273 234.38 35.3827C234.992 33.1745 235.854 31.0434 236.949 29.0309C237.188 28.5864 237.421 28.1779 237.637 27.8169L237.655 27.7873C237.894 27.38 238.148 26.9753 238.426 26.5591C238.691 26.6602 238.966 26.7359 239.245 26.7852C239.28 27.1385 239.299 27.5959 239.299 28.1625Z" fill="#FFC200"/>
<path d="M259.812 25.3227C259.532 25.7479 258.433 26.6691 254.244 26.0524C249.868 25.41 246.207 23.7039 244.725 22.933C244.765 22.6979 244.787 22.4599 244.789 22.2213C245.588 22.0453 247.26 21.787 250.139 21.7626C254.651 21.7125 259.099 23.0127 259.774 24.1047C260.03 24.5274 260.044 24.9706 259.812 25.3227Z" fill="#FFC200"/>
<path d="M244.432 6.79C244.432 7.25251 244.405 7.78012 244.352 8.37282C244.352 8.38438 244.352 8.39465 244.352 8.40622C244.335 8.59507 244.314 8.79164 244.288 8.99592C244.27 9.1321 244.256 9.26829 244.234 9.40447C243.744 13.0018 242.53 16.1263 241.793 17.7836C241.757 17.7695 241.721 17.7553 241.685 17.7451C241.649 17.7348 241.593 17.7129 241.545 17.695C241.474 17.6731 241.406 17.6513 241.334 17.6333C241.058 17.5589 240.775 17.5099 240.489 17.4868C240.27 16.0699 240.142 14.6405 240.103 13.2073C239.945 8.69914 241.12 4.22307 242.195 3.5216C242.606 3.25566 243.043 3.22739 243.401 3.44195C243.815 3.69633 244.432 4.46332 244.432 6.79Z" fill="#FFC200"/>
<path d="M235.991 19.8756C235.895 20.0508 235.809 20.2314 235.734 20.4165C234.932 20.3946 233.239 20.234 230.306 19.485C225.938 18.3609 221.969 15.9764 221.601 14.752C221.457 14.2792 221.558 13.845 221.877 13.5623C222.059 13.3979 222.46 13.1692 223.27 13.1692C224.129 13.1692 225.443 13.4261 227.441 14.2818C228.599 14.7824 229.722 15.3614 230.801 16.0149C230.806 16.0159 230.811 16.0186 230.815 16.0226C232.353 16.9522 233.814 18.0049 235.183 19.1703L235.215 19.1959C235.562 19.485 235.811 19.7214 235.991 19.8756Z" fill="#FFC200"/>
<path d="M253.13 36.5014C253.13 36.5591 253.126 36.6168 253.115 36.6736C253.026 37.1605 252.743 37.5009 252.33 37.6089C251.844 37.7373 250.403 37.6834 247.698 34.4355C244.969 31.1633 243.391 27.5454 242.787 26.0166C243.035 25.8439 243.265 25.6472 243.475 25.4294C243.841 25.6504 244.238 25.9164 244.668 26.2234C245.525 26.8362 246.481 27.6058 247.505 28.5077C248.162 29.0854 248.787 29.6978 249.378 30.3423L249.388 30.3526C251.793 32.9671 253.13 35.4453 253.13 36.5014Z" fill="#FFC200"/>
<path d="M254.013 9.78501C254.013 10.4903 253.559 11.8753 251.114 14.2212C248.574 16.6623 245.778 18.3324 243.833 19.3243C243.547 18.9458 243.204 18.6135 242.817 18.3389C242.967 18.0819 243.136 17.798 243.318 17.5128L243.4 17.3843C243.905 16.6006 244.514 15.7411 245.208 14.8276C245.894 13.9311 246.639 13.0817 247.439 12.2851C247.445 12.2788 247.451 12.2728 247.457 12.2671C249.924 9.80428 252.13 8.56835 252.968 8.66985C253.458 8.7238 253.817 8.98461 253.953 9.38673C253.994 9.51542 254.015 9.64988 254.013 9.78501Z" fill="#FFC200"/>
<path d="M249.785 5.59809C249.785 6.4396 249.481 7.80015 248.372 9.95339C248.011 10.6549 247.601 11.3602 247.173 12.0437C246.364 12.8474 245.611 13.7059 244.92 14.6132C244.229 15.5125 243.624 16.3746 243.121 17.1557L242.518 18.1424C242.443 18.0942 242.365 18.0513 242.284 18.0139C242.23 17.9856 242.177 17.9561 242.119 17.9278C242.89 16.187 244.175 12.8608 244.644 9.04379C244.669 8.84979 244.686 8.65836 244.704 8.48107C245.983 6.08887 247.465 4.2915 248.318 4.09879C248.543 4.04483 249.116 3.98059 249.482 4.45595C249.613 4.62425 249.785 4.96856 249.785 5.59809Z" fill="#FFC200"/>
<path d="M237.083 18.5649C236.791 18.811 236.529 19.0914 236.303 19.4C236.023 19.2522 235.726 19.0839 235.436 18.913L235.404 18.8873C234.037 17.7183 232.576 16.6642 231.036 15.7359C231.033 15.7323 231.029 15.73 231.024 15.7294L231.01 15.7179C227.959 13.0687 226.029 10.1678 226.14 9.10398C226.187 8.61321 226.444 8.2522 226.846 8.11216C226.98 8.06813 227.12 8.04643 227.261 8.04792C227.974 8.04792 229.359 8.50272 231.711 10.9129C234.444 13.7124 236.231 16.8562 237.083 18.5649Z" fill="#FFC200"/>
<path d="M238.491 19.833C238.679 19.833 238.832 19.6806 238.832 19.4926C238.832 19.3045 238.679 19.1521 238.491 19.1521C238.303 19.1521 238.151 19.3045 238.151 19.4926C238.151 19.6806 238.303 19.833 238.491 19.833Z" fill="#FFC200"/>
<path d="M240.538 19.2239C240.687 19.2239 240.807 19.1031 240.807 18.9541C240.807 18.8051 240.687 18.6843 240.538 18.6843C240.389 18.6843 240.268 18.8051 240.268 18.9541C240.268 19.1031 240.389 19.2239 240.538 19.2239Z" fill="#FFC200"/>
<path d="M241.74 20.6774C241.998 20.6774 242.207 20.4686 242.207 20.211C242.207 19.9534 241.998 19.7446 241.74 19.7446C241.483 19.7446 241.274 19.9534 241.274 20.211C241.274 20.4686 241.483 20.6774 241.74 20.6774Z" fill="#FFC200"/>
<path d="M241.273 21.7371C241.332 21.7371 241.381 21.6888 241.381 21.6292C241.381 21.5696 241.332 21.5212 241.273 21.5212C241.213 21.5212 241.165 21.5696 241.165 21.6292C241.165 21.6888 241.213 21.7371 241.273 21.7371Z" fill="#FFC200"/>
<path d="M242.781 21.629C243.098 21.629 243.355 21.3719 243.355 21.0548C243.355 20.7376 243.098 20.4805 242.781 20.4805C242.464 20.4805 242.206 20.7376 242.206 21.0548C242.206 21.3719 242.464 21.629 242.781 21.629Z" fill="#FFC200"/>
<path d="M242.475 19.5929C242.619 19.5929 242.736 19.4761 242.736 19.3321C242.736 19.1881 242.619 19.0713 242.475 19.0713C242.331 19.0713 242.214 19.1881 242.214 19.3321C242.214 19.4761 242.331 19.5929 242.475 19.5929Z" fill="#FFC200"/>
<path d="M243.589 22.7067C243.698 22.7067 243.787 22.6182 243.787 22.5089C243.787 22.3996 243.698 22.311 243.589 22.311C243.48 22.311 243.391 22.3996 243.391 22.5089C243.391 22.6182 243.48 22.7067 243.589 22.7067Z" fill="#FFC200"/>
<path d="M241.865 22.8496C242.053 22.8496 242.205 22.6972 242.205 22.5092C242.205 22.3211 242.053 22.1687 241.865 22.1687C241.677 22.1687 241.524 22.3211 241.524 22.5092C241.524 22.6972 241.677 22.8496 241.865 22.8496Z" fill="#FFC200"/>
<path d="M242.781 24.5546C243.098 24.5546 243.355 24.2975 243.355 23.9803C243.355 23.6631 243.098 23.406 242.781 23.406C242.464 23.406 242.206 23.6631 242.206 23.9803C242.206 24.2975 242.464 24.5546 242.781 24.5546Z" fill="#FFC200"/>
<path d="M241.865 25.5049C242.053 25.5049 242.205 25.3525 242.205 25.1644C242.205 24.9764 242.053 24.824 241.865 24.824C241.677 24.824 241.524 24.9764 241.524 25.1644C241.524 25.3525 241.677 25.5049 241.865 25.5049Z" fill="#FFC200"/>
<path d="M240.806 25.6414C240.881 25.6414 240.941 25.581 240.941 25.5065C240.941 25.432 240.881 25.3716 240.806 25.3716C240.732 25.3716 240.671 25.432 240.671 25.5065C240.671 25.581 240.732 25.6414 240.806 25.6414Z" fill="#FFC200"/>
<path d="M240.088 24.4282C240.336 24.4282 240.536 24.2275 240.536 23.9799C240.536 23.7322 240.336 23.5315 240.088 23.5315C239.84 23.5315 239.64 23.7322 239.64 23.9799C239.64 24.2275 239.84 24.4282 240.088 24.4282Z" fill="#FFC200"/>
<path d="M238.401 25.1646C238.589 25.1646 238.741 25.0121 238.741 24.8241C238.741 24.6361 238.589 24.4836 238.401 24.4836C238.213 24.4836 238.061 24.6361 238.061 24.8241C238.061 25.0121 238.213 25.1646 238.401 25.1646Z" fill="#FFC200"/>
<path d="M239.388 22.9933C239.844 22.9933 240.214 22.6234 240.214 22.1672C240.214 21.7109 239.844 21.3411 239.388 21.3411C238.932 21.3411 238.562 21.7109 238.562 22.1672C238.562 22.6234 238.932 22.9933 239.388 22.9933Z" fill="#FFC200"/>
<path d="M239.047 20.7234C239.181 20.7234 239.29 20.6147 239.29 20.4806C239.29 20.3465 239.181 20.2378 239.047 20.2378C238.913 20.2378 238.804 20.3465 238.804 20.4806C238.804 20.6147 238.913 20.7234 239.047 20.7234Z" fill="#FFC200"/>
<path d="M237.288 21.2168C237.378 21.2168 237.45 21.1443 237.45 21.0549C237.45 20.9655 237.378 20.8931 237.288 20.8931C237.199 20.8931 237.127 20.9655 237.127 21.0549C237.127 21.1443 237.199 21.2168 237.288 21.2168Z" fill="#FFC200"/>
<path d="M236.821 22.3654C236.93 22.3654 237.019 22.2768 237.019 22.1676C237.019 22.0583 236.93 21.9697 236.821 21.9697C236.712 21.9697 236.623 22.0583 236.623 22.1676C236.623 22.2768 236.712 22.3654 236.821 22.3654Z" fill="#FFC200"/>
<path d="M236.39 23.2546C236.485 23.2546 236.561 23.1781 236.561 23.0837C236.561 22.9893 236.485 22.9128 236.39 22.9128C236.296 22.9128 236.22 22.9893 236.22 23.0837C236.22 23.1781 236.296 23.2546 236.39 23.2546Z" fill="#FFC200"/>
<path d="M237.521 23.9803C237.769 23.9803 237.97 23.7795 237.97 23.5319C237.97 23.2842 237.769 23.0835 237.521 23.0835C237.274 23.0835 237.073 23.2842 237.073 23.5319C237.073 23.7795 237.274 23.9803 237.521 23.9803Z" fill="#FFC200"/>
<path d="M36.5797 14.3095C28.9324 18.6076 22.734 21.4567 17.6676 22.9495C14.7257 23.8107 12.101 24.2181 9.79334 24.2181C8.37671 24.2297 6.9652 24.0466 5.59839 23.674C4.60315 23.4033 2.97621 22.4519 2.97621 22.4519C2.29811 21.9105 -1.00732 19.1001 0.305057 15.2583C0.445211 14.8494 0.736812 14.5099 1.11981 14.3095C1.46454 14.1748 1.83559 14.121 2.20437 14.1523C2.57315 14.1836 2.92983 14.2991 3.24694 14.49C3.24694 14.49 3.97145 14.8071 3.56407 15.7121C3.24694 16.3902 2.53274 21.4567 7.09382 22.4519C7.98756 22.622 8.89666 22.698 9.80624 22.6788C15.7803 22.6788 24.0593 19.6028 35.8681 12.9971C36.1259 12.8166 41.1614 9.78451 45.9236 7.52331C47.7775 6.66214 49.4534 6.21093 50.8998 6.21093C52.3817 6.18782 53.8184 6.72042 54.9272 7.7038C55.185 7.92811 56.4742 9.10641 56.6908 12.4093C56.8274 14.3997 56.5567 16.7924 55.8786 19.5126C55.0638 22.8644 53.6612 26.7526 51.6707 31.0945C49.7911 35.127 47.8445 39.2524 45.6297 42.7692C46.0809 42.9935 46.5785 43.174 47.1225 43.4009C49.9716 44.6695 53.2306 46.0257 56.5773 47.2916C61.4633 49.0501 67.4785 49.7823 67.4785 49.7823C74.0404 50.6847 78.4288 47.0209 78.7459 45.7549C79.0037 44.8035 79.7772 45.0768 79.7772 45.0768C80.1327 45.1342 80.4697 45.2745 80.7609 45.4864C81.0521 45.6982 81.2892 45.9757 81.4532 46.2964C81.6102 46.7357 81.6102 47.2159 81.4532 47.6552C81.3289 47.9548 81.1769 48.2423 80.9994 48.5138C80.4309 49.3775 79.6922 50.1163 78.8284 50.6847C77.5222 51.5496 76.0367 52.1068 74.4839 52.3142C72.0422 52.6778 69.1467 52.4947 65.5706 51.6825C59.1918 50.2799 52.1348 47.2478 46.4909 44.8035C45.903 44.5766 45.3151 44.3059 44.7273 44.079C44.1942 44.8633 43.6202 45.619 43.0075 46.3428C42.0868 47.4676 41.0563 48.498 39.9316 49.4188C33.7435 54.6218 28.0712 52.3606 26.9445 51.8166C24.8637 50.958 23.7319 49.4652 23.5514 47.5649C23.4147 45.7601 24.5466 43.7645 26.5835 42.2716C28.3471 40.9592 30.6109 40.1445 33.099 39.8737C35.7474 39.6539 38.4126 39.993 40.9216 40.869C44.8562 35.3023 48.4324 28.199 50.74 21.8202C55.3088 9.37714 52.3669 7.97451 51.645 7.83786C50.2862 7.61354 48.5664 7.97452 46.5759 8.92593C44.1317 10.0552 41.6771 11.4579 39.7897 12.4995C39.2483 12.7702 36.5797 14.3095 36.5797 14.3095ZM30.8326 50.3238C33.7281 49.4188 36.9407 46.3428 40.0192 42.1788C37.8424 41.4901 35.5531 41.2274 33.2769 41.4053C31.6938 41.5858 29.43 42.0395 27.4859 43.486C25.9028 44.6643 24.9978 46.201 25.0881 47.4695C25.1783 48.6891 25.9466 49.6843 27.3493 50.3186C28.8421 51.0019 30.8326 50.3238 30.8326 50.3238Z" fill="#545452"/>
<path d="M68.6595 30.3698C67.03 33.0847 61.1488 42.5421 57.5288 42.0445C57.5288 42.0445 53.5917 41.9542 56.0798 35.1655C57.6629 30.8236 60.5609 26.7524 61.7805 25.1228C61.9531 24.9021 62.1727 24.7225 62.4233 24.5972C62.674 24.4719 62.9494 24.4039 63.2295 24.3983H64.5419C64.6769 24.4029 64.8084 24.4428 64.9233 24.514C65.0381 24.5852 65.1323 24.6852 65.1965 24.8041C65.2607 24.9231 65.2925 25.0567 65.289 25.1918C65.2854 25.3269 65.2465 25.4587 65.1762 25.574C62.8221 29.1837 56.0359 39.8271 57.7557 40.8224C57.7557 40.8224 60.7414 41.2736 67.574 30.0088C67.6372 29.8839 67.7343 29.7794 67.8543 29.7073C67.9743 29.6352 68.1122 29.5985 68.2521 29.6014C68.3411 29.6024 68.4282 29.6273 68.5043 29.6736C68.5803 29.7199 68.6424 29.7859 68.6841 29.8645C68.7258 29.9432 68.7455 30.0316 68.7412 30.1205C68.7369 30.2094 68.7087 30.2955 68.6595 30.3698ZM63.2759 22.6347C63.2759 22.1371 63.9979 21.7297 64.8229 21.7297C65.6841 21.7297 66.3699 22.1371 66.3699 22.6347C66.3699 23.1324 65.6918 23.5397 64.8229 23.5397C63.9979 23.5397 63.2759 23.1324 63.2759 22.6347Z" fill="#545452"/>
<path d="M93.3161 17.0785C93.3122 17.2571 93.2395 17.4273 93.1131 17.5536C92.9868 17.6799 92.8166 17.7527 92.638 17.7566H88.5127C85.3929 22.5987 81.2753 29.4313 78.5139 35.3125C77.2015 38.1641 76.2965 40.379 77.0674 40.8327C77.0674 40.8327 80.7776 42.2818 88.1053 30.0192C88.1694 29.8945 88.2671 29.7902 88.3874 29.7182C88.5077 29.6462 88.6458 29.6093 88.786 29.6118C88.8769 29.611 88.9664 29.6342 89.0454 29.6791C89.1245 29.7241 89.1902 29.7891 89.236 29.8676C89.2818 29.9461 89.3061 30.0354 89.3063 30.1263C89.3065 30.2172 89.2826 30.3066 89.2372 30.3853C87.4736 33.5077 81.6362 42.5035 76.8405 42.06C76.8405 42.06 73.5377 42.06 75.3915 35.6812C72.8596 39.0331 69.5103 42.3308 66.5246 42.06C66.5246 42.06 62.9948 42.06 65.2586 35.181C67.1125 29.3462 71.0496 22.6503 74.2622 17.7618H69.7991C66.1353 17.7179 64.596 16.1348 65.501 14.9565C66.2255 14.0077 68.0355 15.1396 68.0355 15.1396C70.2064 16.2689 71.9726 16.4055 72.4187 16.4055H75.1801C77.3949 13.0537 79.0708 10.8415 79.0708 10.8415C79.2489 10.616 79.4757 10.4336 79.7342 10.3082C79.9927 10.1827 80.2763 10.1173 80.5636 10.117H81.8296C81.967 10.1158 82.1022 10.1521 82.2205 10.222C82.3388 10.2919 82.4358 10.3928 82.501 10.5137C82.5663 10.6347 82.5973 10.7711 82.5907 10.9084C82.5842 11.0456 82.5403 11.1785 82.4639 11.2927C82.4639 11.2927 81.0613 13.3296 79.0708 16.4055H85.496C87.7108 13.0537 89.3867 10.8415 89.3867 10.8415C89.5648 10.616 89.7916 10.4336 90.0501 10.3082C90.3087 10.1827 90.5922 10.1173 90.8796 10.117H92.1455C92.283 10.1158 92.4181 10.1521 92.5364 10.222C92.6547 10.2919 92.7517 10.3928 92.8169 10.5137C92.8822 10.6347 92.9132 10.7711 92.9067 10.9084C92.9001 11.0456 92.8563 11.1785 92.7798 11.2927C92.7798 11.2927 91.3772 13.3296 89.3867 16.4055H92.6432C92.7318 16.4045 92.8198 16.4212 92.9019 16.4547C92.984 16.4881 93.0586 16.5376 93.1213 16.6003C93.184 16.663 93.2336 16.7376 93.267 16.8197C93.3005 16.9019 93.3172 16.9898 93.3161 17.0785ZM84.5859 17.7566H78.2045C75.0847 22.5987 70.9671 29.4313 68.2057 35.3125C66.8933 38.1641 65.9883 40.379 66.7592 40.8327C66.7592 40.8327 70.2426 42.1889 77.119 31.1511C79.1559 26.4353 82.0952 21.5468 84.5859 17.7463V17.7566Z" fill="#545452"/>
<path d="M87.5252 40.8225C87.5252 40.8225 91.2354 42.2715 98.5657 30.0089C98.6336 29.888 98.7319 29.7869 98.8508 29.7154C98.9697 29.644 99.1051 29.6047 99.2438 29.6015C99.3349 29.6002 99.4247 29.6231 99.5041 29.6679C99.5835 29.7126 99.6497 29.7776 99.6958 29.8562C99.7419 29.9348 99.7663 30.0242 99.7667 30.1154C99.767 30.2065 99.7431 30.2961 99.6976 30.375C97.9314 33.4974 92.1404 42.4932 87.2983 42.0497C87.2983 42.0497 83.815 42.0497 86.0324 35.1707C89.4254 24.5402 99.8316 10.8312 99.8316 10.8312C100.013 10.6096 100.241 10.4301 100.499 10.305C100.756 10.1799 101.038 10.1123 101.324 10.1067H102.637C102.771 10.112 102.901 10.1533 103.014 10.2261C103.127 10.299 103.218 10.4007 103.278 10.5209C103.338 10.641 103.365 10.775 103.356 10.9089C103.346 11.0429 103.301 11.1719 103.225 11.2824C103.225 11.2824 93.8602 24.8135 88.9742 35.3022C87.6619 38.1539 86.7569 40.3687 87.5252 40.8225Z" fill="#545452"/>
<path d="M113.407 30.3699C111.858 32.9328 110.15 35.3965 108.294 37.7465C107.132 39.203 105.722 40.4432 104.13 41.4103C102.547 42.3153 100.6 42.7227 98.8363 42.0446C96.4849 41.1396 95.5334 39.2393 95.5334 37.3391C95.5334 34.668 97.163 31.9994 97.163 31.9994C99.6046 27.7477 104.086 24.2179 107.342 24.5789C107.668 24.6098 107.989 24.6861 108.294 24.8058C108.698 24.9788 109.033 25.2807 109.248 25.6644C109.565 26.2084 109.655 26.8865 109.565 27.7477C109.231 29.1797 108.564 30.5127 107.618 31.6384C106.587 32.8605 104.859 34.1265 102.598 33.6727C102.598 33.6727 101.51 33.4484 101.105 32.7239C101.06 32.8237 100.998 32.9152 100.922 32.9946C97.0779 39.1826 99.7465 40.8689 99.7465 40.8689C101.149 41.5908 102.732 41.0493 104.091 40.1443C105.367 39.2393 106.507 38.1576 107.479 36.9317C109.24 34.7414 110.843 32.4279 112.275 30.0089C112.338 29.8844 112.436 29.7802 112.555 29.7082C112.675 29.6362 112.813 29.5992 112.953 29.6015C113.043 29.6008 113.132 29.6238 113.211 29.6683C113.289 29.7127 113.355 29.7771 113.401 29.8549C113.447 29.9327 113.472 30.0213 113.473 30.1117C113.474 30.202 113.451 30.2911 113.407 30.3699ZM102.276 31.1434C101.688 32.0922 102.5 32.4996 102.5 32.4996C103.044 32.7703 103.813 32.68 104.403 32.4996C105.114 32.2084 105.76 31.778 106.303 31.2336C107.228 30.2777 107.911 29.1142 108.294 27.8405C108.745 26.2548 108.02 25.9403 108.02 25.9403C107.84 25.8449 106.527 25.4401 102.286 31.1408L102.276 31.1434Z" fill="#545452"/>
<path d="M194.676 30.37C193.046 33.085 187.165 42.5424 183.499 42.0447C183.499 42.0447 180.603 41.9545 181.418 37.5662C181.237 37.7905 181.011 38.0174 180.83 38.2443C179.067 40.2786 177.478 41.4569 176.125 41.8178C175.796 41.877 175.463 41.9072 175.129 41.9081C175.129 41.9081 171.736 42.135 173.002 35.9779C174.134 30.2772 180.479 24.1175 184.677 24.5765C185.002 24.6075 185.322 24.6838 185.626 24.8034C186.031 24.9917 186.375 25.289 186.621 25.662C186.711 25.8888 186.802 26.1157 186.892 26.3865C187.171 25.9486 187.473 25.526 187.797 25.1205C187.966 24.8962 188.185 24.7141 188.436 24.5884C188.688 24.4627 188.965 24.3969 189.246 24.396H190.558C190.693 24.401 190.824 24.4412 190.939 24.5126C191.053 24.5839 191.147 24.684 191.211 24.8029C191.275 24.9217 191.306 25.0552 191.303 25.1901C191.299 25.325 191.26 25.4565 191.19 25.5717C188.792 29.1814 182.006 39.8248 183.713 40.82C183.713 40.82 186.698 41.2712 193.531 30.0065C193.604 29.88 193.71 29.7754 193.838 29.7038C193.965 29.6321 194.109 29.596 194.256 29.5991C194.343 29.6038 194.429 29.6309 194.503 29.6778C194.578 29.7247 194.639 29.7899 194.681 29.8672C194.723 29.9445 194.745 30.0313 194.744 30.1193C194.743 30.2073 194.719 30.2936 194.676 30.37ZM182.473 34.1705C183.365 32.1496 184.408 30.1991 185.595 28.3357C185.729 27.9721 186 26.8867 185.639 26.2524C185.591 26.1211 185.5 26.01 185.381 25.9378C185.2 25.8476 183.661 25.3938 178.321 32.9948C178.321 32.9948 173.889 39.5102 175.697 40.5519C175.854 40.6155 176.028 40.6307 176.194 40.5957C177.282 40.1883 178.595 39.1493 179.997 37.5198C180.894 36.4578 181.72 35.339 182.473 34.1705Z" fill="#545452"/>
<path d="M203.587 30.3698C201.96 33.0847 196.076 42.5421 192.458 42.0445C192.458 42.0445 188.521 41.9542 191.009 35.1655C192.593 30.8236 195.488 26.7524 196.71 25.1228C196.883 24.9021 197.102 24.7225 197.353 24.5972C197.604 24.4719 197.879 24.4039 198.159 24.3983H199.472C199.606 24.4033 199.738 24.4435 199.852 24.5149C199.967 24.5863 200.06 24.6864 200.124 24.8052C200.188 24.9241 200.22 25.0575 200.216 25.1924C200.212 25.3273 200.174 25.4589 200.103 25.574C197.752 29.1837 190.966 39.8271 192.683 40.8224C192.683 40.8224 195.669 41.2736 202.501 30.0088C202.565 29.8841 202.663 29.7798 202.783 29.7078C202.904 29.6358 203.042 29.5989 203.182 29.6014C203.271 29.6028 203.357 29.6281 203.433 29.6746C203.509 29.7211 203.57 29.7871 203.612 29.8656C203.653 29.9442 203.673 30.0325 203.668 30.1212C203.664 30.2099 203.636 30.2957 203.587 30.3698ZM198.203 22.6347C198.203 22.1371 198.928 21.7297 199.75 21.7297C200.609 21.7297 201.297 22.1371 201.297 22.6347C201.297 23.1324 200.619 23.5397 199.75 23.5397C198.928 23.5397 198.2 23.1324 198.2 22.6347H198.203Z" fill="#545452"/>
<path d="M216.437 30.3698C216.12 30.8674 215.622 31.6822 215.034 32.6336C215.034 32.6336 213.487 35.3021 210.6 35.8462C210.391 36.968 209.977 38.0416 209.377 39.0124C207.794 41.6371 204.221 43.0836 201.552 41.8176C201.552 41.8176 198.61 40.5955 199.652 37.5195C199.652 37.5195 200.828 33.4483 207.253 34.4874C207.361 34.4806 207.469 34.4964 207.57 34.5338C207.343 32.4067 205.487 29.635 204.765 28.6036C203.813 30.1867 203.179 31.1381 202.638 31.9555C202.591 32.0302 202.525 32.091 202.447 32.1317C202.369 32.1723 202.281 32.1912 202.193 32.1865C202.105 32.1817 202.02 32.1535 201.947 32.1047C201.874 32.0559 201.815 31.9884 201.776 31.9091C201.706 31.7904 201.672 31.6531 201.681 31.5151C201.689 31.3772 201.738 31.2449 201.823 31.1356C202.547 30.0037 203.269 28.8718 203.994 27.5594C201.235 23.6249 203.22 21.588 204.945 21.2708C206.846 20.9537 207.07 22.493 207.07 22.493C207.343 23.7151 206.392 25.7494 205.941 26.6183L207.297 27.9745C208.79 29.5215 210.69 31.6409 210.736 34.49C212.02 34.2007 213.14 33.4218 213.859 32.319C214.356 31.5945 214.807 30.8261 215.351 29.9985C215.41 29.8703 215.507 29.7628 215.628 29.6901C215.749 29.6174 215.889 29.5829 216.03 29.5911C216.117 29.5972 216.202 29.6257 216.276 29.6739C216.35 29.7221 216.41 29.7884 216.451 29.8665C216.492 29.9446 216.512 30.0319 216.51 30.12C216.507 30.2081 216.482 30.2941 216.437 30.3698ZM207.433 35.9003C204.718 35.7198 202.05 35.6296 201.279 37.7052C200.828 38.9273 202.003 39.51 202.003 39.51C205.76 41.0029 207.433 35.9003 207.433 35.9003ZM205.113 25.5406C205.268 25.1865 205.404 24.8241 205.52 24.4551C205.971 22.9596 205.113 23.0963 205.113 23.0963C204.672 23.1762 204.131 23.9007 205.126 25.5303L205.113 25.5406Z" fill="#545452"/>
<path d="M218.337 47.2016C215.125 50.8113 210.239 54.0806 203.316 53.2195C203.316 53.2195 199.964 52.8121 197.615 51.2754C195.986 50.1874 194.9 48.4702 195.669 46.1626C197.161 41.5473 207.07 43.2207 216.481 45.0771C218.11 42.95 219.65 40.2788 221.052 36.8857C218.788 39.7373 216.21 42.3157 214.266 42.0424C214.266 42.0424 210.373 41.9521 212.863 35.1634C214.447 30.8214 217.342 26.7502 218.564 25.1207C218.729 24.8927 218.947 24.7078 219.199 24.5817C219.451 24.4556 219.729 24.3919 220.011 24.3962H221.279C221.418 24.3931 221.555 24.4273 221.676 24.4954C221.797 24.5635 221.897 24.6628 221.967 24.7831C222.036 24.9033 222.072 25.04 222.07 25.1788C222.068 25.3176 222.029 25.4534 221.957 25.5719C219.559 29.1816 212.773 39.825 214.48 40.8202C214.48 40.8202 217.151 41.2276 223.213 31.7703C224.436 29.4451 225.843 27.2215 227.421 25.1207C227.586 24.8925 227.804 24.7075 228.057 24.5814C228.309 24.4553 228.588 24.3917 228.87 24.3962H230.136C230.275 24.3931 230.412 24.4273 230.533 24.4954C230.654 24.5635 230.754 24.6628 230.823 24.7831C230.893 24.9033 230.928 25.04 230.927 25.1788C230.925 25.3176 230.886 25.4534 230.814 25.5719C228.416 29.1816 221.63 39.825 223.337 40.8202C223.337 40.8202 226.322 41.2715 233.155 30.0067C233.223 29.8858 233.321 29.7847 233.44 29.7132C233.559 29.6418 233.694 29.6025 233.833 29.5993C233.924 29.5985 234.014 29.6217 234.093 29.6666C234.172 29.7116 234.237 29.7766 234.283 29.8551C234.329 29.9337 234.353 30.0229 234.353 30.1138C234.354 30.2047 234.33 30.2941 234.284 30.3728C232.657 33.0878 226.774 42.5452 223.11 42.0475C222.722 42.0269 222.347 41.9013 222.024 41.684C221.315 43.0834 220.483 44.4166 219.536 45.6675M215.328 46.3895C209.808 44.943 197.863 42.6792 196.597 46.5725C195.872 48.8337 198.226 51.278 203.61 51.6854C207.343 51.9535 211.551 50.5973 215.352 46.3869L215.328 46.3895Z" fill="#545452"/>
<path d="M152.564 13.683C152.711 13.7738 152.828 13.9079 152.896 14.0671C152.965 14.2263 152.983 14.4028 152.948 14.5725C152.922 14.6937 152.894 14.8097 152.863 14.9258C152.788 15.23 152.703 15.5291 152.605 15.8205C152.422 16.4083 152.208 16.973 151.976 17.5273C151.516 18.6277 150.985 19.6973 150.388 20.7296C149.23 22.7923 148.093 24.8885 146.997 26.9872C146.453 28.0392 145.906 29.0912 145.409 30.1638C144.911 31.2363 144.429 32.3141 144.024 33.4176C143.607 34.5062 143.301 35.6345 143.112 36.7849C143.016 37.3469 142.991 37.9185 143.037 38.4866C143.067 39.0416 143.231 39.581 143.514 40.0594L143.472 40.0182C143.649 40.1791 143.858 40.2996 144.086 40.3714C144.205 40.4066 144.329 40.4197 144.452 40.4101C144.588 40.398 144.721 40.364 144.847 40.3095C144.759 40.4326 144.644 40.5326 144.509 40.6009C144.365 40.6717 144.208 40.7095 144.047 40.7117C143.887 40.7117 143.728 40.6864 143.576 40.637C143.42 40.5844 143.273 40.5107 143.137 40.4178L143.106 40.3817C142.687 39.8733 142.398 39.2708 142.263 38.6259C142.121 38.0016 142.049 37.3633 142.049 36.7231C142.047 35.4677 142.171 34.2152 142.418 32.9845C142.645 31.7598 142.934 30.5557 143.282 29.3748C143.63 28.1939 144.016 27.0182 144.452 25.8682C145.324 23.5731 146.338 21.3342 147.487 19.1646C148.041 18.074 148.698 17.038 149.446 16.0706C149.822 15.5779 150.228 15.1086 150.661 14.6654C150.976 14.342 151.31 14.0372 151.661 13.7526C151.788 13.6503 151.943 13.5905 152.106 13.5817C152.268 13.5729 152.429 13.6156 152.566 13.7036L152.564 13.683Z" fill="#545452"/>
<path d="M144.352 17.4575C144.119 17.9278 143.806 18.3537 143.426 18.7158C143.044 19.0828 142.629 19.4134 142.186 19.7033C141.291 20.2741 140.332 20.7371 139.329 21.0827C138.32 21.4348 137.277 21.6828 136.217 21.8227C135.128 21.9737 134.024 21.9815 132.932 21.8459C132.358 21.7731 131.793 21.6409 131.246 21.4514C130.659 21.2513 130.105 20.9617 129.606 20.5928C129.067 20.1919 128.619 19.6803 128.294 19.0922C127.97 18.5037 127.774 17.8536 127.719 17.1842C127.635 15.9796 127.827 14.7718 128.278 13.6519C128.669 12.6015 129.188 11.6037 129.825 10.6817C131.076 8.89842 132.609 7.33088 134.363 6.04066C136.077 4.77557 137.938 3.72201 139.904 2.90282C141.853 2.09258 143.885 1.49774 145.963 1.12892C146.996 0.946596 148.039 0.821781 149.086 0.75506C150.129 0.682881 151.176 0.672551 152.221 0.724121C156.395 0.922491 160.465 2.09039 164.11 4.13526C165.015 4.65093 165.896 5.20012 166.747 5.79829C167.598 6.39647 168.428 7.03074 169.225 7.70627C169.429 7.87128 169.622 8.04661 169.818 8.22194C170.014 8.39726 170.213 8.5597 170.406 8.73761C170.799 9.10865 171.174 9.49934 171.527 9.90817C172.243 10.7386 172.863 11.6457 173.379 12.6128C174.41 14.5825 175.024 16.7433 175.184 18.9607C175.349 21.1589 175.165 23.3694 174.637 25.5097C174.121 27.6193 173.362 29.662 172.376 31.5972C171.889 32.5597 171.36 33.4965 170.788 34.4076C170.215 35.3186 169.601 36.1986 168.944 37.0478C167.641 38.7519 166.187 40.3353 164.599 41.779C163.005 43.2265 161.279 44.5214 159.443 45.6465C157.606 46.7786 155.648 47.7014 153.605 48.3976C151.549 49.1061 149.406 49.5303 147.234 49.6584C146.145 49.7186 145.053 49.6962 143.968 49.5914C142.899 49.483 141.838 49.3021 140.794 49.0499C138.671 48.5594 136.64 47.7325 134.778 46.6005C132.87 45.4387 131.247 43.8633 130.029 41.9904C128.791 40.0688 128.133 37.8307 128.134 35.5446C128.166 33.2436 128.9 31.0074 130.238 29.1348C131.552 27.3238 133.266 25.8406 135.248 24.8007C137.143 23.7514 139.184 22.991 141.304 22.5446C143.464 22.09 145.691 22.0497 147.866 22.426C150.098 22.8054 152.202 23.731 153.99 25.1204C155.89 26.6034 157.197 28.7166 157.677 31.0789C157.708 31.231 157.728 31.3883 157.749 31.543L157.795 31.9787C157.812 32.1269 157.82 32.2758 157.821 32.4248C157.821 32.5744 157.837 32.7213 157.821 32.876C157.816 33.5092 157.718 34.1382 157.53 34.7427C157.33 35.3933 157.008 35.9997 156.581 36.5295C156.472 36.6653 156.355 36.7952 156.233 36.9189C156.112 37.043 155.985 37.1601 155.851 37.2695C155.721 37.3808 155.583 37.4833 155.439 37.5763C155.298 37.6704 155.153 37.7565 155.003 37.8342C154.434 38.1399 153.815 38.3424 153.175 38.4323C151.457 38.6613 149.717 38.2159 148.32 37.1896L147.969 36.9317C148.112 36.9585 148.257 36.9723 148.402 36.973C149.389 36.9727 150.372 36.8672 151.337 36.6584C152.146 36.4848 152.899 36.1127 153.528 35.5755C154.019 35.0987 154.361 34.4897 154.513 33.8223C154.616 33.4483 154.693 33.0674 154.742 32.6826C154.763 32.4738 154.791 32.2675 154.799 32.0484L154.815 31.7209C154.815 31.6204 154.815 31.5224 154.815 31.4244C154.792 30.5955 154.544 29.7885 154.095 29.091C153.63 28.3461 153.042 27.6846 152.358 27.1341C150.914 26.002 149.214 25.2423 147.407 24.9218C145.552 24.588 143.65 24.609 141.802 24.9837C139.92 25.3671 138.106 26.0284 136.418 26.9458C134.76 27.7889 133.323 29.0105 132.223 30.5117C131.167 31.9816 130.587 33.7399 130.56 35.5498C130.555 37.3695 131.086 39.1504 132.087 40.6703C133.12 42.221 134.487 43.5205 136.088 44.4734C137.728 45.4504 139.515 46.1582 141.379 46.5696C142.313 46.7784 143.261 46.9239 144.215 47.0053C145.159 47.0818 146.108 47.0775 147.051 46.9924C148.956 46.8113 150.825 46.3553 152.6 45.6388C154.388 44.9185 156.09 44.0009 157.674 42.9032C159.269 41.8045 160.761 40.5635 162.132 39.1955C163.511 37.8355 164.781 36.37 165.932 34.8124C168.239 31.7289 170.005 28.2765 171.156 24.6021C171.721 22.7997 172.067 20.936 172.188 19.051C172.298 17.1729 172.043 15.2913 171.437 13.5101C170.962 12.1554 170.245 10.8983 169.32 9.79988C169.171 9.61424 168.996 9.42859 168.831 9.24295C168.666 9.05731 168.495 8.87425 168.315 8.69634C166.936 7.24624 165.367 5.9895 163.651 4.96033C160.193 2.89669 156.229 1.83776 152.203 1.90242C151.208 1.9182 150.214 1.99223 149.227 2.12416C148.244 2.26331 147.27 2.45873 146.309 2.70945C144.396 3.21215 142.543 3.91835 140.781 4.81595C139.038 5.69459 137.396 6.75873 135.882 7.98988C134.378 9.17641 133.05 10.5696 131.937 12.1281C131.411 12.8831 130.971 13.6942 130.625 14.5466C130.286 15.3172 130.111 16.1493 130.109 16.9909C130.116 17.343 130.198 17.6895 130.35 18.0074C130.501 18.3253 130.719 18.6072 130.988 18.8344C131.653 19.3607 132.435 19.7197 133.267 19.8812C134.196 20.0875 135.145 20.1852 136.096 20.1725C137.073 20.1651 138.048 20.0728 139.009 19.8967C139.985 19.73 140.94 19.4612 141.859 19.0948C142.321 18.9143 142.767 18.6916 143.189 18.4296C143.403 18.2994 143.609 18.1555 143.805 17.999C144.002 17.8334 144.184 17.6524 144.352 17.4575Z" fill="#545452"/>
<path d="M218.27 45.5203C221.313 46.2087 224.773 46.9049 228.305 47.4953C233.441 48.2688 239.485 47.8125 239.485 47.8125C246.096 47.4231 249.685 42.9729 249.749 41.6683C249.832 40.6834 250.639 40.7994 250.639 40.7994C250.999 40.787 251.356 40.8596 251.683 41.0115C252.01 41.1634 252.296 41.3902 252.518 41.6734C252.756 42.0735 252.847 42.5439 252.776 43.0039C252.712 43.322 252.619 43.6336 252.498 43.9346C252.108 44.8928 251.527 45.7614 250.791 46.4872C249.678 47.5895 248.33 48.4252 246.848 48.9315C244.528 49.7617 241.648 50.1484 237.982 50.0479C231.451 49.9138 223.937 48.3152 217.914 47.0209" fill="#545452"/>
<path d="M75.5977 67.6141H74.3317L69.2344 59.8791V67.6141H67.9658V57.8938H69.2344L74.3317 65.6082V57.899H75.5977V67.6141Z" fill="#545452"/>
<path d="M84.8875 65.4609H80.6539L79.8804 67.619H78.5448L82.0539 57.9683H83.5158L87.0043 67.6138H85.6662L84.8875 65.4609ZM84.524 64.4296L82.7707 59.5307L81.0149 64.4296H84.524Z" fill="#545452"/>
<path d="M91.1993 57.9116V67.6139H89.9333V57.9116H91.1993Z" fill="#545452"/>
<path d="M96.013 66.5826H99.4113V67.6139H94.7471V57.9116H96.013V66.5826Z" fill="#545452"/>
<path d="M121.853 67.6141L120.585 66.325C120.156 66.7853 119.641 67.1567 119.069 67.4182C118.492 67.663 117.87 67.7842 117.243 67.774C116.631 67.7861 116.024 67.6619 115.467 67.4105C114.977 67.1894 114.561 66.8312 114.27 66.3791C113.983 65.9152 113.835 65.378 113.845 64.8321C113.834 64.1882 114.037 63.5588 114.422 63.0428C114.866 62.4846 115.457 62.062 116.129 61.8232C115.871 61.5301 115.656 61.202 115.49 60.8486C115.357 60.5412 115.29 60.209 115.294 59.874C115.288 59.482 115.397 59.0969 115.606 58.7653C115.826 58.427 116.138 58.1587 116.506 57.9918C116.929 57.7989 117.391 57.7037 117.857 57.7133C118.31 57.7017 118.759 57.8017 119.164 58.0047C119.519 58.1851 119.812 58.4692 120.002 58.8194C120.192 59.1764 120.281 59.5784 120.26 59.9823H118.991C119.005 59.8186 118.984 59.6538 118.928 59.499C118.873 59.3443 118.786 59.2031 118.671 59.085C118.557 58.9749 118.422 58.8892 118.273 58.8329C118.125 58.7766 117.966 58.751 117.808 58.7576C117.48 58.7417 117.158 58.8535 116.91 59.0695C116.798 59.17 116.709 59.2939 116.65 59.4324C116.591 59.571 116.563 59.7208 116.568 59.8714C116.569 60.1566 116.649 60.4359 116.8 60.6784C117.022 61.0259 117.281 61.3484 117.573 61.6401L120.471 64.5511L120.729 64.1592L121.675 62.5735H123.042L121.882 64.5562C121.722 64.8347 121.536 65.126 121.325 65.4329L123.511 67.6193L121.853 67.6141ZM118.602 66.4023C119.04 66.179 119.43 65.8714 119.749 65.4973L116.895 62.6276C115.706 63.0849 115.112 63.8042 115.113 64.7857C115.107 65.0426 115.157 65.2979 115.259 65.5338C115.36 65.7697 115.512 65.9807 115.704 66.1522C116.13 66.526 116.685 66.7201 117.251 66.6937C117.717 66.7021 118.179 66.6042 118.602 66.4075V66.4023Z" fill="#545452"/>
<path d="M132.466 66.5826H135.861V67.6139H131.197V57.9116H132.466V66.5826Z" fill="#545452"/>
<path d="M144.344 65.4609H140.11L139.337 67.619H138.001L141.51 57.9683H142.972L146.461 67.6138H145.123L144.344 65.4609ZM143.981 64.4296L142.227 59.5307L140.471 64.4296H143.981Z" fill="#545452"/>
<path d="M150.743 67.3744C150.268 67.1733 149.856 66.8461 149.552 66.4281C149.262 66.0192 149.106 65.5298 149.106 65.0281H150.457C150.496 65.4682 150.697 65.8781 151.022 66.178C151.424 66.5141 151.94 66.6813 152.463 66.6447C152.978 66.6733 153.485 66.5118 153.889 66.1909C154.057 66.0481 154.19 65.8694 154.279 65.6682C154.368 65.4669 154.411 65.2481 154.405 65.0281C154.419 64.6987 154.309 64.376 154.098 64.1231C153.887 63.8868 153.621 63.7054 153.324 63.5945C152.918 63.4422 152.504 63.3122 152.084 63.2052C151.557 63.076 151.04 62.9079 150.537 62.7024C150.146 62.5301 149.805 62.2592 149.55 61.916C149.257 61.4942 149.113 60.9873 149.14 60.4747C149.131 59.9767 149.271 59.4874 149.542 59.0695C149.822 58.6517 150.216 58.3226 150.676 58.1207C151.205 57.8904 151.778 57.777 152.355 57.7881C153.156 57.754 153.944 57.9941 154.59 58.4688C154.871 58.6841 155.104 58.9561 155.273 59.267C155.442 59.5778 155.544 59.9208 155.573 60.2736H154.18C154.122 59.8828 153.911 59.5308 153.595 59.2938C153.206 58.9941 152.722 58.8432 152.231 58.8684C151.767 58.8497 151.31 58.9948 150.942 59.2784C150.775 59.4184 150.644 59.5951 150.557 59.7946C150.47 59.9941 150.431 60.211 150.442 60.4283C150.433 60.7478 150.546 61.0586 150.759 61.2972C150.961 61.5246 151.213 61.7012 151.496 61.8129C151.79 61.9281 152.201 62.0604 152.729 62.2099C153.256 62.3453 153.773 62.5177 154.276 62.7256C154.671 62.903 155.016 63.1759 155.279 63.5197C155.577 63.9449 155.724 64.4579 155.696 64.9765C155.696 65.4479 155.566 65.91 155.32 66.3121C155.051 66.7482 154.665 67.1001 154.206 67.328C153.667 67.5997 153.069 67.7343 152.466 67.7199C151.874 67.7297 151.286 67.6119 150.743 67.3744Z" fill="#545452"/>
<path d="M102.356 67.3743C101.881 67.172 101.469 66.8451 101.165 66.4281C100.875 66.0185 100.719 65.5295 100.719 65.028H102.07C102.108 65.4681 102.31 65.8781 102.634 66.1779C103.037 66.5135 103.553 66.6807 104.076 66.6446C104.591 66.6733 105.099 66.5119 105.504 66.1908C105.672 66.0481 105.805 65.8695 105.894 65.6682C105.984 65.4669 106.026 65.2481 106.02 65.028C106.034 64.6986 105.924 64.3759 105.713 64.123C105.502 63.8867 105.236 63.7053 104.939 63.5944C104.534 63.4424 104.121 63.3124 103.702 63.2051C103.174 63.0767 102.657 62.9086 102.155 62.7024C101.762 62.5309 101.421 62.2598 101.165 61.916C100.872 61.4941 100.728 60.9872 100.755 60.4747C100.745 59.9762 100.886 59.4865 101.159 59.0695C101.439 58.6511 101.833 58.3218 102.294 58.1206C102.823 57.8904 103.395 57.7769 103.972 57.788C104.772 57.7543 105.56 57.9944 106.205 58.4687C106.486 58.6841 106.719 58.956 106.888 59.2669C107.057 59.5778 107.159 59.9207 107.188 60.2736H105.795C105.737 59.8827 105.526 59.5307 105.21 59.2938C104.821 58.994 104.337 58.8432 103.846 58.8684C103.381 58.849 102.925 58.9942 102.557 59.2783C102.387 59.4165 102.252 59.5924 102.163 59.7921C102.073 59.9918 102.031 60.2096 102.041 60.4283C102.029 60.7436 102.135 61.052 102.34 61.292C102.543 61.5194 102.797 61.696 103.08 61.8077C103.371 61.9228 103.782 62.0552 104.313 62.2047C104.84 62.3404 105.357 62.5127 105.86 62.7204C106.255 62.8978 106.599 63.1707 106.863 63.5145C107.161 63.9397 107.308 64.4526 107.28 64.9713C107.28 65.4426 107.15 65.9048 106.904 66.3069C106.635 66.7429 106.249 67.0949 105.79 67.3227C105.251 67.5945 104.653 67.7291 104.05 67.7146C103.467 67.722 102.89 67.6061 102.356 67.3743Z" fill="#545452"/>
<path d="M166.43 57.9116V67.6139H165.162V63.2307H160.219V67.6139H158.953V57.9116H160.219V62.1736H165.162V57.9116H166.43Z" fill="#545452"/>
<path d="M171.249 58.9432V62.1996H174.786V63.231H171.249V66.5828H175.204V67.6141H169.98V57.8938H175.204V58.9251L171.249 58.9432Z" fill="#545452"/>
<path d="M179.876 67.3744C179.4 67.1733 178.988 66.8461 178.685 66.4281C178.395 66.0186 178.24 65.5296 178.239 65.0281H179.59C179.629 65.4682 179.83 65.8781 180.154 66.178C180.557 66.5141 181.073 66.6813 181.596 66.6447C182.111 66.6733 182.618 66.5118 183.022 66.1909C183.189 66.0481 183.322 65.8694 183.412 65.6682C183.501 65.4669 183.544 65.2481 183.537 65.0281C183.551 64.6987 183.442 64.376 183.23 64.1231C183.019 63.8868 182.754 63.7054 182.457 63.5945C182.051 63.4422 181.637 63.3122 181.217 63.2052C180.689 63.076 180.172 62.9079 179.67 62.7024C179.278 62.5301 178.938 62.2592 178.682 61.916C178.39 61.4942 178.246 60.9873 178.272 60.4747C178.263 59.9767 178.403 59.4874 178.675 59.0695C178.955 58.6517 179.348 58.3226 179.809 58.1207C180.338 57.8904 180.911 57.777 181.488 57.7881C182.288 57.754 183.077 57.9941 183.723 58.4688C184.004 58.6841 184.236 58.9561 184.406 59.267C184.575 59.5778 184.677 59.9208 184.705 60.2736H183.313C183.254 59.8828 183.044 59.5308 182.728 59.2938C182.338 58.9941 181.855 58.8432 181.364 58.8684C180.899 58.8497 180.443 58.9948 180.075 59.2784C179.908 59.4184 179.776 59.5951 179.689 59.7946C179.603 59.9941 179.563 60.211 179.574 60.4283C179.562 60.7436 179.669 61.0521 179.873 61.2921C180.075 61.5194 180.328 61.696 180.611 61.8077C180.905 61.9229 181.316 62.0553 181.843 62.2048C182.37 62.3402 182.887 62.5125 183.39 62.7205C183.785 62.8979 184.13 63.1708 184.393 63.5146C184.692 63.9397 184.839 64.4527 184.811 64.9714C184.811 65.4427 184.681 65.9049 184.435 66.3069C184.166 66.743 183.78 67.095 183.321 67.3228C182.782 67.5945 182.184 67.7291 181.58 67.7147C180.995 67.7236 180.414 67.6076 179.876 67.3744Z" fill="#545452"/>
</svg>
